<svg version="1.1" xmlns="http://www.w3.org/2000/svg" xmlns:xlink="http://www.w3.org/1999/xlink" width="178.32749" height="199.00289" viewBox="0,0,178.32749,199.00289"><g transform="translate(-150.83625,-80.49855)"><g data-paper-data="{&quot;isPaintingLayer&quot;:true}" fill-rule="nonzero" stroke="none" stroke-width="1" stroke-linecap="butt" stroke-linejoin="miter" stroke-miterlimit="10" stroke-dasharray="" stroke-dashoffset="0" style="mix-blend-mode: normal"><path d="M240.55902,80.61958c0.49715,0.24196 0.97277,0.51595 1.44996,0.79486c0.14118,0.08118 0.28237,0.16236 0.42783,0.246c0.44637,0.25723 0.89158,0.51636 1.33658,0.77595c0.27642,0.16068 0.55283,0.32137 0.82925,0.48205c0.55508,0.32318 1.10964,0.64725 1.66396,0.97173c1.34159,0.78465 2.6891,1.55906 4.03584,2.33482c0.75871,0.43714 1.5171,0.87482 2.27552,1.31246c0.3028,0.1747 0.6056,0.34939 0.90841,0.52408c4.23924,2.44571 8.47848,4.89143 12.71771,7.33714c0.22493,0.12976 0.22493,0.12976 0.45441,0.26214c0.30214,0.17432 0.60426,0.34867 0.90636,0.52306c0.76702,0.4427 1.53437,0.88481 2.30234,1.32586c1.84222,1.05886 3.67417,2.13241 5.49085,3.23457c-0.08265,0.54076 -0.2435,0.93853 -0.51262,1.41338c-0.07781,0.13824 -0.15563,0.27649 -0.2358,0.41892c-0.0845,0.14766 -0.16901,0.29532 -0.25607,0.44745c-0.08694,0.15342 -0.17387,0.30685 -0.26344,0.46492c-0.27474,0.48348 -0.55121,0.9659 -0.8284,1.44798c-0.13282,0.23108 -0.13282,0.23108 -0.26832,0.46683c-0.25622,0.44465 -0.51335,0.88876 -0.77111,1.33252c-0.11611,0.20005 -0.11611,0.20005 -0.23457,0.40415c-0.53216,0.91011 -1.08918,1.80215 -1.66085,2.68793c-0.529,-0.1979 -1.00589,-0.44082 -1.49527,-0.72225c-0.15561,-0.0892 -0.31121,-0.1784 -0.47154,-0.2703c-0.16838,-0.09714 -0.33675,-0.19429 -0.50511,-0.29145c-0.17545,-0.10083 -0.35091,-0.20162 -0.5264,-0.30237c-0.451,-0.2591 -0.90168,-0.51876 -1.35227,-0.77859c-0.24864,-0.14332 -0.49738,-0.28647 -0.74618,-0.42953c-1.74387,-1.00277 -3.48369,-2.01223 -5.22014,-3.0278c-1.07597,-0.62815 -2.1569,-1.24736 -3.23934,-1.86424c-1.35858,-0.77425 -2.7125,-1.556 -4.06225,-2.34557c-1.47078,-0.86008 -2.947,-1.71064 -4.42337,-2.56107c-0.6077,-0.35014 -1.21519,-0.70062 -1.82265,-1.05117c-0.30015,-0.17317 -0.60033,-0.34627 -0.90056,-0.5193c-0.70921,-0.40882 -1.41805,-0.81824 -2.12567,-1.2298c-0.33399,-0.1942 -0.66817,-0.38806 -1.00237,-0.58189c-0.23559,-0.13683 -0.47089,-0.27415 -0.70618,-0.41149c-0.14295,-0.08287 -0.2859,-0.16574 -0.43319,-0.25112c-0.12544,-0.07302 -0.25089,-0.14604 -0.38013,-0.22127c-0.50961,-0.27783 -0.50961,-0.27783 -1.054,-0.47041c-0.34379,0.10626 -0.34379,0.10626 -0.67421,0.32701c-0.19548,0.11753 -0.19548,0.11753 -0.3949,0.23744c-0.14009,0.08757 -0.28018,0.17513 -0.42452,0.26535c-0.30362,0.18358 -0.60734,0.367 -0.91114,0.55029c-0.15685,0.09566 -0.31369,0.19132 -0.47529,0.28988c-0.75093,0.45399 -1.51215,0.88967 -2.27341,1.32604c-0.30539,0.1759 -0.61074,0.35187 -0.91605,0.5279c-0.15164,0.08735 -0.30329,0.1747 -0.45953,0.2647c-0.75871,0.43714 -1.5171,0.87482 -2.27552,1.31246c-0.3028,0.1747 -0.6056,0.34939 -0.90841,0.52408c-0.14989,0.08647 -0.29977,0.17295 -0.4542,0.26204c-12.26351,7.0751 -12.26351,7.0751 -12.71802,7.33731c-0.30179,0.17411 -0.60357,0.34824 -0.90534,0.52238c-0.77249,0.44575 -1.54512,0.89124 -2.318,1.33631c-0.23451,0.1354 -0.23451,0.1354 -0.47375,0.27354c-0.31061,0.17857 -0.62194,0.3559 -0.934,0.53193c-0.65387,0.37089 -1.28801,0.73874 -1.88686,1.19423c-1.70774,1.26145 -3.30164,0.94156 -5.33321,0.71181c-9.05214,-0.86009 -19.40163,4.14394 -26.3366,9.59731c-0.13908,0.10917 -0.27816,0.21835 -0.42145,0.33083c-0.96984,0.77864 -1.89201,1.60749 -2.79292,2.46428c-0.07918,0.07517 -0.15835,0.15034 -0.23993,0.22778c-2.75487,2.63463 -5.87894,6.3763 -6.57313,10.24511c-0.42132,1.03224 -1.98723,1.5935 -2.92612,2.1138c-0.39192,0.21754 -0.78177,0.43617 -1.16728,0.66495c-0.42403,0.24386 -0.85844,0.44033 -1.3067,0.6357c-1.46815,0.65747 -1.46815,0.65747 -2.4994,1.83071c-0.28267,0.99911 -0.22123,2.02897 -0.19171,3.05688c-0.00134,0.34745 -0.00404,0.6949 -0.00796,1.04234c-0.00543,0.75388 -0.00138,1.50681 0.01119,2.26054c0.01862,1.12054 0.01947,2.24062 0.01678,3.36129c-0.00403,1.88524 0.0062,3.77016 0.02465,5.6553c0.01821,1.86577 0.03003,3.73141 0.03337,5.59727c0.00021,0.11612 0.00042,0.23225 0.00064,0.35189c0.00104,0.58977 0.00197,1.17954 0.00285,1.7693c0.00645,4.17448 0.02716,8.34877 0.05627,12.52315c0.02825,4.05466 0.05002,8.10927 0.06305,12.16402c0.00061,0.18756 0.00061,0.18756 0.00123,0.37892c0.00405,1.25576 0.00798,2.51151 0.0118,3.76727c0.0078,2.55799 0.01647,5.11598 0.02568,7.67396c0.00063,0.17641 0.00063,0.17641 0.00128,0.35638c0.02828,7.84993 0.07706,15.69976 0.12891,23.54957c0.10138,0.05843 0.20277,0.11685 0.30722,0.17705c0.38471,0.22174 0.7694,0.44353 1.15407,0.66534c0.24493,0.14121 0.48988,0.28238 0.73484,0.42355c1.03441,0.59652 2.06663,1.19664 3.0971,1.79994c1.21291,0.70901 2.43049,1.40944 3.6511,2.10506c1.35858,0.77425 2.7125,1.556 4.06225,2.34557c1.47078,0.86008 2.947,1.71064 4.42337,2.56107c0.75871,0.43714 1.5171,0.87482 2.27552,1.31246c0.3028,0.1747 0.6056,0.34939 0.90841,0.52408c6.66166,3.84326 13.32332,7.68653 19.98498,11.52979c0.14991,0.08648 0.29982,0.17297 0.45427,0.26207c0.30258,0.17457 0.60516,0.34915 0.90773,0.52374c0.76034,0.43872 1.5208,0.87726 2.28146,1.31542c1.46069,0.84165 2.91986,1.68566 4.37499,2.53688c1.21274,0.70929 2.43049,1.40944 3.6511,2.10506c1.35858,0.77425 2.7125,1.556 4.06225,2.34557c1.47078,0.86008 2.947,1.71064 4.42337,2.56107c0.75871,0.43714 1.5171,0.87482 2.27552,1.31246c0.3028,0.1747 0.6056,0.34939 0.90841,0.52408c1.81682,1.04816 3.63363,2.09633 5.45045,3.14449c0.14993,0.0865 0.29986,0.17299 0.45434,0.26211c0.30236,0.17445 0.60471,0.34891 0.90704,0.5234c0.76368,0.44071 1.52758,0.88104 2.2919,1.32064c0.15301,0.08811 0.30601,0.17621 0.46366,0.26699c0.30388,0.17487 0.60794,0.34946 0.91216,0.52374c0.7458,0.42861 1.48531,0.86452 2.21687,1.31706c0.14056,0.08609 0.28113,0.17218 0.42595,0.26088c0.26529,0.16311 0.52933,0.32829 0.79185,0.49583c0.11768,0.07204 0.23537,0.14408 0.35662,0.2183c0.10202,0.06424 0.20405,0.12847 0.30916,0.19465c0.30784,0.13459 0.30784,0.13459 0.64183,0.00822c0.39121,-0.2016 0.77578,-0.40926 1.15735,-0.62869c0.15558,-0.08919 0.31117,-0.17837 0.47147,-0.27026c0.1684,-0.09715 0.33679,-0.19431 0.50518,-0.29149c0.17565,-0.10093 0.35132,-0.20182 0.52702,-0.30268c0.45111,-0.25913 0.9019,-0.51882 1.35256,-0.77874c0.39952,-0.23039 0.79921,-0.46048 1.19886,-0.69064c0.7488,-0.43151 1.49721,-0.86369 2.2455,-1.29608c0.7553,-0.43633 1.51093,-0.87211 2.26652,-1.30795c0.14971,-0.08638 0.29941,-0.17277 0.45366,-0.26177c0.76032,-0.43872 1.52075,-0.87724 2.28139,-1.31539c1.46069,-0.84165 2.91986,-1.68566 4.37499,-2.53688c1.29553,-0.75771 2.59711,-1.5044 3.90105,-2.2475c1.27518,-0.7269 2.54534,-1.46199 3.8123,-2.20313c1.47078,-0.86008 2.947,-1.71064 4.42337,-2.56107c0.75871,-0.43714 1.5171,-0.87482 2.27552,-1.31246c0.3028,-0.1747 0.6056,-0.34939 0.90841,-0.52408c0.14989,-0.08647 0.29977,-0.17295 0.4542,-0.26204c19.53077,-11.26775 19.53077,-11.26775 19.98505,-11.52983c0.30258,-0.17457 0.60516,-0.34915 0.90773,-0.52374c0.76034,-0.43872 1.5208,-0.87726 2.28146,-1.31542c1.46069,-0.84165 2.91986,-1.68566 4.37499,-2.53688c1.29553,-0.75771 2.59711,-1.5044 3.90105,-2.2475c1.27518,-0.7269 2.54534,-1.46199 3.8123,-2.20313c1.01395,-0.59294 2.03017,-1.18184 3.04779,-1.76847c0.15008,-0.08652 0.30016,-0.17304 0.45478,-0.26218c0.61833,-0.35634 1.23675,-0.71252 1.8552,-1.06864c0.47329,-0.27256 0.94651,-0.54524 1.41973,-0.81792c0.13933,-0.08016 0.27865,-0.16031 0.4222,-0.2429c0.27388,-0.15783 0.54596,-0.31885 0.81594,-0.48326c0.35605,-0.20882 0.71261,-0.36719 1.09674,-0.5176c0.76504,-0.32649 1.56994,-0.67639 1.91775,-1.47752c0.23238,-0.99035 0.18493,-2.00854 0.16968,-3.01904c0.00344,-0.3457 0.00791,-0.69139 0.01332,-1.03707c0.00935,-0.7512 0.01133,-1.50188 0.00676,-2.25308c-0.00679,-1.11698 0,-2.23359 0.00939,-3.35054c0.01724,-2.11097 0.01845,-4.22177 0.01476,-6.3328c-0.00276,-1.63031 -0.00116,-3.26057 0.00351,-4.89088c0.00065,-0.23431 0.00131,-0.46862 0.00196,-0.70293c0.00099,-0.3531 0.00198,-0.70619 0.00298,-1.05929c0.0092,-3.2826 0.01361,-6.56518 0.00796,-9.84779c-0.00021,-0.12373 -0.00042,-0.24745 -0.00064,-0.37493c-0.00175,-1.00471 -0.00362,-2.00942 -0.0055,-3.01413c-0.00723,-3.91832 0.0007,-7.83635 0.02077,-11.75462c0.02252,-4.40345 0.03389,-8.80672 0.02867,-13.21024c-0.00052,-0.46968 -0.00101,-0.93936 -0.00147,-1.40904c-0.00012,-0.11564 -0.00024,-0.23129 -0.00037,-0.35044c-0.00162,-1.74461 0.00544,-3.48904 0.01688,-5.23361c0.013,-1.98466 0.01421,-3.96893 -0.00019,-5.95358c-0.00771,-1.11029 -0.00622,-2.21967 0.00867,-3.32989c0.01009,-0.82994 0.00256,-1.65913 -0.01172,-2.48904c-0.00306,-0.33499 -0.00049,-0.67008 0.00835,-1.00497c0.04481,-1.50964 0.04481,-1.50964 -0.43237,-2.91592c-0.84039,-0.82024 -1.89728,-1.30826 -2.96025,-1.77862c-0.50992,-0.23038 -0.97964,-0.50215 -1.4595,-0.78938c-0.29691,-0.16899 -0.59389,-0.33786 -0.89094,-0.50661c-1.35883,-0.7738 -2.7125,-1.556 -4.06225,-2.34557c-1.01395,-0.59294 -2.03017,-1.18184 -3.04779,-1.76847c-0.15008,-0.08652 -0.30016,-0.17304 -0.45478,-0.26218c-0.61833,-0.35634 -1.23675,-0.71252 -1.8552,-1.06864c-0.23662,-0.13626 -0.23662,-0.13626 -0.47802,-0.27528c-0.15643,-0.09005 -0.31286,-0.18011 -0.47403,-0.27289c-0.30885,-0.17814 -0.61746,-0.35669 -0.92581,-0.53568c-0.66334,-0.38497 -1.32717,-0.76668 -2.00178,-1.13162c-0.10817,-0.05984 -0.21634,-0.11969 -0.32779,-0.18135c-0.1921,-0.10605 -0.38552,-0.20978 -0.58065,-0.31015c-1.32385,-0.74092 -1.97516,-2.315 -2.67606,-3.59634c-0.17268,-0.31201 -0.34555,-0.62391 -0.51862,-0.9357c-0.08337,-0.15029 -0.16673,-0.30059 -0.25262,-0.45543c-0.30021,-0.53665 -0.60924,-1.0675 -0.92328,-1.59613c-0.57802,-0.9741 -1.1465,-1.95343 -1.712,-2.93486c-0.08906,-0.15454 -0.17813,-0.30908 -0.26989,-0.4683c-0.27405,-0.47567 -0.54801,-0.9514 -0.82195,-1.42713c-1.34388,-2.33344 -2.69353,-4.6633 -4.0529,-6.98775c0.09224,-0.04612 0.18448,-0.09224 0.27951,-0.13976c0.33328,0.15613 0.33328,0.15613 0.75555,0.4018c0.2354,0.13581 0.2354,0.13581 0.47556,0.27436c0.17195,0.10069 0.34389,0.2014 0.51582,0.30213c0.17752,0.10291 0.3551,0.20571 0.53275,0.30841c0.36626,0.21196 0.73216,0.42452 1.09777,0.6376c0.64048,0.37313 1.28289,0.74288 1.92532,1.11265c0.59846,0.3446 1.19636,0.69017 1.7943,1.03568c0.60378,0.3488 1.20776,0.69723 1.81177,1.04564c0.45405,0.26191 0.90806,0.52388 1.36207,0.78585c0.60912,0.35143 1.21838,0.70261 1.82773,1.05362c1.46069,0.84165 2.91986,1.68566 4.37499,2.53688c1.21274,0.70929 2.43049,1.40944 3.6511,2.10506c1.35858,0.77425 2.7125,1.556 4.06225,2.34557c1.47078,0.86008 2.947,1.71064 4.42337,2.56107c0.75871,0.43714 1.5171,0.87482 2.27552,1.31246c0.3028,0.1747 0.6056,0.34939 0.90841,0.52408c0.60561,0.34939 1.21121,0.69878 1.81682,1.04816c0.22522,0.12993 0.22522,0.12993 0.45499,0.26248c0.3002,0.1732 0.60038,0.34641 0.90056,0.51965c0.71095,0.41026 1.422,0.82034 2.13343,1.22977c0.33688,0.19389 0.6737,0.38789 1.01052,0.58189c0.23841,0.13726 0.4769,0.27438 0.71539,0.41149c0.21578,0.12431 0.21578,0.12431 0.43592,0.25112c0.12691,0.07302 0.25381,0.14604 0.38457,0.22127c0.25239,0.14894 0.49891,0.30785 0.74276,0.47041c0.03112,0.34884 0.03112,0.34884 0.00873,0.75992c-0.04,0.63792 -0.04,0.63792 0.27078,1.19665c-0.09224,0 -0.18448,0 -0.27951,0c0,30.62313 0,61.24627 0,92.79738c0.09224,0.04612 0.18448,0.09224 0.27951,0.13976c-0.09224,0.09224 -0.18448,0.18448 -0.27951,0.27951c0.01741,0.24299 0.04301,0.48542 0.07315,0.72716c0.01009,0.72017 0.01009,0.72017 -0.32796,1.08556c-0.3875,0.25271 -0.78062,0.46246 -1.19515,0.66793c-0.31015,0.16674 -0.62023,0.33362 -0.93024,0.50061c-0.16124,0.08424 -0.32247,0.16849 -0.4886,0.25529c-0.77421,0.41051 -1.52809,0.85486 -2.28467,1.29676c-0.30523,0.17618 -0.61058,0.35214 -0.91605,0.5279c-0.91193,0.5253 -1.82352,1.05118 -2.73505,1.57716c-0.3028,0.1747 -0.6056,0.34939 -0.90841,0.52408c-0.14989,0.08647 -0.29977,0.17295 -0.4542,0.26204c-12.26351,7.0751 -12.26351,7.0751 -12.71778,7.33718c-0.30258,0.17457 -0.60516,0.34915 -0.90773,0.52374c-0.76034,0.43872 -1.5208,0.87726 -2.28146,1.31542c-1.46069,0.84165 -2.91986,1.68566 -4.37499,2.53688c-1.29553,0.75771 -2.59711,1.5044 -3.90105,2.2475c-1.27518,0.7269 -2.54534,1.46199 -3.8123,2.20313c-1.47078,0.86008 -2.947,1.71064 -4.42337,2.56107c-0.75871,0.43714 -1.5171,0.87482 -2.27552,1.31246c-0.3028,0.1747 -0.6056,0.34939 -0.90841,0.52408c-0.14989,0.08647 -0.29977,0.17295 -0.4542,0.26204c-19.53077,11.26775 -19.53077,11.26775 -19.98505,11.52983c-0.30258,0.17457 -0.60516,0.34915 -0.90773,0.52374c-0.76034,0.43872 -1.5208,0.87726 -2.28146,1.31542c-1.46069,0.84165 -2.91986,1.68566 -4.37499,2.53688c-1.29553,0.75771 -2.59711,1.5044 -3.90105,2.2475c-1.27414,0.72631 -2.54324,1.46085 -3.80923,2.20129c-1.34643,0.78725 -2.69584,1.5692 -4.0488,2.34516c-0.5139,0.2949 -1.02499,0.59354 -1.53294,0.89858c-0.10242,0.06048 -0.20483,0.12095 -0.31035,0.18326c-0.18291,0.10807 -0.36481,0.21786 -0.54537,0.3298c-0.36775,0.21471 -0.64355,0.32712 -1.07136,0.33857c-0.68421,-0.22779 -1.27989,-0.58202 -1.90089,-0.94498c-0.14118,-0.08118 -0.28237,-0.16236 -0.42783,-0.246c-0.44637,-0.25723 -0.89158,-0.51636 -1.33658,-0.77595c-0.27642,-0.16068 -0.55283,-0.32137 -0.82925,-0.48205c-0.55508,-0.32318 -1.10964,-0.64725 -1.66396,-0.97173c-1.34159,-0.78465 -2.6891,-1.55906 -4.03584,-2.33482c-0.75871,-0.43714 -1.5171,-0.87482 -2.27552,-1.31246c-0.3028,-0.1747 -0.6056,-0.34939 -0.90841,-0.52408c-6.66166,-3.84326 -13.32332,-7.68653 -19.98498,-11.52979c-0.14991,-0.08648 -0.29982,-0.17297 -0.45427,-0.26207c-0.30258,-0.17457 -0.60516,-0.34915 -0.90773,-0.52374c-0.76034,-0.43872 -1.5208,-0.87726 -2.28146,-1.31542c-1.46069,-0.84165 -2.91986,-1.68566 -4.37499,-2.53688c-1.21274,-0.70929 -2.43049,-1.40944 -3.6511,-2.10506c-1.35858,-0.77425 -2.7125,-1.556 -4.06225,-2.34557c-1.47078,-0.86008 -2.947,-1.71064 -4.42337,-2.56107c-0.75871,-0.43714 -1.5171,-0.87482 -2.27552,-1.31246c-0.3028,-0.1747 -0.6056,-0.34939 -0.90841,-0.52408c-9.99249,-5.7649 -9.99249,-5.7649 -19.98498,-11.52979c-0.14991,-0.08648 -0.29982,-0.17297 -0.45427,-0.26207c-0.30258,-0.17457 -0.60516,-0.34915 -0.90773,-0.52374c-0.76034,-0.43872 -1.5208,-0.87726 -2.28146,-1.31542c-1.20299,-0.69313 -2.40573,-1.38666 -3.60579,-2.08486c-0.14419,-0.08388 -0.28838,-0.16777 -0.43694,-0.25419c-0.28202,-0.16476 -0.56359,-0.33029 -0.84467,-0.49665c-0.63219,-0.37353 -1.26443,-0.73531 -1.91965,-1.06707c-1.57089,-0.81236 -1.57089,-0.81236 -1.77314,-1.4314c0.00382,-0.41708 0.00382,-0.41708 0.07861,-0.79649c0.10119,-0.36471 0.10119,-0.36471 -0.22328,-0.74736c0.09224,0 0.18448,0 0.27951,0c0,-30.62313 0,-61.24627 0,-92.79738c-0.09224,-0.04612 -0.18448,-0.09224 -0.27951,-0.13976c0.09224,-0.09224 0.18448,-0.18448 0.27951,-0.27951c-0.01741,-0.24299 -0.04301,-0.48542 -0.07315,-0.72716c-0.01009,-0.72017 -0.01009,-0.72017 0.32796,-1.08556c0.3875,-0.25271 0.78062,-0.46246 1.19515,-0.66793c0.31015,-0.16674 0.62023,-0.33362 0.93024,-0.50061c0.24186,-0.12637 0.24186,-0.12637 0.4886,-0.25529c0.77421,-0.41051 1.52809,-0.85486 2.28467,-1.29676c0.30523,-0.17618 0.61058,-0.35214 0.91605,-0.5279c0.91193,-0.5253 1.82352,-1.05118 2.73505,-1.57716c0.3028,-0.1747 0.6056,-0.34939 0.90841,-0.52408c0.14989,-0.08647 0.29977,-0.17295 0.4542,-0.26204c12.26351,-7.0751 12.26351,-7.0751 12.71778,-7.33718c0.30258,-0.17457 0.60516,-0.34915 0.90773,-0.52374c0.76034,-0.43872 1.5208,-0.87726 2.28146,-1.31542c1.46069,-0.84165 2.91986,-1.68566 4.37499,-2.53688c1.29553,-0.75771 2.59711,-1.5044 3.90105,-2.2475c1.27518,-0.7269 2.54534,-1.46199 3.8123,-2.20313c1.47078,-0.86008 2.947,-1.71064 4.42337,-2.56107c0.75871,-0.43714 1.5171,-0.87482 2.27552,-1.31246c0.3028,-0.1747 0.6056,-0.34939 0.90841,-0.52408c0.14989,-0.08647 0.29977,-0.17295 0.4542,-0.26204c19.53077,-11.26775 19.53077,-11.26775 19.98505,-11.52983c0.30258,-0.17457 0.60516,-0.34915 0.90773,-0.52374c0.76034,-0.43872 1.5208,-0.87726 2.28146,-1.31542c1.46069,-0.84165 2.91986,-1.68566 4.37499,-2.53688c1.29553,-0.75771 2.59711,-1.5044 3.90105,-2.2475c1.27414,-0.72631 2.54324,-1.46085 3.80923,-2.20129c1.34643,-0.78725 2.69584,-1.5692 4.0488,-2.34516c0.5139,-0.2949 1.02499,-0.59354 1.53294,-0.89858c0.10242,-0.06048 0.20483,-0.12095 0.31035,-0.18326c0.18291,-0.10807 0.36481,-0.21786 0.54537,-0.3298c0.5738,-0.33502 0.89178,-0.39836 1.52229,-0.18844z" fill="#fbfbfb"/><path d="M280.38922,106.47428c0.70895,0.14429 0.88695,0.53177 1.27854,1.11749c0.35546,0.57669 0.67057,1.17105 0.98484,1.77096c0.24542,0.45312 0.50954,0.8863 0.78503,1.32167c0.45585,0.72796 0.85715,1.47207 1.24906,2.23608c0.47481,0.92316 0.98862,1.80286 1.55478,2.67282c0.70602,1.08825 1.31435,2.20887 1.90471,3.36333c0.58874,1.14861 1.22046,2.26735 1.86595,3.38476c0.57535,0.99622 1.135,2.00119 1.69596,3.00555c0.52491,0.93985 0.52491,0.93985 1.05437,1.87714c1.05462,1.85621 2.05716,3.73532 2.97362,5.6639c0.09019,0.18908 0.09019,0.18908 0.1822,0.38197c0.34046,0.7143 0.67993,1.42903 1.01698,2.14495c0.31602,0.67063 0.63507,1.33977 0.95551,2.0083c0.12881,0.26999 0.25667,0.54045 0.38352,0.81137c0.68321,1.45792 1.28097,2.67082 2.51919,3.73749c0.23658,0.27462 0.43123,0.55599 0.63763,0.856c0.05552,0.08017 0.11104,0.16034 0.16825,0.24293c0.12607,0.18207 0.25166,0.36447 0.37685,0.54715c0.24225,0.35014 0.48928,0.69663 0.73672,1.04311c1.90517,2.6806 3.51563,5.46736 5.01269,8.39254c0.18397,0.35612 0.37169,0.70983 0.56168,1.06277c1.22273,2.27196 2.28761,4.58162 3.1625,7.01068c0.05423,0.15006 0.10845,0.30011 0.16432,0.45472c0.85229,2.42703 1.47582,4.88526 1.932,7.41524c0.02397,0.13075 0.04795,0.2615 0.07265,0.39621c0.35497,1.94278 0.64021,3.86548 0.73095,5.84036c0.01489,0.25823 0.03,0.51645 0.04531,0.77466c0.11002,1.94778 0.11074,3.87953 0.0333,5.82877c-0.00547,0.14338 -0.01094,0.28676 -0.01658,0.43448c-0.00588,0.13406 -0.01175,0.26811 -0.01781,0.40623c-0.00512,0.12075 -0.01025,0.2415 -0.01552,0.3659c-0.02869,0.29575 -0.02869,0.29575 -0.16845,0.57526c-0.32155,-0.00873 -0.32155,-0.00873 -0.69878,-0.13976c-0.18449,-0.33182 -0.31565,-0.62557 -0.44547,-0.97829c-1.05132,-2.60667 -2.66978,-4.94312 -4.58571,-6.98775c-0.49208,-0.53921 -0.87525,-1.03873 -1.22286,-1.6847c-0.39653,-0.6171 -0.9357,-1.13291 -1.43249,-1.66942c-0.16668,-0.19154 -0.3327,-0.38366 -0.49788,-0.57649c-0.954,-1.08935 -1.99779,-2.02374 -3.13575,-2.91739c-0.08895,-0.07019 -0.1779,-0.14038 -0.26955,-0.2127c-2.29994,-1.80849 -4.66189,-3.22759 -7.27723,-4.53897c-0.12536,-0.06296 -0.25073,-0.12593 -0.37989,-0.1908c-1.55523,-0.77515 -3.12472,-1.45813 -4.76348,-2.03938c-0.19416,-0.07156 -0.19416,-0.07156 -0.39224,-0.14457c-0.11525,-0.04087 -0.23051,-0.08174 -0.34925,-0.12386c-0.26436,-0.15675 -0.26436,-0.15675 -0.38399,-0.43581c-0.02013,-0.27995 -0.02013,-0.27995 0.16221,-0.56765c0.55329,-0.39853 1.13627,-0.53246 1.7917,-0.69932c0.20478,-0.05383 0.20478,-0.05383 0.4137,-0.10874c1.2438,-0.31825 2.48978,-0.54962 3.76148,-0.72106c0.13007,-0.01838 0.26014,-0.03675 0.39415,-0.05568c2.85449,-0.33108 5.76763,-0.05633 8.55017,0.6147c-1.30507,-2.67746 -2.74322,-5.24302 -4.37199,-7.73791c-0.22925,-0.35151 -0.45635,-0.70433 -0.68322,-1.05738c-0.84106,-1.2976 -1.7423,-2.48924 -2.77108,-3.64291c-0.16018,-0.1863 -0.32032,-0.37264 -0.48041,-0.55902c-0.49971,-0.56818 -1.01466,-1.12242 -1.53017,-1.67624c-0.13845,-0.14903 -0.27589,-0.299 -0.41244,-0.44977c-0.16894,-0.18167 -0.3437,-0.35796 -0.52169,-0.53077c-0.80287,-0.81519 -1.01609,-1.47021 -1.18679,-2.58404c-0.71871,-3.81837 -2.30923,-7.61368 -3.97429,-11.11053c-0.10877,-0.22848 -0.10877,-0.22848 -0.21973,-0.46157c-1.01019,-2.10311 -2.09788,-4.14827 -3.31666,-6.13892c-0.25693,-0.41983 -0.51157,-0.84101 -0.76599,-1.26237c-0.96472,-1.60704 -0.96472,-1.60704 -1.9866,-3.17779c-2.37744,4.3909 -3.84269,8.69055 -4.19265,13.696c0.17997,-0.01171 0.35995,-0.02342 0.54537,-0.03548c0.23456,-0.01441 0.46912,-0.02879 0.70369,-0.04313c0.11881,-0.00784 0.23762,-0.01567 0.36003,-0.02375c0.11305,-0.00676 0.22609,-0.01351 0.34256,-0.02047c0.10466,-0.00659 0.20932,-0.01317 0.31714,-0.01996c0.24679,0.00304 0.24679,0.00304 0.38654,0.14279c0.08735,0.37559 0.08735,0.37559 0,0.83853c-0.85312,0.77109 -2.00796,1.24567 -3.02877,1.76168c-0.48206,0.24384 -0.96271,0.49045 -1.4434,0.73699c-0.09566,0.04901 -0.19133,0.09803 -0.28989,0.14853c-1.21178,0.62227 -2.4081,1.27229 -3.59814,1.9351c-0.26967,0.14994 -0.54029,0.29797 -0.81123,0.44561c-0.99378,0.5552 -1.85134,1.21143 -2.70775,1.95985c-0.12286,0.10737 -0.24573,0.21474 -0.37232,0.32537c-0.34555,0.30692 -0.68637,0.61815 -1.02523,0.93243c-0.12404,0.11269 -0.12404,0.11269 -0.25058,0.22765c-1.45181,1.37594 -2.56311,3.06199 -3.52281,4.80354c-0.06654,0.12066 -0.13309,0.24132 -0.20165,0.36563c-0.76146,1.39332 -1.49095,2.79214 -2.06937,4.27249c-0.0402,0.10283 -0.08039,0.20567 -0.12181,0.31162c-0.17894,0.48008 -0.26252,0.82003 -0.26252,1.33924c0.07019,-0.04845 0.14038,-0.0969 0.2127,-0.14682c3.91492,-2.69904 7.49699,-4.70723 12.2255,-5.58314c0.19759,-0.0378 0.19759,-0.0378 0.39917,-0.07636c0.88398,-0.12755 1.78358,-0.09763 2.67544,-0.09833c0.10615,-0.00009 0.2123,-0.00019 0.32167,-0.00029c6.15039,0.00867 6.15039,0.00867 8.20339,1.71229c0.09171,0.34611 0.09171,0.34611 0,0.69878c-0.26641,0.30899 -0.26641,0.30899 -0.6289,0.61143c-0.12773,0.10881 -0.25546,0.21762 -0.38706,0.32973c-0.12593,0.10449 -0.25185,0.20898 -0.3816,0.31663c-1.50624,1.29488 -2.63902,2.56568 -3.6249,4.3062c-0.04705,0.08295 -0.09411,0.1659 -0.14259,0.25136c-0.23025,0.40681 -0.45904,0.81426 -0.68557,1.22316c-1.60497,2.77464 -4.2107,4.49626 -7.2689,5.36474c-0.92415,0.23368 -1.8549,0.42745 -2.81257,0.31445c-0.36072,-0.36072 -0.33354,-0.52745 -0.34939,-1.03069c0.02139,-1.36875 0.70289,-2.45198 1.60718,-3.44147c0.29703,-0.23861 0.58682,-0.45805 0.89967,-0.67257c0.08472,-0.05953 0.16943,-0.11906 0.25672,-0.18039c0.5129,-0.35717 1.03535,-0.69587 1.56528,-1.02708c0.95063,-0.5944 1.78568,-1.24838 2.58902,-2.0331c0.09674,-0.09296 0.19348,-0.18592 0.29316,-0.28169c0.36919,-0.36085 0.67684,-0.68417 0.96464,-1.11586c-3.3196,0.07289 -6.53313,1.36419 -8.92249,3.65001c-0.30135,0.26313 -0.30135,0.26313 -0.60269,0.40398c-0.33393,0.1797 -0.38392,0.35611 -0.53718,0.69768c-0.14975,0.19574 -0.30476,0.38749 -0.46294,0.57649c-1.6318,2.02214 -2.99656,4.16649 -4.31494,6.40328c-1.23585,2.08451 -2.5515,4.11789 -3.88175,6.14295c-0.46345,0.70573 -0.92568,1.41226 -1.38784,2.11883c-0.14938,0.22828 -0.29893,0.45646 -0.44849,0.68463c-0.09327,0.14247 -0.18655,0.28493 -0.28265,0.43172c-0.09296,0.13748 -0.18592,0.27496 -0.28169,0.4166c-0.2697,0.40971 -0.2697,0.40971 -0.45857,0.86078c-0.22026,0.46072 -0.39154,0.75768 -0.77957,1.0919c-0.84483,0.19068 -1.65626,0.13732 -2.51559,0.08735c-0.23911,-0.00823 -0.47825,-0.01559 -0.7174,-0.02211c-0.35733,-0.00991 -0.71453,-0.02041 -1.07174,-0.03392c-0.98613,-0.03727 -1.95938,-0.01628 -2.94505,0.03856c-0.13259,0.00678 -0.26519,0.01356 -0.4018,0.02054c-0.29122,0.01531 -0.58236,0.0321 -0.87347,0.04934c1.52075,2.03907 1.52075,2.03907 3.07461,4.0529c0.09026,0.14412 0.18051,0.28824 0.27351,0.43673c0.56388,0.66124 1.46714,0.76389 2.27703,0.94335c0.09216,0.02098 0.18431,0.04195 0.27926,0.06356c1.73848,0.3856 3.45598,0.46032 5.23233,0.45179c0.12227,-0.00046 0.24455,-0.00093 0.37052,-0.00141c4.05672,-0.03079 7.08776,-1.52144 10.47025,-3.64843c1.31938,-0.82862 2.65972,-1.62057 4.00107,-2.41289c0.19164,-0.11325 0.38327,-0.22652 0.57489,-0.3398c0.09429,-0.05574 0.18858,-0.11148 0.28572,-0.16891c0.61505,-0.36431 1.22688,-0.73354 1.83681,-1.10636c0.15552,-0.09469 0.31103,-0.18939 0.47126,-0.28695c0.28583,-0.17441 0.57113,-0.34971 0.85573,-0.52613c3.12713,-1.90364 6.34627,-2.15347 9.87907,-1.35094c2.37439,0.58978 2.37439,0.58978 3.02275,1.23814c-0.05241,0.36686 -0.05241,0.36686 -0.13976,0.69878c-0.15565,-0.00865 -0.3113,-0.01729 -0.47167,-0.0262c-1.4316,0.00872 -2.66978,0.72629 -3.90441,1.38008c-0.15844,0.08206 -0.31689,0.16412 -0.48014,0.24867c-0.95812,0.50172 -1.88024,1.04321 -2.79739,1.61588c-0.75137,0.45769 -1.5266,0.86844 -2.30395,1.27994c-0.16983,0.09042 -0.33965,0.18087 -0.50944,0.27136c-1.421,0.75599 -2.84917,1.49821 -4.27826,2.23878c-2.35651,1.22187 -4.68248,2.50144 -7.00795,3.78113c-0.22997,0.12636 -0.46016,0.25231 -0.69059,0.37784c-0.58896,0.32172 -1.1713,0.65091 -1.74748,0.99504c-0.11915,0.06953 -0.2383,0.13906 -0.36106,0.21069c-0.22215,0.12986 -0.44279,0.26234 -0.66124,0.39832c-2.03493,1.17519 -4.73427,1.03875 -7.0087,1.16032c-0.31637,0.01817 -0.63273,0.03645 -0.94908,0.05486c-0.30398,0.0173 -0.60796,0.0345 -0.91196,0.05159c-0.20944,0.01178 -0.20944,0.01178 -0.42311,0.02381c-2.10776,0.1123 -2.10776,0.1123 -2.97414,-0.05165c-0.11151,-0.01946 -0.22303,-0.03891 -0.33792,-0.05896c-0.78178,-0.27037 -1.21775,-0.86969 -1.65359,-1.53949c-0.05846,-0.08866 -0.11692,-0.17732 -0.17715,-0.26866c-0.7531,-1.16688 -1.41163,-2.39001 -2.0835,-3.60463c-0.60254,-1.08882 -1.23074,-2.16098 -1.87086,-3.22801c-0.06062,-0.10165 -0.12124,-0.2033 -0.1837,-0.30803c-0.86053,-1.4439 -0.86053,-1.4439 -1.79744,-2.83864c-0.07189,-0.10105 -0.14378,-0.20211 -0.21786,-0.30623c-0.13784,-0.19154 -0.27758,-0.38172 -0.41947,-0.57028c-0.4557,-0.63062 -0.4557,-0.63062 -0.45779,-1.08498c0.51985,-1.25847 1.31691,-2.40212 2.07971,-3.52424c0.62873,-0.9322 1.2068,-1.89404 1.78751,-2.85662c0.61861,-1.024 1.25225,-2.03726 1.90198,-3.04182c0.32102,-0.50126 0.60798,-0.97337 0.80093,-1.54099c-0.0681,-0.08017 -0.1362,-0.16034 -0.20636,-0.24293c-1.58908,-1.90401 -3.03433,-3.91446 -4.34913,-6.01643c-0.20257,-0.31918 -0.41148,-0.6335 -0.62146,-0.94785c-3.74875,-5.71002 -3.74875,-5.71002 -3.77011,-7.8847c0.22933,-0.45252 0.62634,-0.70948 1.02469,-1.00613c0.13224,-0.10134 0.13224,-0.10134 0.26716,-0.20472c0.41365,-0.31587 0.83153,-0.62547 1.25104,-0.93352c2.21202,-1.62605 3.99188,-3.54851 5.70539,-5.68356c0.14582,-0.17989 0.29177,-0.35967 0.43783,-0.53937c0.07689,-0.0946 0.15378,-0.18921 0.233,-0.28668c0.15891,-0.19531 0.31793,-0.39052 0.47706,-0.58563c0.32931,-0.40417 0.65677,-0.80874 0.97627,-1.22074c1.5528,-1.98294 3.4088,-3.69225 5.42261,-5.19387c0.27459,-0.21724 0.54837,-0.4355 0.82106,-0.6551c0.19215,-0.15433 0.38431,-0.30865 0.57649,-0.46294c-0.27154,-1.16201 -0.60236,-2.28887 -0.99576,-3.41526c-0.05496,-0.15736 -0.10992,-0.31473 -0.16654,-0.47686c-0.85434,-2.40978 -1.87946,-4.66225 -3.17011,-6.86902c-0.09224,0 -0.18448,0 -0.27951,0c-1.18979,2.4724 -1.77872,5.11237 -2.09633,7.82628c-0.01358,0.10273 -0.02716,0.20546 -0.04115,0.31131c-0.08695,0.7256 -0.10381,1.44141 -0.09861,2.17153c-0.00008,0.29493 -0.00055,0.58986 -0.00116,0.8848c0.00078,0.20164 0.00357,0.40329 0.00833,0.60488c0.03622,1.68768 0.03622,1.68768 -0.41108,2.1994c-0.32225,0.21163 -0.64418,0.37471 -0.99364,0.53633c-1.34596,1.10175 -2.61962,2.36779 -3.65984,3.76465c-0.27163,0.30909 -0.40901,0.38479 -0.81233,0.428c-0.48423,-0.63859 -0.48049,-1.17093 -0.47495,-1.9391c-0.00058,-0.12144 -0.00116,-0.24289 -0.00175,-0.36801c-0.00087,-0.39564 0.00178,-0.79114 0.00503,-1.18677c0.00056,-0.13508 0.00111,-0.27015 0.00169,-0.40932c0.01119,-2.30995 0.13807,-4.56962 0.46998,-6.85795c0.01946,-0.13867 0.03891,-0.27735 0.05896,-0.42022c0.56622,-3.92294 1.79617,-7.61444 3.15541,-11.31921c0.15541,-0.42546 0.3107,-0.85097 0.46594,-1.27649c0.09014,-0.24677 0.18058,-0.49344 0.27132,-0.73999c0.26255,-0.71722 0.5072,-1.43825 0.74187,-2.16504c0.62159,-1.92361 1.36958,-3.80173 2.29426,-5.60133c0.31885,0.02289 0.31885,0.02289 0.69878,0.13976c0.25354,0.32185 0.25354,0.32185 0.4886,0.75173c0.08857,0.15885 0.17714,0.3177 0.26839,0.48136c0.09416,0.17419 0.18831,0.34838 0.28244,0.52258c0.09898,0.17889 0.19822,0.35763 0.29773,0.53623c0.20304,0.36466 0.40514,0.72981 0.60665,1.09532c0.41683,0.75326 0.85193,1.4957 1.28803,2.23792c0.16053,0.2744 0.32103,0.54881 0.4815,0.82324c0.07895,0.13484 0.1579,0.26969 0.23925,0.40862c0.40688,0.69533 0.81254,1.39136 1.21835,2.08732c0.16359,0.28042 0.32718,0.56084 0.49078,0.84126c0.32075,0.54985 0.64138,1.09978 0.96191,1.64977c0.85962,1.47479 1.72056,2.9488 2.58343,4.42169c0.10266,0.17525 0.2053,0.35051 0.30791,0.52578c0.14454,0.24686 0.28918,0.49367 0.43385,0.74046c0.13484,0.23017 0.13484,0.23017 0.27241,0.46499c0.31218,0.52766 0.63182,1.05053 0.95481,1.57163c0.14412,0.26607 0.14412,0.26607 0.14412,0.54558c0.09789,-0.00073 0.19578,-0.00146 0.29664,-0.00222c2.83906,-0.0181 5.67076,0.04409 8.50793,0.14197c0.03063,-0.15926 0.06125,-0.31851 0.09281,-0.48259c1.03294,-5.22331 3.3309,-9.87722 5.89537,-14.50723c0.334,-0.60432 0.65933,-1.21273 0.98156,-1.82337c0.09381,-0.17725 0.18763,-0.35449 0.28146,-0.53172c0.13745,-0.25972 0.27461,-0.51956 0.41073,-0.77998c0.50146,-0.95898 1.01195,-1.86176 1.70167,-2.69861zM245.03118,151.61517c2.26192,4.46011 2.26192,4.46011 6.00947,7.54677c0.27823,0.0537 0.55774,0.10163 0.83853,0.13976c-0.06749,-2.15747 -0.19024,-3.74411 -1.8003,-5.33662c-0.52245,-0.44754 -1.1164,-0.7415 -1.72851,-1.04844c-0.12268,-0.06422 -0.24537,-0.12845 -0.37177,-0.19462c-1.41036,-0.77422 -1.41036,-0.77422 -2.94741,-1.10685z" fill="#fbfbfb"/><path d="M290.7311,177.19035c0.18448,0 0.36895,0 0.55902,0c0.27951,0.3483 0.27951,0.3483 0.55902,0.82106c0.09224,0.15241 0.18448,0.30482 0.27951,0.46185c1.15216,2.10394 1.68795,4.62758 2.14873,6.96264c0.02171,0.10644 0.04342,0.21287 0.06578,0.32254c0.38012,2.05922 0.32512,4.20349 0.32946,6.28963c0.0004,0.13054 0.00079,0.26108 0.0012,0.39557c0.00207,0.68961 0.00338,1.37922 0.00399,2.06884c0.00077,0.70424 0.00413,1.40844 0.0081,2.11267c0.00263,0.54941 0.00333,1.09882 0.00354,1.64824c0.00042,0.25938 0.00152,0.51877 0.00338,0.77815c0.01106,1.65999 -0.11614,3.20887 -0.46787,4.83204c-0.04515,0.21067 -0.04515,0.21067 -0.09122,0.42559c-0.08089,0.36061 -0.16715,0.71928 -0.25653,1.07787c-0.03154,0.12815 -0.06308,0.25631 -0.09558,0.38835c-0.06593,0.2666 -0.13228,0.53311 -0.19905,0.7995c-0.1001,0.40088 -0.19772,0.80231 -0.29524,1.20382c-0.37241,1.50921 -0.81082,2.92719 -1.43822,4.35042c-0.06836,0.15921 -0.13671,0.31842 -0.20714,0.48246c-1.54669,3.5722 -3.20518,7.04229 -5.38306,10.27869c-0.05977,0.08974 -0.11953,0.17948 -0.18111,0.27194c-1.28605,1.92691 -2.69327,3.75364 -4.21933,5.49501c-0.28985,0.33241 -0.57563,0.66822 -0.8616,1.00398c-0.74766,0.87711 -1.50543,1.74341 -2.28474,2.59267c-0.07465,0.0817 -0.1493,0.1634 -0.22621,0.24757c-1.73473,1.89522 -1.73473,1.89522 -2.55196,2.57537c-0.41331,0.3509 -0.80789,0.72101 -1.20484,1.0902c-0.57516,0.53349 -1.1541,1.06023 -1.74858,1.57224c-0.20441,0.17991 -0.40518,0.36399 -0.60379,0.55029c-1.03687,0.97002 -2.14237,1.82229 -3.27674,2.67418c-0.30419,0.22972 -0.60629,0.4619 -0.90773,0.69523c-2.11316,1.63508 -4.26099,3.15072 -6.57405,4.49233c-0.27056,0.15697 -0.54015,0.31561 -0.80912,0.47529c-1.30148,0.76237 -2.64046,1.41426 -4.01233,2.03979c-0.16968,0.07764 -0.16968,0.07764 -0.34279,0.15684c-4.42895,2.02035 -8.99752,3.32799 -13.79868,4.11442c-0.13784,0.0236 -0.27567,0.0472 -0.41769,0.07152c-1.28568,0.20452 -2.54507,0.25365 -3.84266,0.25494c-0.21678,0.0009 -0.43356,0.00184 -0.65033,0.00282c-0.45148,0.00166 -0.90294,0.00219 -1.35441,0.00203c-0.45751,-0.00002 -0.91494,0.00192 -1.37244,0.00573c-4.84379,0.03973 -4.84379,0.03973 -6.897,-0.61655c-0.23574,-0.06884 -0.23574,-0.06884 -0.47625,-0.13907c-0.44194,-0.13347 -0.87795,-0.27819 -1.31437,-0.42868c-0.15665,-0.0532 -0.31331,-0.1064 -0.47471,-0.16122c-1.22888,-0.42214 -2.44904,-0.86728 -3.66553,-1.32368c-0.16454,-0.06135 -0.32907,-0.12271 -0.49859,-0.18592c-1.40213,-0.53427 -2.75861,-1.13928 -3.99977,-1.98902c-0.13728,-0.09296 -0.27455,-0.18592 -0.41599,-0.28169c-0.33519,-0.24239 -0.33519,-0.24239 -0.6147,-0.5219c-0.01747,-0.36686 -0.01747,-0.36686 0,-0.69878c0.92732,-0.56024 2.15228,-0.1402 3.1536,0.07152c6.76995,1.38883 14.2961,-0.27284 20.49995,-2.98017c0.10616,-0.04584 0.21233,-0.09169 0.32171,-0.13892c2.27026,-0.9851 4.29651,-2.23286 6.21184,-3.80042c0.07663,-0.06224 0.15327,-0.12449 0.23222,-0.18861c1.9096,-1.56115 3.733,-3.28716 5.21823,-5.26183c0.1643,-0.21564 0.1643,-0.21564 0.33192,-0.43564c4.10103,-5.4936 7.11312,-12.51528 7.35461,-19.40958c0.00601,-0.15974 0.00601,-0.15974 0.01215,-0.32271c0.1204,-3.76682 -0.28105,-7.57282 -0.77206,-11.30317c-0.02037,-0.15946 -0.02037,-0.15946 -0.04116,-0.32213c-0.26752,-2.06535 -0.82806,-3.85864 -1.74945,-5.73101c-0.07993,-0.16496 -0.15986,-0.32993 -0.24222,-0.49989c-0.48882,-0.99605 -1.00225,-1.94788 -1.63847,-2.85696c-0.21886,-0.41988 -0.21547,-0.71821 -0.1807,-1.18519c1.58103,-0.6657 3.35963,-0.14541 4.89525,0.4411c0.28182,0.12466 0.55908,0.25961 0.83471,0.39743c0.13349,-0.10287 0.26699,-0.20573 0.40453,-0.31172c2.15429,-1.63577 2.15429,-1.63577 3.22911,-1.92436c0.32155,0.05459 0.32155,0.05459 0.55902,0.13976c0,0.18448 0,0.36895 0,0.55902c0.09224,0 0.18448,0 0.27951,0c1.85741,2.07339 2.88469,4.69014 3.91587,7.23284c0.10983,0.30376 0.10983,0.30376 0.27678,0.45369c0.06612,-0.1371 0.13223,-0.27419 0.20035,-0.41544c1.05976,-2.17441 2.19306,-4.10157 3.85255,-5.87354c0.08641,-0.09253 0.17281,-0.18506 0.26184,-0.2804c1.20879,-1.28112 2.44707,-2.40092 3.93082,-3.35324c0.18295,-0.12187 0.18295,-0.12187 0.36959,-0.24621c0.32919,-0.17306 0.32919,-0.17306 0.88821,-0.17306c0.18407,0.6664 0.12464,1.27773 0.06114,1.95657c-0.01221,0.13067 -0.02441,0.26133 -0.03699,0.39596c-0.35806,3.48891 -1.01358,6.95985 -1.84097,10.36518c-0.03918,0.16579 -0.07837,0.33157 -0.11874,0.50238c-0.6385,2.68861 -1.45607,5.28215 -2.38197,7.88399c-0.19623,0.55272 -0.38468,1.1073 -0.5667,1.66486c-0.31449,0.96275 -0.664,1.89724 -1.07283,2.82371c-0.05974,0.13598 -0.11949,0.27196 -0.18104,0.41207c-1.56482,3.50877 -3.46257,7.21787 -6.15926,9.99914c-0.77156,0.91416 -1.05284,1.91725 -1.38117,3.04895c-0.41767,1.40147 -0.87339,2.77334 -1.41502,4.13151c2.62147,-1.29835 4.45176,-3.12852 6.34193,-5.3298c0.26773,-0.30773 0.54448,-0.60647 0.82052,-0.90677c0.78037,-0.86707 1.49246,-1.7823 2.20114,-2.70775c0.11954,-0.15521 0.11954,-0.15521 0.2415,-0.31356c1.93802,-2.52198 3.73702,-5.10856 5.20895,-7.93199c0.06738,-0.12809 0.13475,-0.25618 0.20417,-0.38815c2.38386,-4.55595 3.99013,-9.36616 4.01687,-14.55746c0.00098,-0.12819 0.00196,-0.25639 0.00297,-0.38846c0.00243,-0.41189 0.00333,-0.82375 0.00358,-1.23564c0.00009,-0.1409 0.00019,-0.28179 0.00029,-0.42696c-0.00228,-2.14474 -0.07593,-4.22645 -0.45449,-6.34243c-0.02324,-0.13852 -0.04648,-0.27703 -0.07042,-0.41974c-0.32933,-1.92749 -0.84873,-3.70431 -1.59743,-5.509c-0.15321,-0.3705 -0.30204,-0.74252 -0.44977,-1.11524c-0.18461,-0.46561 -0.37008,-0.93083 -0.55738,-1.39537c-0.04171,-0.10438 -0.08341,-0.20875 -0.12638,-0.31629c-0.09598,-0.23617 -0.19477,-0.47121 -0.29534,-0.70546c-0.05251,-0.12437 -0.10503,-0.24875 -0.15914,-0.37689c-0.04878,-0.1131 -0.09755,-0.2262 -0.14781,-0.34273c-0.09021,-0.3009 -0.09021,-0.3009 0.04954,-0.72017c0.23205,-0.09622 0.23205,-0.09622 0.53773,-0.15941c0.11469,-0.02511 0.22938,-0.05022 0.34755,-0.07609c0.12581,-0.02605 0.25163,-0.05211 0.38126,-0.07895c2.29737,-0.5126 4.5433,-1.15738 6.74124,-2.0013c1.03631,-0.39195 2.09229,-0.6587 3.17264,-0.89862c0.04612,-0.18448 0.09224,-0.36895 0.13976,-0.55902z" fill="#e2e2e2"/><path d="M206.89551,116.33574c0.15335,0.0187 0.3067,0.03739 0.4647,0.05665c2.58452,0.3181 5.10485,0.7313 7.62363,1.40204c0.13611,0.03612 0.13611,0.03612 0.27497,0.07297c4.34164,1.15814 7.66161,3.04006 11.05392,5.96271c2.31775,1.98766 4.85472,3.77845 7.44851,5.38658c0.09019,0.05614 0.18038,0.11228 0.2733,0.17012c0.23198,0.14287 0.46568,0.28295 0.69953,0.42275c0.75716,0.57284 1.01762,1.23823 1.16936,2.14055c0.1279,1.10955 0.23647,2.51732 -0.44704,3.4676c-0.49656,0.37887 -0.95832,0.33262 -1.55648,0.31506c-0.11865,-0.00112 -0.2373,-0.00224 -0.35954,-0.0034c-0.37994,-0.00405 -0.75968,-0.01189 -1.13955,-0.02007c-0.49605,-0.00794 -0.9921,-0.01436 -1.48817,-0.0202c-0.1214,-0.0016 -0.24279,-0.0032 -0.36787,-0.00485c-0.83977,-0.00804 -1.66645,0.03223 -2.50359,0.10226c-4.21062,0.31917 -8.33866,-0.18981 -12.49832,-0.80219c-0.12932,-0.01885 -0.25864,-0.0377 -0.39188,-0.05712c-0.84241,-0.12287 -1.68422,-0.24928 -2.5255,-0.37962c-0.10487,-0.01618 -0.20974,-0.03237 -0.31779,-0.04904c-1.26834,-0.19783 -2.51992,-0.43779 -3.76939,-0.73344c-0.47815,-0.11149 -0.88649,-0.17834 -1.38073,-0.17834c0.60365,1.44559 1.47145,2.48866 2.51559,3.63363c0.11674,0.13043 0.23348,0.26086 0.35376,0.39524c0.20726,0.23139 0.41539,0.46199 0.62453,0.69168c0.25393,0.2822 0.49825,0.57034 0.74245,0.86091c2.35639,2.69147 5.72734,5.28658 9.39362,5.63224c1.40878,0.04338 2.10679,-0.62712 3.10082,-1.54768c0.34656,-0.32819 0.68956,-0.65488 1.01814,-1.00121c0.1062,-0.10728 0.1062,-0.10728 0.21455,-0.21673c0.9439,-1.0041 1.59842,-2.22745 2.25846,-3.42891c0.28473,-0.50835 0.51844,-0.89697 0.96846,-1.27199c0.7182,-0.1729 1.43191,-0.1565 2.14873,0.0262c0.3341,0.2211 0.3341,0.2211 0.55902,0.55902c0.01803,0.38894 0.00585,0.68757 -0.05241,1.06563c-0.0146,0.10022 -0.02921,0.20044 -0.04425,0.3037c-0.25374,1.49828 -1.18182,2.48894 -2.15088,3.60398c-0.40336,0.46668 -0.78207,0.94984 -1.15898,1.43795c-2.56711,3.29252 -2.56711,3.29252 -4.14024,4.34988c-0.09224,0 -0.18448,0 -0.27951,0c-0.04612,0.13836 -0.09224,0.27672 -0.13976,0.41927c-4.15975,1.15497 -7.7679,-0.1094 -11.40457,-2.16197c-2.59648,-1.50304 -5.0356,-3.28588 -7.18285,-5.3848c-0.10053,-0.09512 -0.20105,-0.19024 -0.30462,-0.28824c-0.63497,-0.61273 -1.1927,-1.27382 -1.74421,-1.96203c-0.32594,-0.40376 -0.66212,-0.79704 -0.99958,-1.19119c-0.79984,-0.95806 -1.51412,-1.97076 -2.21793,-3.00071c-0.15351,-0.22184 -0.3128,-0.43967 -0.47345,-0.6564c-1.44738,-2.04126 -1.87094,-4.73235 -2.22625,-7.15644c-0.01441,-0.09501 -0.02882,-0.19002 -0.04367,-0.2879c-0.4275,-3.05125 0.13454,-5.76958 1.30055,-8.58289c0.09712,-0.24372 0.18638,-0.49066 0.26907,-0.73965c0.32732,-0.94959 0.32732,-0.94959 0.85808,-1.26479c0.15583,-0.03441 0.31166,-0.06882 0.47222,-0.10427c0.23321,-0.05648 0.23321,-0.05648 0.47113,-0.1141c0.14719,-0.02864 0.29437,-0.05729 0.44602,-0.0868c0.153,-0.03631 0.153,-0.03631 0.30909,-0.07336c2.04395,-0.34826 4.2433,0.03985 6.27687,0.29173zM213.58629,124.36293c-0.0788,1.86196 0.17171,3.1632 1.39755,4.61192c0.72101,0.48067 1.52816,0.51229 2.37584,0.41927c1.03052,-0.25653 1.86177,-0.69568 2.65535,-1.39755c0.07801,-0.06828 0.15601,-0.13656 0.23638,-0.2069c0.2265,-0.22395 0.2265,-0.22395 0.24403,-0.66657c-0.14254,-1.22176 -0.99985,-1.9702 -1.87796,-2.76016c-0.39484,-0.19742 -0.72772,-0.15789 -1.16881,-0.15832c-0.2682,-0.00027 -0.2682,-0.00027 -0.54182,-0.00055c-0.09344,0.00029 -0.18689,0.00059 -0.28316,0.00089c-0.2834,0.00074 -0.56677,0.00001 -0.85017,-0.00089c-0.17934,0.00018 -0.35868,0.00036 -0.54346,0.00055c-0.16436,0.00016 -0.32871,0.00032 -0.49805,0.00048c-0.39949,0.01616 -0.75756,0.06597 -1.14571,0.15784z" fill="#fbfbfb"/><path d="M237.06514,182.50104c1.04212,0.24557 1.80667,0.62902 2.65535,1.27527c0.16496,0.12289 0.16496,0.12289 0.33325,0.24826c0.81716,0.61534 1.58937,1.25584 2.3221,1.97036c0.12822,0.12089 0.12822,0.12089 0.25904,0.24423c1.42431,1.34395 2.64988,2.73277 3.74077,4.36004c0.17349,0.25834 0.35099,0.51319 0.53022,0.76756c2.4083,3.54011 3.61599,7.65559 4.4143,11.81804c0.02506,0.1291 0.05013,0.2582 0.07595,0.39122c0.7978,4.26154 0.37972,8.70048 -0.63497,12.88551c-0.05104,0.21352 -0.05104,0.21352 -0.10311,0.43134c-0.56205,2.30142 -1.38695,4.42311 -2.41248,6.55641c-0.04686,0.09872 -0.09372,0.19745 -0.14201,0.29916c-0.86394,1.79677 -2.13584,3.28535 -3.49163,4.73202c-0.08954,0.10179 -0.17907,0.20357 -0.27132,0.30844c-0.12512,0.13701 -0.12512,0.13701 -0.25276,0.27678c-0.07134,0.07981 -0.14268,0.15962 -0.21618,0.24184c-0.23802,0.15122 -0.23802,0.15122 -0.54618,0.14279c-0.55385,-0.18621 -0.88872,-0.55491 -1.28831,-0.96334c-0.08713,-0.08683 -0.17427,-0.17365 -0.26404,-0.26311c-0.28778,-0.28746 -0.57352,-0.57687 -0.85926,-0.86636c-0.20021,-0.2009 -0.40054,-0.40169 -0.60098,-0.60237c-0.42023,-0.4213 -0.83955,-0.84349 -1.25815,-1.26641c-0.53434,-0.53985 -1.07015,-1.0782 -1.60657,-1.61598c-0.51359,-0.51499 -1.02648,-1.03066 -1.53928,-1.54642c-0.09692,-0.0974 -0.19384,-0.19479 -0.2937,-0.29514c-0.94298,-0.94854 -1.8762,-1.89449 -2.7427,-2.91431c-0.18163,-0.19494 -0.36467,-0.38861 -0.55029,-0.57977c-2.64201,-2.74482 -2.64201,-2.74482 -2.69029,-3.72644c0.18162,-0.4875 0.34633,-0.78664 0.72498,-1.14424c0.48056,-0.18463 0.6821,-0.14601 1.1699,0.03712c0.19002,0.09122 0.37941,0.18378 0.5683,0.27733c4.26828,1.99144 9.28227,3.91491 14.05412,3.31918c0.09224,-0.04612 0.18448,-0.09224 0.27951,-0.13976c0.21618,-0.73262 0.29451,-1.37806 0.28715,-2.14164c-0.0011,-0.14911 -0.00221,-0.29822 -0.00334,-0.45185c-0.00142,-0.11265 -0.00284,-0.2253 -0.0043,-0.34137c-0.08608,-0.00977 -0.17216,-0.01955 -0.26085,-0.02962c-12.36462,-1.41544 -12.36462,-1.41544 -13.99417,-3.045c-0.16554,-0.93581 -0.16577,-1.85745 -0.16565,-2.805c-0.00031,-0.28734 -0.00286,-0.57461 -0.00549,-0.86194c-0.00027,-0.1825 -0.00054,-0.36499 -0.00082,-0.55302c-0.00057,-0.16576 -0.00115,-0.33153 -0.00174,-0.50231c0.03382,-0.44694 0.10196,-0.75353 0.31346,-1.14745c0.35703,-0.13047 0.35703,-0.13047 0.82106,-0.2009c3.98116,-0.73455 8.71876,-2.4375 11.33763,-5.72122c0.58999,-0.9408 1.03697,-2.04689 0.97829,-3.16196c-0.0717,0.06287 -0.1434,0.12575 -0.21728,0.19053c-3.51241,2.95066 -7.92154,4.7597 -12.31701,5.89756c-0.14244,0.03698 -0.14244,0.03698 -0.28776,0.0747c-1.83297,0.47127 -1.83297,0.47127 -2.41126,0.40571c-0.25849,-0.2893 -0.45597,-0.5508 -0.66384,-0.87347c-0.12228,-0.18046 -0.24475,-0.3608 -0.3674,-0.54101c-0.09164,-0.1367 -0.09164,-0.1367 -0.18513,-0.27617c-0.45389,-0.66622 -0.9518,-1.30101 -1.43897,-1.94299c-0.08629,-0.11692 -0.17259,-0.23384 -0.26149,-0.3543c-0.38845,-0.51822 -0.75751,-0.95535 -1.26708,-1.3577c-0.41511,-0.33921 -0.41511,-0.33921 -0.53282,-0.75118c0.14485,-0.45869 0.43023,-0.59443 0.80359,-0.89094c0.1726,-0.19821 0.33847,-0.40245 0.49788,-0.61143c0.46076,-0.58956 0.93552,-1.16274 1.42375,-1.72947c0.07106,-0.08266 0.14212,-0.16531 0.21533,-0.25047c0.36205,-0.42061 0.72532,-0.84015 1.08941,-1.25899c0.85419,-0.98526 1.67054,-1.9888 2.45575,-3.03012c0.20131,-0.26509 0.4052,-0.52804 0.60959,-0.79076c0.92911,-1.19787 1.81849,-2.41655 2.67432,-3.66806c0.47031,-0.68331 0.96441,-1.31723 1.51561,-1.93743z" fill="#fbfbfb"/><path d="M291.29012,167.687c2.0555,0.53915 4.03188,1.3697 5.72996,2.65535c0.11007,0.08089 0.22015,0.16178 0.33356,0.24512c0.97503,0.74618 1.85432,1.59996 2.74379,2.44408c0.4151,0.39367 0.83553,0.78037 1.26063,1.16318c0.60667,0.54675 1.17074,1.09907 1.69388,1.72582c0.26129,0.29624 0.53858,0.57081 0.82236,0.84539c0.75861,0.73583 1.37372,1.49501 1.95036,2.38099c0.12739,0.1864 0.25517,0.37254 0.38323,0.55847c1.66189,2.42747 3.04572,4.91194 3.97538,7.71328c0.03328,0.09682 0.06657,0.19364 0.10086,0.2934c0.69686,2.1954 0.78798,4.48002 0.77261,6.76423c-0.00064,0.20214 -0.00064,0.20214 -0.00129,0.40837c-0.00898,1.93022 -0.09305,3.79473 -0.53105,5.6821c-0.09378,0.40785 -0.17601,0.81712 -0.25761,1.22757c-0.66608,3.22897 -1.74165,6.36907 -3.00965,9.4089c-0.05912,0.14259 -0.11825,0.28518 -0.17916,0.43209c-0.59503,1.3791 -1.41671,2.59082 -2.29275,3.80423c-0.69734,0.97587 -1.36507,1.96927 -2.02645,2.9698c-0.88499,1.33622 -1.79654,2.64777 -2.74849,3.93709c-0.17859,0.24194 -0.35594,0.48473 -0.53302,0.72778c-1.98507,2.69478 -4.29502,5.13563 -6.78959,7.3628c-0.1371,0.12304 -0.27419,0.24609 -0.41544,0.37286c-0.80943,0.70032 -1.65923,1.31706 -2.54562,1.91563c-0.10292,0.06992 -0.20585,0.13984 -0.31189,0.21188c-1.90455,1.25864 -1.90455,1.25864 -2.87627,1.13326c-0.04612,-0.18448 -0.09224,-0.36895 -0.13976,-0.55902c0.13836,-0.04612 0.27672,-0.09224 0.41927,-0.13976c0.09819,-0.23085 0.19054,-0.46422 0.27951,-0.69878c0.16651,-0.24001 0.34001,-0.47527 0.51862,-0.70642c0.59573,-0.80298 1.06489,-1.6397 1.5253,-2.52542c0.17022,-0.32243 0.34073,-0.6447 0.51153,-0.96682c0.12893,-0.24331 0.12893,-0.24331 0.26047,-0.49153c0.32419,-0.60247 0.66186,-1.19655 1.00132,-1.79051c4.36504,-7.65207 8.35402,-16.85061 9.17999,-25.66297c0.01991,-0.19983 0.01991,-0.19983 0.04023,-0.40371c0.12562,-1.40163 0.12759,-2.80213 0.12573,-4.20821c-0.0002,-0.19155 -0.0002,-0.19155 -0.0004,-0.38697c-0.00409,-1.84104 -0.02453,-3.65965 -0.30532,-5.48275c-0.0218,-0.14498 -0.0436,-0.28996 -0.06606,-0.43933c-1.04388,-6.75238 -3.26543,-15.03432 -8.13582,-20.12214c-0.51515,-0.54081 -0.61599,-0.91511 -0.60269,-1.65959c0.04612,-0.04612 0.09224,-0.09224 0.13976,-0.13976z" fill="#e2e2e2"/><path d="M226.86302,217.30006c0.32045,0.02566 0.32045,0.02566 0.69878,0.13976c0.24293,0.31063 0.24293,0.31063 0.46294,0.70751c0.39253,0.65904 0.80665,1.16107 1.36097,1.68689c0.51811,0.4963 0.97114,1.05162 1.43665,1.59674c0.97031,1.13466 1.95935,2.24543 2.98802,3.32771c0.51272,0.54027 1.01015,1.09073 1.49841,1.65321c0.26387,0.30329 0.53356,0.60095 0.80427,0.89814c0.58751,0.65056 1.15796,1.31448 1.72599,1.98199c0.52791,0.61883 1.07009,1.22265 1.62431,1.81815c0.27471,0.32604 0.49888,0.61513 0.67639,1.00394c-0.1579,0.43169 -0.35677,0.65933 -0.72826,0.92151c-0.13773,0.09782 -0.13773,0.09782 -0.27825,0.19762c-0.10022,0.06882 -0.20044,0.13764 -0.3037,0.20854c-0.10536,0.07314 -0.21071,0.14628 -0.31926,0.22164c-1.74196,1.1933 -3.57407,2.23997 -5.41943,3.2635c-0.12056,0.06765 -0.24111,0.13529 -0.36532,0.20499c-1.61559,0.88293 -3.31283,1.41203 -5.09386,1.84766c-0.09713,0.0241 -0.19426,0.04819 -0.29433,0.07302c-1.63624,0.40432 -3.26925,0.71392 -4.94648,0.8878c-0.15694,0.01792 -0.15694,0.01792 -0.31705,0.0362c-1.17667,0.12328 -2.34967,0.12646 -3.53113,0.12703c-0.2196,0.00045 -0.4392,0.00092 -0.6588,0.00141c-0.45678,0.00083 -0.91356,0.0011 -1.37034,0.00101c-0.58602,-0.00001 -1.17203,0.00191 -1.75805,0.0043c-0.45186,0.00155 -0.90372,0.00184 -1.35559,0.00176c-0.21626,0.00017 -0.43252,0.00078 -0.64877,0.00186c-0.30068,0.00136 -0.60131,0.00097 -0.90199,0.00013c-0.17102,0.0002 -0.34203,0.0004 -0.51823,0.0006c-0.39997,-0.03455 -0.39997,-0.03455 -0.67948,-0.31406c0.05128,-0.25363 0.05128,-0.25363 0.13976,-0.55902c0.01253,-0.23096 0.01787,-0.46236 0.01808,-0.69366c0.00043,-0.13868 0.00087,-0.27737 0.00132,-0.42025c-0.00028,-0.15017 -0.00055,-0.30034 -0.00084,-0.45506c0.00028,-0.2355 0.00028,-0.2355 0.00056,-0.47575c0.00027,-0.51217 -0.00062,-1.02433 -0.00165,-1.5365c-0.00012,-0.17424 -0.00025,-0.34848 -0.00038,-0.52799c-0.00188,-2.25067 -0.02782,-4.49779 -0.10649,-6.74702c-0.04314,-1.24674 -0.06585,-2.49193 -0.06783,-3.73944c-0.00063,-0.15569 -0.00126,-0.31137 -0.00191,-0.47178c0.00477,-2.58965 0.00477,-2.58965 0.43865,-3.24047c0.35329,-0.03411 0.67208,-0.04197 1.02469,-0.03112c0.15501,0.00208 0.15501,0.00208 0.31315,0.00421c0.2219,0.00301 0.44379,0.00685 0.66567,0.01144c0.57809,0.01125 1.1562,0.0141 1.73439,0.01656c0.11355,0.00052 0.2271,0.00105 0.34409,0.00159c3.94028,0.00862 7.44178,-0.92047 10.88436,-2.80225c0.26695,-0.13529 0.26695,-0.13529 0.68622,-0.27504c0.10247,-0.28162 0.10247,-0.28162 0.13976,-0.55902z" fill="#fbfbfb"/><path d="M178.0885,174.11574c0.30309,0.07072 0.55898,0.13973 0.83853,0.27951c0.04324,0.13548 0.08647,0.27095 0.13102,0.41053c0.47971,1.18232 1.85885,2.01235 2.83605,2.77872c0.28813,0.22677 0.57331,0.45577 0.85709,0.68786c1.19605,0.97488 2.43059,1.87552 3.69648,2.75709c0.51239,0.35841 1.02099,0.72199 1.5285,1.08726c0.10208,0.07338 0.20416,0.14676 0.30933,0.22236c0.59418,0.43013 1.17978,0.86974 1.76025,1.31822c0.19639,0.15153 0.19639,0.15153 0.39675,0.30612c0.25398,0.19673 0.50724,0.3944 0.75965,0.59314c0.63948,0.49589 1.21691,0.88421 1.97991,1.15885c-0.09891,0.58232 -0.37453,0.76736 -0.82597,1.13387c-0.4676,0.42215 -0.84412,0.91153 -1.23487,1.4041c-0.19546,0.24627 -0.39464,0.48968 -0.59942,0.72826c-1.26568,1.49214 -2.1924,3.26007 -2.79019,5.11908c-0.0445,0.12989 -0.089,0.25978 -0.13484,0.39361c-0.23057,0.79796 -0.29432,1.44388 -0.23584,2.27047c0.15335,2.35119 0.15335,2.35119 -0.23447,2.91855c-0.47411,0.42166 -1.01674,0.66572 -1.61184,0.87247c-0.28633,0.10873 -0.54155,0.23804 -0.81026,0.38424c-0.62501,0.31606 -1.25119,0.48022 -1.93187,0.63374c-0.12518,0.02923 -0.25035,0.05847 -0.37932,0.08859c-0.26435,0.06138 -0.52886,0.12206 -0.79352,0.18208c-0.39509,0.08979 -0.7895,0.18219 -1.18389,0.27497c-2.5984,0.60339 -5.18011,0.96193 -7.83884,1.15271c-0.3429,0.02529 -0.68577,0.05089 -1.02861,0.07695c-0.20995,0.0159 -0.41994,0.03133 -0.62997,0.04621c-0.5079,0.0378 -0.99792,0.09507 -1.49464,0.20876c-0.33874,-0.5081 -0.33642,-0.91273 -0.35812,-1.50237c-0.00877,-0.19435 -0.01769,-0.3887 -0.02675,-0.58304c-0.00476,-0.10923 -0.00953,-0.21846 -0.01443,-0.331c-0.02363,-0.44835 -0.0578,-0.89558 -0.09093,-1.34333c-0.22867,-3.40269 -0.26692,-6.87671 0.49023,-10.21577c0.04047,-0.17903 0.04047,-0.17903 0.08175,-0.36167c0.96111,-4.02436 3.05608,-8.42773 5.64821,-11.65727c0.07508,-0.09422 0.15016,-0.18844 0.22751,-0.28552c0.46035,-0.57589 0.92533,-1.1477 1.39646,-1.7148c0.17417,-0.21294 0.34172,-0.43126 0.50839,-0.65012c0.12052,-0.14079 0.12052,-0.14079 0.24348,-0.28442c0.09224,0 0.18448,0 0.27951,0c0.09224,-0.18448 0.18448,-0.36895 0.27951,-0.55902z" fill="#fbfbfb"/><path d="M187.57656,203.45503c0.46834,0.23677 0.60422,0.68037 0.81888,1.13606c1.38823,2.76632 3.29414,5.25604 5.20588,7.6778c0.06501,0.08262 0.13003,0.16525 0.19701,0.25037c1.29987,1.80608 1.29987,1.80608 3.01736,3.10375c-0.13755,0.50434 -0.34804,0.784 -0.72225,1.1306c-0.58105,0.56913 -1.02435,1.20238 -1.47889,1.87414c-0.17177,0.2498 -0.34373,0.49947 -0.51589,0.749c-0.08415,0.12223 -0.16831,0.24447 -0.25501,0.37041c-0.33683,0.48376 -0.68564,0.958 -1.03718,1.43112c-0.78714,1.06496 -1.53583,2.15387 -2.27975,3.24931c-0.15854,0.23306 -0.31708,0.46612 -0.47563,0.69918c-0.29291,0.43067 -0.58561,0.86148 -0.87825,1.29233c-0.05615,0.08266 -0.1123,0.16532 -0.17016,0.25049c-0.11075,0.1631 -0.22144,0.32625 -0.33206,0.48944c-0.10815,0.15935 -0.21659,0.3185 -0.32532,0.47744c-0.26873,0.3942 -0.5297,0.79095 -0.77944,1.1975c-0.14413,0.23037 -0.14413,0.23037 -0.29118,0.4654c-0.12588,0.20747 -0.12588,0.20747 -0.2543,0.41913c-0.26706,0.2993 -0.26706,0.2993 -0.61658,0.36345c-0.36903,-0.06778 -0.56511,-0.1554 -0.86842,-0.37204c-0.09487,-0.06699 -0.18975,-0.13399 -0.28749,-0.20301c-0.09987,-0.07352 -0.19974,-0.14705 -0.30264,-0.2228c-0.10492,-0.07587 -0.20983,-0.15173 -0.31793,-0.2299c-1.78723,-1.30988 -3.39946,-2.8205 -5.0015,-4.34708c-0.11097,-0.10503 -0.22195,-0.21006 -0.33629,-0.31827c-0.74708,-0.72485 -1.39312,-1.52251 -2.03955,-2.33708c-0.12572,-0.15651 -0.25146,-0.31301 -0.37723,-0.46949c-1.32453,-1.65654 -2.48708,-3.35765 -3.49981,-5.22137c-0.18678,-0.33841 -0.37985,-0.67269 -0.57383,-1.00701c-0.82675,-1.44299 -1.53221,-2.91128 -2.14382,-4.45633c-0.09846,-0.24611 -0.09846,-0.24611 -0.19892,-0.4972c-0.33746,-0.87761 -0.57893,-1.66093 -0.61341,-2.60362c0.13976,-0.13976 0.13976,-0.13976 0.38542,-0.14726c0.10917,0.0032 0.21835,0.0064 0.33083,0.00969c0.97801,0.00902 1.94473,-0.08352 2.91739,-0.17688c0.09747,-0.00926 0.19494,-0.01852 0.29536,-0.02806c4.51762,-0.43377 9.89953,-3.86202 13.80462,-3.99918z" fill="#fbfbfb"/><path d="M200.1698,216.60129c0.23195,0.11856 0.46171,0.24146 0.69004,0.36686c1.25027,0.63658 2.5872,1.02901 3.92188,1.44996c0.16599,0.05283 0.16599,0.05283 0.33533,0.10673c1.21369,0.39028 1.21369,0.39028 2.44339,0.72471c0.14376,0.04846 0.28752,0.09692 0.43564,0.14685c0.1435,0.43051 0.1583,0.72668 0.16006,1.17782c0.00132,0.23632 0.00132,0.23632 0.00266,0.47741c0.00017,0.17295 0.00034,0.34589 0.00051,0.52408c0.00087,0.27307 0.00087,0.27307 0.00176,0.55165c0.00161,0.6037 0.00135,1.20739 0.00097,1.81108c0.00001,0.20778 0.00002,0.41556 0.00003,0.62334c-0.00105,3.18356 -0.04819,6.36491 -0.13969,9.54715c-0.00883,0.31139 -0.01717,0.6228 -0.02542,0.93421c-0.01554,0.57996 -0.03362,1.1598 -0.05218,1.73967c-0.00467,0.17295 -0.00935,0.34589 -0.01416,0.52408c-0.00557,0.15754 -0.01115,0.31509 -0.01689,0.47741c-0.00434,0.13717 -0.00869,0.27434 -0.01317,0.41567c-0.04422,0.34289 -0.04422,0.34289 -0.32373,0.76215c-2.67147,0.89049 -6.332,-0.72574 -8.80457,-1.67706c-0.1505,-0.05733 -0.30099,-0.11467 -0.45605,-0.17374c-6.22965,-2.39304 -6.22965,-2.39304 -8.34852,-4.43818c-0.13976,-0.41927 -0.13976,-0.41927 0.02238,-0.78503c0.71883,-1.23102 1.49447,-2.41649 2.29067,-3.59869c0.72594,-1.07908 1.44154,-2.16494 2.15665,-3.25122c0.22258,-0.33798 0.4455,-0.67574 0.66844,-1.0135c0.74212,-1.12614 1.47573,-2.25715 2.19626,-3.39725c0.06782,-0.1073 0.13564,-0.2146 0.20551,-0.32515c1.17237,-1.74462 1.17237,-1.74462 1.82367,-3.701c0.35939,-0.1797 0.46223,-0.12521 0.83853,0z" fill="#fbfbfb"/><path d="M221.41257,173.83623c0.28824,0.06114 0.28824,0.06114 0.55902,0.13976c0,0.09224 0,0.18448 0,0.27951c0.12039,0.03731 0.24077,0.07463 0.36481,0.11307c0.47266,0.16606 0.89911,0.36551 1.34501,0.59334c0.16948,0.08595 0.33896,0.17189 0.50845,0.25781c0.08826,0.045 0.17652,0.09 0.26746,0.13636c1.89088,0.96281 3.80202,1.8727 5.73423,2.74991c0.46461,0.21139 0.9284,0.42449 1.39202,0.63804c0.30444,0.14012 0.60888,0.28024 0.91332,0.42036c0.14014,0.06454 0.28027,0.12908 0.42466,0.19558c0.13027,0.05977 0.26055,0.11953 0.39477,0.18111c0.11373,0.05227 0.22747,0.10453 0.34465,0.15838c0.33963,0.1507 0.68253,0.28988 1.02834,0.42575c-0.082,0.57968 -0.41384,0.99071 -0.75118,1.44996c-0.06206,0.08565 -0.12413,0.1713 -0.18807,0.25955c-0.56644,0.77569 -1.158,1.53084 -1.7554,2.28279c-0.36459,0.45898 -0.72246,0.92283 -1.07873,1.38827c-1.14035,1.4867 -2.29368,2.96324 -3.49388,4.40229c-0.0606,0.07267 -0.1212,0.14534 -0.18363,0.22021c-0.92542,1.10548 -1.88601,2.17139 -2.8804,3.21536c-0.36149,0.38039 -0.70558,0.75218 -1.02599,1.16871c-0.24239,0.28715 -0.24239,0.28715 -0.62671,0.33083c-0.15565,-0.02162 -0.15565,-0.02162 -0.31445,-0.04367c0,-0.09224 0,-0.18448 0,-0.27951c-0.07634,-0.03754 -0.15268,-0.07508 -0.23133,-0.11376c-0.37006,-0.18719 -0.73413,-0.38375 -1.09852,-0.58174c-1.68618,-0.91379 -3.37119,-1.82505 -5.09888,-2.65862c-0.14268,-0.07008 -0.28536,-0.14016 -0.43237,-0.21236c-0.78433,-0.37385 -1.5101,-0.6009 -2.36273,-0.76592c-0.13976,-0.13976 -0.13976,-0.13976 -0.18561,-0.49296c0.06205,-0.65667 0.3227,-1.11136 0.63982,-1.68197c0.09426,-0.17431 0.09426,-0.17431 0.19042,-0.35215c0.52353,-0.96161 1.07012,-1.91012 1.61756,-2.85826c0.82581,-1.43667 1.5996,-2.90121 2.37805,-4.36383c0.44616,-0.83761 0.89866,-1.67173 1.35177,-2.50559c0.59009,-1.08619 1.17461,-2.175 1.74687,-3.2707c0.35229,-0.67148 0.35229,-0.67148 0.50668,-0.82587z" fill="#fbfbfb"/><path d="M172.21878,143.78888c0.5175,0.0454 0.84032,0.1994 1.24852,0.51153c0.10113,0.07581 0.20227,0.15162 0.30646,0.22973c0.10658,0.0811 0.21317,0.16221 0.32298,0.24577c5.34662,3.94519 11.36604,4.70543 17.82751,4.04416c0.36782,1.0142 0.59003,2.02361 0.78612,3.08335c0.03027,0.15826 0.06053,0.31653 0.09171,0.47959c0.05769,0.30572 0.11366,0.61177 0.16767,0.91817c0.0444,0.25114 0.09185,0.50179 0.14453,0.75132c0.08653,0.4653 0.11838,0.70201 -0.1517,1.10241c-4.65713,3.50353 -10.79805,5.65643 -16.5386,6.45931c-0.33988,0.04984 -0.66066,0.11063 -0.99084,0.20308c-2.95238,-3.54082 -3.83927,-9.90905 -3.80833,-14.35984c-0.00108,-0.15763 -0.00216,-0.31527 -0.00328,-0.47768c0.00601,-2.59967 0.00601,-2.59967 0.59723,-3.19089z" fill="#fbfbfb"/><path d="M180.8836,126.59901c0.05823,0.23293 0.11646,0.46585 0.17469,0.69878c0.03927,0.15403 0.07855,0.30806 0.11901,0.46676c0.08373,0.34109 0.16163,0.68367 0.23365,1.02742c0.49646,2.25684 1.46261,4.29102 2.96652,6.0526c0.14592,0.17241 0.14592,0.17241 0.2948,0.3483c0.31328,0.35787 0.63524,0.70459 0.963,1.04925c0.06702,0.07082 0.13403,0.14165 0.20308,0.21461c1.9239,2.02046 4.00275,3.64764 6.67876,4.55289c0.24566,0.12392 0.24566,0.12392 0.38542,0.54319c-0.07081,0.27953 -0.15465,0.55581 -0.24457,0.8298c-0.30156,0.99547 -0.46304,1.98488 -0.60065,3.0148c-0.01563,0.11576 -0.03126,0.23152 -0.04736,0.35079c-0.01328,0.10391 -0.02655,0.20783 -0.04023,0.31489c-0.04548,0.2414 -0.04548,0.2414 -0.18524,0.38115c-3.69107,0.64914 -7.52832,0.34072 -11.04065,-0.97829c-0.14717,-0.05489 -0.14717,-0.05489 -0.29732,-0.11089c-2.38672,-0.90447 -4.58498,-2.14625 -6.35142,-4.01789c-0.21982,-0.23379 -0.21982,-0.23379 -0.59232,-0.50934c-0.48275,-0.39999 -0.56721,-0.65317 -0.63763,-1.27527c0.05524,-1.75785 0.85545,-3.42504 1.58971,-4.98751c0.06359,-0.13764 0.12719,-0.27527 0.19271,-0.41708c0.21352,-0.4616 0.42932,-0.92206 0.64582,-1.38227c0.06792,-0.14617 0.13584,-0.29234 0.20581,-0.44294c0.45497,-0.95438 0.98084,-1.80132 1.611,-2.64914c0.10899,-0.15291 0.21784,-0.30594 0.32646,-0.45912c2.17885,-2.96774 2.17885,-2.96774 3.44693,-2.61549z" fill="#fbfbfb"/><path d="M194.16033,156.64635c0.56136,0.07317 0.78138,0.33213 1.14424,0.75118c0.16538,0.19024 0.16538,0.19024 0.3341,0.38433c0.60157,0.71413 1.19577,1.43441 1.77621,2.16586c0.18341,0.2311 0.3685,0.46077 0.55377,0.69038c0.11025,0.13854 0.22051,0.27708 0.3341,0.41981c0.33552,0.34608 0.57175,0.48275 1.02851,0.61962c-0.24545,1.97058 -3.19672,4.13708 -4.66651,5.29595c-0.39258,0.31677 -0.76255,0.65105 -1.13333,0.99303c-0.61793,0.56804 -1.25347,1.10472 -1.90744,1.63066c-0.34601,0.28297 -0.68259,0.57425 -1.01844,0.8691c-1.11856,0.97488 -2.33015,1.80018 -3.56519,2.61993c-0.1795,0.11944 -0.35834,0.23988 -0.53616,0.36181c-0.54554,0.37315 -0.88999,0.57392 -1.56771,0.52797c-0.75985,-0.50072 -1.3447,-1.20121 -1.92709,-1.89161c-0.43357,-0.48336 -0.89564,-0.9361 -1.35715,-1.39264c-0.63162,-0.62541 -1.24827,-1.25148 -1.82173,-1.93146c-0.21722,-0.24908 -0.44754,-0.47677 -0.68513,-0.70642c-0.50809,-0.49775 -0.94162,-1.04514 -1.37844,-1.60555c-0.23352,-0.30522 -0.23352,-0.30522 -0.51698,-0.57813c0.05241,-0.50661 0.05241,-0.50661 0.13976,-0.97829c0.0935,-0.02054 0.187,-0.04107 0.28333,-0.06223c4.01728,-0.93826 8.00059,-2.75518 11.51806,-4.89272c0.41834,-0.25287 0.83868,-0.50224 1.25916,-0.75152c0.31666,-0.1883 0.63329,-0.37664 0.9499,-0.56503c0.15151,-0.08982 0.30302,-0.17964 0.45912,-0.27217c0.14322,-0.08565 0.28644,-0.1713 0.43401,-0.25955c0.12759,-0.076 0.25519,-0.152 0.38665,-0.23031c0.37505,-0.23246 0.37505,-0.23246 0.74108,-0.54223c0.32004,-0.25051 0.32004,-0.25051 0.59955,-0.25051c0.04612,-0.13836 0.09224,-0.27672 0.13976,-0.41927z" fill="#fbfbfb"/><path d="M211.07998,168.99066c0.9841,0.36345 1.87714,0.84413 2.78654,1.36114c1.05155,0.59763 2.12778,1.13573 3.21365,1.66761c0.27964,0.1395 0.55919,0.27917 0.83853,0.41927c-0.74897,4.2707 -3.93288,8.59677 -6.29952,12.10461c-1.14912,1.66797 -1.14912,1.66797 -2.08851,3.45624c-0.13703,0.23147 -0.13703,0.23147 -0.61743,0.36249c-0.49788,0.00873 -0.49788,0.00873 -0.70712,-0.18311c-0.10396,-0.11257 -0.10396,-0.11257 -0.21002,-0.22742c-0.23933,-0.14955 -0.23933,-0.14955 -0.50405,-0.27583c-0.09998,-0.04997 -0.19995,-0.09995 -0.30296,-0.15143c-0.10786,-0.05285 -0.21573,-0.1057 -0.32686,-0.16015c-0.11264,-0.05602 -0.22529,-0.11205 -0.34134,-0.16977c-0.36096,-0.17931 -0.72249,-0.35745 -1.08405,-0.53555c-0.23742,-0.11766 -0.47481,-0.23539 -0.71215,-0.35321c-0.87853,-0.43578 -1.75719,-0.87129 -2.63781,-1.30283c-0.17809,-0.08779 -0.35617,-0.17559 -0.53425,-0.26341c-0.15352,-0.07526 -0.30705,-0.15052 -0.46522,-0.22806c-0.35857,-0.19339 -0.35857,-0.19339 -0.63808,-0.4729c-0.06085,-0.48159 -0.07946,-0.73494 0.2211,-1.12678c0.10287,-0.08936 0.20573,-0.17871 0.31172,-0.27078c1.54152,-1.44548 2.7323,-3.27251 3.97292,-4.97413c0.23737,-0.32483 0.47624,-0.64851 0.71543,-0.97201c1.53781,-2.08998 2.90363,-4.26342 4.15365,-6.53727c0.06565,-0.11785 0.13131,-0.23571 0.19895,-0.35713c0.08609,-0.15689 0.08609,-0.15689 0.17391,-0.31694c0.24014,-0.35554 0.43836,-0.56326 0.88299,-0.49266z" fill="#fbfbfb"/><path d="M201.84686,163.63411c0.30571,0.04367 0.30571,0.04367 0.55902,0.13976c0,0.09224 0,0.18448 0,0.27951c0.10143,0.03351 0.20285,0.06702 0.30735,0.10154c0.44865,0.20399 0.7112,0.44605 1.06399,0.7894c0.65199,0.60935 1.32944,1.15995 2.04392,1.69453c0.14385,0.10819 0.14385,0.10819 0.2906,0.21857c0.50996,0.3835 0.50996,0.3835 1.06986,0.6841c0.0843,0.04801 0.1686,0.09602 0.25546,0.14549c0.10482,0.43673 0.10482,0.43673 0.13976,0.83853c-0.08179,0.03099 -0.16358,0.06197 -0.24785,0.0939c-0.40779,0.24324 -0.56552,0.51786 -0.81779,0.91933c-0.147,0.2278 -0.147,0.2278 -0.29698,0.46021c-0.05152,0.07988 -0.10305,0.15975 -0.15613,0.24205c-2.08142,3.16967 -4.4237,6.27873 -6.9015,9.14556c-0.77502,0.91082 -1.48242,1.87959 -2.20114,2.83495c-0.49648,-0.08979 -0.83237,-0.29378 -1.24906,-0.57376c-0.13529,-0.09046 -0.27059,-0.18092 -0.40998,-0.27412c-0.21645,-0.1467 -0.21645,-0.1467 -0.43728,-0.29637c-0.14863,-0.09996 -0.29725,-0.19992 -0.45038,-0.30292c-1.29737,-0.87542 -2.5923,-1.75693 -3.86183,-2.67247c-0.20384,-0.14471 -0.41115,-0.28462 -0.62126,-0.42008c-0.52031,-0.34957 -0.75798,-0.5287 -0.98374,-1.12964c0.04749,-0.47986 0.04749,-0.47986 0.35266,-0.83307c0.14937,-0.11521 0.30117,-0.22729 0.45475,-0.33683c0.90109,-0.69783 1.69655,-1.4646 2.49154,-2.28027c0.53485,-0.54578 1.08323,-1.06186 1.66491,-1.55768c0.25946,-0.22799 0.50173,-0.46646 0.74371,-0.71283c0.30464,-0.30996 0.61418,-0.59934 0.94717,-0.87838c0.86781,-0.75482 1.67035,-1.5786 2.48192,-2.39273c0.28248,-0.28323 0.5657,-0.56571 0.84901,-0.84812c1.19507,-1.19017 1.19507,-1.19017 2.31848,-2.44739c0.19231,-0.22404 0.37808,-0.43648 0.60082,-0.63077z" fill="#fbfbfb"/><path d="M193.18205,117.93419c0.00383,0.25912 0.00651,0.51825 0.00873,0.77739c0.00162,0.1443 0.00324,0.28861 0.00491,0.43728c-0.01365,0.46239 -0.01365,0.46239 -0.0823,0.89899c-0.0812,0.61862 -0.09877,1.22168 -0.10441,1.84479c-0.00136,0.12459 -0.00272,0.24918 -0.00413,0.37754c-0.04074,4.69784 0.04658,9.43033 2.93298,13.3867c0.50932,0.71166 0.60044,1.40562 0.45857,2.26229c-0.24054,0.38829 -0.41705,0.46887 -0.83853,0.69878c-1.7522,0.28035 -3.71655,-0.75271 -5.10543,-1.73766c-0.45533,-0.33646 -0.89095,-0.69197 -1.32331,-1.05744c-0.09296,-0.07855 -0.18592,-0.15709 -0.28169,-0.23802c-2.79409,-2.58519 -3.88912,-6.32131 -4.33022,-9.9641c-0.03961,-0.30819 -0.08009,-0.61624 -0.12109,-0.92424c-0.03368,-0.25392 -0.06607,-0.508 -0.09837,-0.7621c-0.04602,-0.39749 -0.04602,-0.39749 -0.16159,-0.71515c-0.03821,-0.25385 -0.03821,-0.25385 0.09936,-0.49406c1.89977,-1.91658 4.61353,-3.16045 6.98994,-4.37171c0.11687,-0.05981 0.23375,-0.11962 0.35416,-0.18124c0.98708,-0.47621 0.98708,-0.47621 1.60241,-0.23802z" fill="#fbfbfb"/><path d="M303.72832,159.44145c0,0.09224 0,0.18448 0,0.27951c0.09224,0 0.18448,0 0.27951,0c0.9423,1.88148 1.84877,3.7636 2.60294,5.72996c0.05601,0.14554 0.11201,0.29108 0.16971,0.44103c0.60099,1.60221 1.02736,3.1327 1.01438,4.85601c-0.0003,0.15147 -0.0003,0.15147 -0.0006,0.30601c-0.00078,0.31891 -0.00253,0.6378 -0.00431,0.9567c-0.0007,0.21773 -0.00134,0.43546 -0.00191,0.65319c-0.00153,0.53055 -0.00394,1.06108 -0.00682,1.59162c-0.44944,-0.44726 -0.88732,-0.89885 -1.3102,-1.37135c-0.10899,-0.1216 -0.21799,-0.24321 -0.33028,-0.36849c-0.27389,-0.3089 -0.54444,-0.62027 -0.81396,-0.93297c-0.954,-1.08935 -1.99779,-2.02374 -3.13575,-2.91739c-0.08895,-0.07019 -0.1779,-0.14038 -0.26955,-0.2127c-2.29994,-1.80849 -4.66189,-3.22759 -7.27723,-4.53897c-0.12536,-0.06296 -0.25073,-0.12593 -0.37989,-0.1908c-1.55523,-0.77515 -3.12472,-1.45813 -4.76348,-2.03938c-0.12944,-0.04771 -0.25888,-0.09541 -0.39224,-0.14457c-0.11525,-0.04087 -0.23051,-0.08174 -0.34925,-0.12386c-0.26436,-0.15675 -0.26436,-0.15675 -0.38399,-0.43581c-0.02013,-0.27995 -0.02013,-0.27995 0.16221,-0.56765c0.55329,-0.39853 1.13627,-0.53246 1.7917,-0.69932c0.13652,-0.03588 0.27304,-0.07177 0.4137,-0.10874c1.2438,-0.31825 2.48978,-0.54962 3.76148,-0.72106c0.13007,-0.01838 0.26014,-0.03675 0.39415,-0.05568c2.96336,-0.34371 5.92674,0.02146 8.82968,0.6147z" fill="#e2e2e2"/></g></g></svg>