<?xml version="1.0" encoding="UTF-8"?>
<svg version="1.1" xmlns="http://www.w3.org/2000/svg" width="2100" height="2100">
<path d="M0 0 C3.55725906 1.73129253 6.96051622 3.69180155 10.375 5.6875 C11.38522217 6.26838379 12.39544434 6.84926758 13.4362793 7.44775391 C16.63022235 9.28829781 19.81590063 11.14248659 23 13 C24.97785722 14.14975226 26.95572163 15.29949212 28.93359375 16.44921875 C32.90541407 18.76170668 36.87346801 21.08053166 40.83984375 23.40234375 C50.43942238 29.01678675 60.08135951 34.5580032 69.71777344 40.10888672 C75.14659942 43.23680148 80.57319281 46.36858448 86 49.5 C88.16665583 50.75001879 90.3333225 52.00001878 92.5 53.25 C122.83333333 70.75 153.16666667 88.25 183.5 105.75 C185.1094751 106.67848755 185.1094751 106.67848755 186.75146484 107.62573242 C188.91337884 108.87306548 191.07516317 110.1206233 193.23681641 111.3684082 C198.72514585 114.53608832 204.21582533 117.69956761 209.7109375 120.85546875 C222.89273456 128.43197607 236.00097526 136.1136277 249 144 C248.40861433 147.86935194 247.25769222 150.71555664 245.33203125 154.11328125 C244.77523682 155.10247559 244.21844238 156.09166992 243.64477539 157.11083984 C243.04012451 158.1673877 242.43547363 159.22393555 241.8125 160.3125 C241.19044678 161.41029785 240.56839355 162.5080957 239.92749023 163.63916016 C237.96160987 167.09865511 235.9833735 170.55050669 234 174 C233.04963867 175.65346436 233.04963867 175.65346436 232.08007812 177.34033203 C230.24672908 180.52198434 228.40687872 183.69973008 226.5625 186.875 C225.73165894 188.30646362 225.73165894 188.30646362 224.8840332 189.7668457 C221.07620489 196.27899061 217.09051902 202.66188399 213 209 C209.21481268 207.5839494 205.80250679 205.84578935 202.30078125 203.83203125 C201.18735352 203.19378418 200.07392578 202.55553711 198.92675781 201.89794922 C197.72195086 201.20289367 196.51719971 200.5077414 195.3125 199.8125 C194.05711328 199.09105251 192.80157708 198.36986506 191.54589844 197.64892578 C188.31879708 195.7949706 185.09403586 193.93698535 181.86993408 192.07781982 C180.09079075 191.05233129 178.31095951 190.02805128 176.53076172 189.00439453 C164.05268898 181.82918115 151.60365887 174.60611736 139.17871094 167.33935547 C131.47975166 162.84472573 123.74531754 158.41400101 116 154 C106.27884383 148.4599827 96.59105342 142.86625191 86.93310547 137.21655273 C76.40915375 131.06233258 65.84619863 124.97630004 55.28222656 118.89111328 C50.93393042 116.38576503 46.58707659 113.87792178 42.24047852 111.36962891 C40.09282169 110.13051522 37.94487582 108.89190236 35.79663086 107.65380859 C30.72196043 104.72855998 25.6499409 101.79897413 20.5866394 98.85409546 C18.19684332 97.4645137 15.80563164 96.07737828 13.41430664 94.69042969 C11.72859411 93.71136747 10.04493413 92.72877394 8.36132812 91.74609375 C7.33845703 91.153125 6.31558594 90.56015625 5.26171875 89.94921875 C4.36412842 89.42674561 3.46653809 88.90427246 2.54174805 88.3659668 C-1.10471283 86.37798636 -1.10471283 86.37798636 -5 85 C-7.45991464 85.76033551 -7.45991464 85.76033551 -9.82421875 87.33984375 C-11.22293213 88.18083618 -11.22293213 88.18083618 -12.64990234 89.03881836 C-13.65230957 89.6653833 -14.6547168 90.29194824 -15.6875 90.9375 C-17.86003599 92.25106091 -20.03323566 93.56352465 -22.20703125 94.875 C-23.32932129 95.55949219 -24.45161133 96.24398437 -25.60791016 96.94921875 C-30.9810896 100.19772223 -36.42789028 103.3151293 -41.875 106.4375 C-44.06015548 107.69616392 -46.24504992 108.95528114 -48.4296875 110.21484375 C-49.51475586 110.83987793 -50.59982422 111.46491211 -51.71777344 112.10888672 C-57.14659942 115.23680148 -62.57319281 118.36858448 -68 121.5 C-70.16665583 122.75001879 -72.3333225 124.00001878 -74.5 125.25 C-75.5725 125.86875 -76.645 126.4875 -77.75 127.125 C-165.50000001 177.75 -165.50000001 177.75 -168.75219727 179.6262207 C-170.91159395 180.8720577 -173.07093669 182.11798818 -175.23022461 183.36401367 C-180.75767597 186.55348953 -186.28615121 189.74116885 -191.81640625 192.92578125 C-193.49440308 193.89463257 -193.49440308 193.89463257 -195.20629883 194.88305664 C-197.42884938 196.16077665 -199.65651888 197.4296368 -201.8894043 198.68920898 C-206.56810126 201.34303657 -211.10557741 203.97515407 -215.390625 207.234375 C-227.61017708 216.26053879 -239.01508378 213.97159682 -253.55175781 212.32763672 C-318.32317444 206.17334324 -392.3776763 241.97906338 -442 281 C-442.99515625 281.78117187 -443.9903125 282.56234375 -445.015625 283.3671875 C-451.95517476 288.9386546 -458.55365912 294.86935054 -465 301 C-465.56654297 301.53786133 -466.13308594 302.07572266 -466.71679688 302.62988281 C-486.4289296 321.48165174 -508.78284885 348.25471857 -513.75 375.9375 C-516.76471602 383.32355424 -527.96937435 387.33959738 -534.6875 391.0625 C-537.49183725 392.61908335 -540.28134449 394.18348202 -543.03979909 395.82044154 C-546.07388806 397.56536239 -549.1822627 398.97113495 -552.38973296 400.36907786 C-562.89487653 405.07348815 -562.89487653 405.07348815 -570.27386782 413.46852519 C-572.29650872 420.61754804 -571.85685878 427.98659356 -571.64559937 435.34162903 C-571.65520085 437.82778293 -571.67447834 440.31391501 -571.70256102 442.79992884 C-571.74143061 448.19422209 -571.71240001 453.58170136 -571.62252045 458.97491837 C-571.48927252 466.9928355 -571.4831716 475.00740068 -571.5024442 483.02622324 C-571.53129767 496.51585326 -571.45804968 510.00310613 -571.32606125 523.49204445 C-571.19576494 536.84235222 -571.11118741 550.19166928 -571.08729935 563.54260826 C-571.08578707 564.37352271 -571.0842748 565.20443717 -571.0827167 566.06053084 C-571.0752731 570.28054044 -571.06864276 574.50055089 -571.06232543 578.7205623 C-571.01614863 608.59050468 -570.86802032 638.45915456 -570.65966797 668.32836914 C-570.45752472 697.34099466 -570.30172854 726.35326616 -570.20849609 755.36645508 C-570.20415573 756.70854064 -570.20415573 756.70854064 -570.19972768 758.07773904 C-570.17071958 767.06314132 -570.14265177 776.04854634 -570.11527278 785.03395373 C-570.05948009 803.33732653 -569.99741255 821.64067628 -569.93154907 839.9440155 C-569.9270185 841.20627838 -569.9270185 841.20627838 -569.92239641 842.49404152 C-569.72007237 898.66323624 -569.37103002 954.83169767 -569 1011 C-568.27457001 1011.41806412 -567.54914001 1011.83612823 -566.80172729 1012.26686096 C-564.04896344 1013.8534982 -561.29638219 1015.44045169 -558.54391479 1017.02760315 C-556.79137511 1018.03804666 -555.03863478 1019.04814213 -553.28588867 1020.05822754 C-545.88430557 1024.32655262 -538.49835405 1028.62061606 -531.125 1032.9375 C-522.44618683 1038.01072493 -513.73396165 1043.02257779 -505 1048 C-495.27884383 1053.5400173 -485.59105342 1059.13374809 -475.93310547 1064.78344727 C-465.40915375 1070.93766742 -454.84619863 1077.02369996 -444.28222656 1083.10888672 C-438.85340058 1086.23680148 -433.42680719 1089.36858448 -428 1092.5 C-425.83334417 1093.75001879 -423.6666775 1095.00001878 -421.5 1096.25 C-373.83333333 1123.75 -326.16666667 1151.25 -278.5 1178.75 C-277.42733887 1179.36883057 -276.35467773 1179.98766113 -275.24951172 1180.62524414 C-273.08442929 1181.87435518 -270.91939018 1183.12354129 -268.75439453 1184.37280273 C-263.31384294 1187.51202309 -257.87252784 1190.64990563 -252.4296875 1193.78515625 C-241.97793801 1199.80747329 -231.53700452 1205.84669337 -221.125 1211.9375 C-212.44737759 1217.01275123 -203.73394432 1222.02258767 -195 1227 C-185.27884383 1232.5400173 -175.59105342 1238.13374809 -165.93310547 1243.78344727 C-155.40915375 1249.93766742 -144.84619863 1256.02369996 -134.28222656 1262.10888672 C-128.85340058 1265.23680148 -123.42680719 1268.36858448 -118 1271.5 C-115.83334417 1272.75001879 -113.6666775 1274.00001878 -111.5 1275.25 C-98.5 1282.75 -85.5 1290.25 -72.5 1297.75 C-71.42717773 1298.36891113 -70.35435547 1298.98782227 -69.24902344 1299.62548828 C-67.08552524 1300.87371034 -64.92211357 1302.12208239 -62.75878906 1303.37060547 C-57.29434983 1306.52405256 -51.82836355 1309.67476096 -46.359375 1312.8203125 C-45.26455811 1313.45074463 -44.16974121 1314.08117676 -43.04174805 1314.73071289 C-40.867342 1315.98200834 -38.69174402 1317.23123509 -36.51489258 1318.47827148 C-31.17838444 1321.54510377 -25.88697319 1324.66425307 -20.65234375 1327.90234375 C-19.64655273 1328.51835449 -18.64076172 1329.13436523 -17.60449219 1329.76904297 C-15.70620725 1330.93616727 -13.81691854 1332.11809488 -11.93847656 1333.31689453 C-11.09639648 1333.8323584 -10.25431641 1334.34782227 -9.38671875 1334.87890625 C-8.65670654 1335.3385376 -7.92669434 1335.79816895 -7.17456055 1336.27172852 C-4.97184643 1337.23477487 -4.97184643 1337.23477487 -2.58203125 1336.33056641 C0.21724956 1334.88804746 2.96898297 1333.40212415 5.69921875 1331.83203125 C6.81248535 1331.19386475 7.92575195 1330.55569824 9.07275391 1329.89819336 C10.27771682 1329.20304466 11.4826309 1328.5078113 12.6875 1327.8125 C13.94434799 1327.09031382 15.20134912 1326.3683941 16.45849609 1325.64672852 C19.68637148 1323.79256933 22.91189349 1321.93436047 26.13653564 1320.07458496 C28.99525204 1318.42607817 31.85518454 1316.77968312 34.71484375 1315.1328125 C40.07278109 1312.04520824 45.42792501 1308.95279067 50.78222656 1305.85888672 C56.18670649 1302.73675393 61.59350107 1299.61863474 67 1296.5 C68.07121094 1295.88189453 69.14242187 1295.26378906 70.24609375 1294.62695312 C75.68646075 1291.48777626 81.12762955 1288.35000371 86.5703125 1285.21484375 C97.02206199 1279.19252671 107.46299548 1273.15330663 117.875 1267.0625 C127.14499777 1261.64078822 136.45831752 1256.29795085 145.78845215 1250.98077393 C154.9128284 1245.77954871 164.00132774 1240.51972122 173.06689453 1235.21655273 C183.59084625 1229.06233258 194.15380137 1222.97630004 204.71777344 1216.89111328 C210.14659942 1213.76319852 215.57319281 1210.63141552 221 1207.5 C223.16665583 1206.24998121 225.3333225 1204.99998122 227.5 1203.75 C228.5725 1203.13125 229.645 1202.5125 230.75 1201.875 C370.50000003 1121.24999998 370.50000003 1121.24999998 373.75048828 1119.37475586 C375.91557071 1118.12564482 378.08060982 1116.87645871 380.24560547 1115.62719727 C385.68615706 1112.48797691 391.12747216 1109.35009437 396.5703125 1106.21484375 C407.02206199 1100.19252671 417.46299548 1094.15330663 427.875 1088.0625 C437.14499777 1082.64078822 446.45831752 1077.29795085 455.78845215 1071.98077393 C464.9128284 1066.77954871 474.00132774 1061.51972122 483.06689453 1056.21655273 C490.32211726 1051.97382727 497.59353319 1047.76001946 504.875 1043.5625 C505.94886963 1042.94342773 507.02273926 1042.32435547 508.12915039 1041.68652344 C512.55350496 1039.13677204 516.97852587 1036.58817919 521.40380859 1034.04003906 C524.79038669 1032.08979552 528.17644649 1030.13865416 531.5625 1028.1875 C532.55942871 1027.61394775 533.55635742 1027.04039551 534.58349609 1026.44946289 C536.54322252 1025.32010999 538.49004109 1024.16799809 540.42187029 1022.99156213 C542.96952546 1021.49735279 545.52089195 1020.36419682 548.26948208 1019.28796172 C553.74362272 1016.95179576 559.50302549 1014.44811435 561.99170156 1008.71572572 C563.65445442 1001.62940048 563.31492084 994.34384346 563.20582581 987.11334229 C563.23043349 984.6397275 563.26242516 982.16617703 563.30115551 979.69274306 C563.36808506 974.31763733 563.38224197 968.94625643 563.34949112 963.57111359 C563.30092311 955.57870974 563.34951663 947.58892599 563.41669657 939.59676314 C563.54003798 924.49196102 563.54870365 909.3884106 563.52229512 894.28322962 C563.5025815 882.61772981 563.51401625 870.95262829 563.54743767 859.28716278 C563.55211789 857.61057722 563.55679063 855.93399164 563.56145592 854.25740604 C563.5685206 851.73087007 563.5756049 849.20433417 563.58276305 846.67779846 C563.64859045 823.18957126 563.68011996 799.70149576 563.63972569 776.21319962 C563.63820866 775.32789668 563.63669164 774.44259374 563.63512864 773.53046344 C563.6226179 766.34137987 563.60922941 759.15229789 563.5957669 751.96321605 C563.54403796 723.92616699 563.60079963 695.89120198 563.74438477 667.85449219 C563.90552571 636.3461508 563.98690744 604.83908198 563.94951957 573.33030868 C563.94579008 569.96957275 563.94232072 566.60883664 563.93900871 563.24810028 C563.93813636 562.42061892 563.937264 561.59313756 563.93636522 560.740581 C563.92479948 548.25725264 563.97527031 535.77515766 564.05713081 523.29212189 C564.1501286 509.09114962 564.15878233 494.89297577 564.05575741 480.69201258 C564.00059085 472.74743673 564.01124294 464.80946966 564.11781554 456.86538115 C564.19000764 450.92681555 564.13615804 444.99365968 564.03395724 439.05539176 C564.01205299 436.65843567 564.03045036 434.26069233 564.09373564 431.8644717 C564.41435088 421.06240904 564.41435088 421.06240904 561 411 C554.98670638 405.13088044 547.4242591 401.63888633 539.81828832 398.2732887 C536.16964026 396.62484758 532.80859291 394.68022162 529.375 392.625 C527.25049022 391.41580495 525.12549996 390.20745367 523 389 C513.27706078 383.46315064 503.59101098 377.86622708 493.93310547 372.21655273 C486.67788274 367.97382727 479.40646681 363.76001946 472.125 359.5625 C471.05113037 358.94342773 469.97726074 358.32435547 468.87084961 357.68652344 C464.44649504 355.13677204 460.02147413 352.58817919 455.59619141 350.04003906 C453.90308838 349.06502441 453.90308838 349.06502441 452.17578125 348.0703125 C451.05647217 347.42594238 449.93716309 346.78157227 448.78393555 346.11767578 C446.57401945 344.84302803 444.36581107 343.56541439 442.15942383 342.28466797 C437.41295242 339.53006164 432.66299447 336.79876563 427.8359375 334.1875 C427.06193604 333.75928955 426.28793457 333.3310791 425.49047852 332.88989258 C424.11592376 332.13104467 422.73191647 331.38885478 421.33569336 330.6706543 C411.86302301 325.36911354 407.20269816 314.10594234 402.1875 304.9375 C400.95190683 302.70496153 399.71492483 300.47319114 398.4765625 298.2421875 C397.88004883 297.16678711 397.28353516 296.09138672 396.66894531 294.98339844 C394.52086454 291.1434998 392.30961937 287.34507176 390.0625 283.5625 C385.92656228 276.5924561 381.85884634 269.58495216 377.8125 262.5625 C377.17521973 261.45672607 376.53793945 260.35095215 375.88134766 259.21166992 C373.9203862 255.8080747 371.96011785 252.40408111 370 249 C360.38403004 232.30335793 350.72676672 215.6323402 341 199 C341.66 198.67 342.32 198.34 343 198 C345.38476563 199.1171875 345.38476563 199.1171875 348.40625 200.875 C350.09065186 201.84675171 350.09065186 201.84675171 351.80908203 202.83813477 C353.03946145 203.55863112 354.26976544 204.27925632 355.5 205 C356.77022983 205.73635651 358.04090652 206.47194268 359.31201172 207.20678711 C361.93276205 208.72340958 364.55091399 210.24437589 367.16699219 211.76904297 C371.749851 214.43895523 376.34658582 217.08460273 380.94335938 219.73046875 C385.22556373 222.19621933 389.50376866 224.66886967 393.78222656 227.14111328 C398.10247643 229.63689344 402.42422987 232.13006297 406.74609375 234.62304688 C409.99496496 236.49709563 413.24357632 238.37159428 416.4921875 240.24609375 C420.85065388 242.76069436 425.21012191 245.27354661 429.5703125 247.78515625 C440.02206199 253.80747329 450.46299548 259.84669337 460.875 265.9375 C469.55262241 271.01275123 478.26605568 276.02258767 487 281 C496.72115617 286.5400173 506.40894658 292.13374809 516.06689453 297.78344727 C526.59084625 303.93766742 537.15380137 310.02369996 547.71777344 316.10888672 C553.14659942 319.23680148 558.57319281 322.36858448 564 325.5 C566.16665583 326.75001879 568.3333225 328.00001878 570.5 329.25 C574.83333333 331.75 579.16666667 334.25 583.5 336.75 C585.11152954 337.67969604 585.11152954 337.67969604 586.75561523 338.62817383 C588.90364046 339.86746267 591.05159075 341.10688141 593.19946289 342.34643555 C598.28655549 345.28202567 603.37441847 348.21625672 608.4649353 351.14590454 C610.87543748 352.53328095 613.28551376 353.92139624 615.69555664 355.30957031 C617.40143968 356.29173815 619.10793986 357.27283385 620.81445312 358.25390625 C622.35842773 359.14335938 622.35842773 359.14335938 623.93359375 360.05078125 C624.84165771 360.57325439 625.74972168 361.09572754 626.68530273 361.6340332 C628.49126201 362.69977966 630.25521129 363.83680752 632 365 C632.22265625 367.49609375 632.22265625 367.49609375 632.0625 370.4375 C631.77626579 375.00204358 631.77626579 375.00204358 634 379 C633.34 379 632.68 379 632 379 C632 598.12 632 817.24 632 1043 C632.66 1043.33 633.32 1043.66 634 1044 C633.34 1044.66 632.68 1045.32 632 1046 C632.12460111 1047.73867023 632.30774157 1049.47339239 632.5234375 1051.203125 C632.59561431 1056.35621335 632.59561431 1056.35621335 630.17675781 1058.97070312 C627.40401941 1060.77896393 624.59114151 1062.27974393 621.625 1063.75 C619.40577163 1064.94312106 617.1870379 1066.13716255 614.96875 1067.33203125 C613.81503906 1067.9348291 612.66132812 1068.53762695 611.47265625 1069.15869141 C605.93290431 1072.09603738 600.53856502 1075.27553644 595.125 1078.4375 C592.94096633 1079.69810948 590.75606478 1080.95721649 588.5703125 1082.21484375 C582.04513757 1085.97355381 575.5223655 1089.7364175 569 1093.5 C566.83334417 1094.75001879 564.6666775 1096.00001878 562.5 1097.25 C561.4275 1097.86875 560.355 1098.4875 559.25 1099.125 C471.5 1149.75 471.5 1149.75 468.24951172 1151.62524414 C466.08442929 1152.87435518 463.91939018 1154.12354129 461.75439453 1155.37280273 C456.31384294 1158.51202309 450.87252784 1161.64990563 445.4296875 1164.78515625 C434.97793801 1170.80747329 424.53700452 1176.84669337 414.125 1182.9375 C404.85500223 1188.35921178 395.54168248 1193.70204915 386.21154785 1199.01922607 C377.0871716 1204.22045129 367.99867226 1209.48027878 358.93310547 1214.78344727 C348.40915375 1220.93766742 337.84619863 1227.02369996 327.28222656 1233.10888672 C321.85340058 1236.23680148 316.42680719 1239.36858448 311 1242.5 C308.83334417 1243.75001879 306.6666775 1245.00001878 304.5 1246.25 C303.4275 1246.86875 302.355 1247.4875 301.25 1248.125 C161.49999999 1328.75000001 161.49999999 1328.75000001 158.24951172 1330.62524414 C156.08442929 1331.87435518 153.91939018 1333.12354129 151.75439453 1334.37280273 C146.31384294 1337.51202309 140.87252784 1340.64990563 135.4296875 1343.78515625 C124.97793801 1349.80747329 114.53700452 1355.84669337 104.125 1361.9375 C94.85500223 1367.35921178 85.54168248 1372.70204915 76.21154785 1378.01922607 C67.09459028 1383.21622237 58.01371739 1388.47217156 48.95507812 1393.77026367 C39.32089352 1399.40330915 29.66533552 1404.99848733 19.984375 1410.55078125 C16.30719832 1412.66091316 12.65017429 1414.79780432 9.015625 1416.98046875 C8.28279297 1417.41319092 7.54996094 1417.84591309 6.79492188 1418.29174805 C5.48616787 1419.06503166 4.18454029 1419.850588 2.89257812 1420.65161133 C0.26118104 1422.18796192 -1.71225476 1422.99229978 -4.7734375 1423.07421875 C-9.66922192 1421.44426631 -13.93150803 1418.90963345 -18.375 1416.3125 C-19.38522217 1415.73161621 -20.39544434 1415.15073242 -21.4362793 1414.55224609 C-24.63022235 1412.71170219 -27.81590063 1410.85751341 -31 1409 C-32.97785722 1407.85024774 -34.95572163 1406.70050788 -36.93359375 1405.55078125 C-40.90541407 1403.23829332 -44.87346801 1400.91946834 -48.83984375 1398.59765625 C-58.43942238 1392.98321325 -68.08135951 1387.4419968 -77.71777344 1381.89111328 C-83.14659942 1378.76319852 -88.57319281 1375.63141552 -94 1372.5 C-96.16665583 1371.24998121 -98.3333225 1369.99998122 -100.5 1368.75 C-148.16666667 1341.25 -195.83333333 1313.75 -243.5 1286.25 C-244.57266113 1285.63116943 -245.64532227 1285.01233887 -246.75048828 1284.37475586 C-248.91557071 1283.12564482 -251.08060982 1281.87645871 -253.24560547 1280.62719727 C-258.68615706 1277.48797691 -264.12747216 1274.35009437 -269.5703125 1271.21484375 C-280.02206199 1265.19252671 -290.46299548 1259.15330663 -300.875 1253.0625 C-309.55262241 1247.98724877 -318.26605568 1242.97741233 -327 1238 C-336.72115617 1232.4599827 -346.40894658 1226.86625191 -356.06689453 1221.21655273 C-366.59084625 1215.06233258 -377.15380137 1208.97630004 -387.71777344 1202.89111328 C-393.14659942 1199.76319852 -398.57319281 1196.63141552 -404 1193.5 C-406.16665583 1192.24998121 -408.3333225 1190.99998122 -410.5 1189.75 C-482 1148.5 -482 1148.5 -553.5 1107.25 C-554.57266113 1106.63116943 -555.64532227 1106.01233887 -556.75048828 1105.37475586 C-558.91557071 1104.12564482 -561.08060982 1102.87645871 -563.24560547 1101.62719727 C-568.68615706 1098.48797691 -574.12747216 1095.35009437 -579.5703125 1092.21484375 C-588.17814385 1087.25521217 -596.78424027 1082.29276636 -605.37109375 1077.296875 C-606.40282715 1076.69665527 -607.43456055 1076.09643555 -608.49755859 1075.47802734 C-610.51553401 1074.29913363 -612.53028354 1073.11469778 -614.54150391 1071.92431641 C-619.0650919 1069.25159873 -623.58898343 1066.66289342 -628.27734375 1064.2890625 C-639.51764566 1058.47635578 -639.51764566 1058.47635578 -640.96484375 1054.046875 C-640.9375 1051.0625 -640.9375 1051.0625 -640.40234375 1048.34765625 C-639.6782875 1045.7380179 -639.6782875 1045.7380179 -642 1043 C-641.34 1043 -640.68 1043 -640 1043 C-640 823.88 -640 604.76 -640 379 C-640.66 378.67 -641.32 378.34 -642 378 C-641.34 377.34 -640.68 376.68 -640 376 C-640.12460111 374.26132977 -640.30774157 372.52660761 -640.5234375 370.796875 C-640.59561431 365.64378665 -640.59561431 365.64378665 -638.17675781 363.02929688 C-635.40401941 361.22103607 -632.59114151 359.72025607 -629.625 358.25 C-627.40577163 357.05687894 -625.1870379 355.86283745 -622.96875 354.66796875 C-621.23818359 353.76377197 -621.23818359 353.76377197 -619.47265625 352.84130859 C-613.93290431 349.90396262 -608.53856502 346.72446356 -603.125 343.5625 C-600.94096633 342.30189052 -598.75606478 341.04278351 -596.5703125 339.78515625 C-590.04513757 336.02644619 -583.5223655 332.2635825 -577 328.5 C-574.83334417 327.24998121 -572.6666775 325.99998122 -570.5 324.75 C-569.4275 324.13125 -568.355 323.5125 -567.25 322.875 C-479.5 272.25 -479.5 272.25 -476.24951172 270.37475586 C-474.08442929 269.12564482 -471.91939018 267.87645871 -469.75439453 266.62719727 C-464.31384294 263.48797691 -458.87252784 260.35009437 -453.4296875 257.21484375 C-442.97793801 251.19252671 -432.53700452 245.15330663 -422.125 239.0625 C-412.85500223 233.64078822 -403.54168248 228.29795085 -394.21154785 222.98077393 C-385.0871716 217.77954871 -375.99867226 212.51972122 -366.93310547 207.21655273 C-356.40915375 201.06233258 -345.84619863 194.97630004 -335.28222656 188.89111328 C-329.85340058 185.76319852 -324.42680719 182.63141552 -319 179.5 C-316.83334417 178.24998121 -314.6666775 176.99998122 -312.5 175.75 C-311.4275 175.13125 -310.355 174.5125 -309.25 173.875 C-169.5 93.25 -169.5 93.25 -166.24951172 91.37475586 C-164.08442929 90.12564482 -161.91939018 88.87645871 -159.75439453 87.62719727 C-154.31384294 84.48797691 -148.87252784 81.35009437 -143.4296875 78.21484375 C-132.97793801 72.19252671 -122.53700452 66.15330663 -112.125 60.0625 C-102.85500223 54.64078822 -93.54168248 49.29795085 -84.21154785 43.98077393 C-75.09459028 38.78377763 -66.01371739 33.52782844 -56.95507812 28.22973633 C-47.32089352 22.59669085 -37.66533552 17.00151267 -27.984375 11.44921875 C-24.30719832 9.33908684 -20.65017429 7.20219568 -17.015625 5.01953125 C-16.28279297 4.58680908 -15.54996094 4.15408691 -14.79492188 3.70825195 C-13.48616787 2.93496834 -12.18454029 2.149412 -10.89257812 1.34838867 C-6.78681379 -1.04877651 -4.511537 -1.50202503 0 0 Z " fill="#25292E" transform="translate(1054,339)"/>
<path d="M0 0 C5.07279769 1.0324643 6.34642556 3.80499929 9.1484375 7.99609375 C11.69192091 12.12254679 13.94658709 16.37540181 16.1953125 20.66796875 C17.95137427 23.91022133 19.84126031 27.00980796 21.8125 30.125 C25.07426339 35.33380449 27.94571282 40.65821856 30.75 46.125 C34.14747725 52.73058476 37.82397459 59.02512556 41.875 65.25 C46.92686325 73.03680397 51.2796531 81.05530865 55.50390625 89.31591797 C59.71653236 97.5346421 64.23675096 105.53963423 68.85546875 113.53515625 C72.97233786 120.66347522 76.9767914 127.85441572 80.99072266 135.04101562 C84.74665108 141.76600135 84.74665108 141.76600135 88.53515625 148.47265625 C96.0813898 161.75454739 103.25487123 175.20028043 109.8125 189 C110.45783691 190.35291138 110.45783691 190.35291138 111.11621094 191.7331543 C113.55233257 196.84425754 115.98135245 201.95839319 118.39306641 207.08105469 C120.65429851 211.87967287 122.93719777 216.66759976 125.23007202 221.45117188 C126.15176854 223.38308681 127.06664037 225.31827422 127.97427368 227.25683594 C132.86289794 237.68878178 137.14012765 246.36753752 146 254 C147.69281945 255.96498653 149.08559145 257.97829801 150.5625 260.125 C150.95977295 260.69863281 151.3570459 261.27226563 151.76635742 261.86328125 C152.66841027 263.16607859 153.56706951 264.47123012 154.46289062 265.77832031 C156.19626855 268.28367913 157.96386424 270.76293754 159.734375 273.2421875 C173.36659939 292.42289094 184.89000551 312.3631965 195.60205078 333.29394531 C196.91841936 335.84208176 198.26163959 338.3730751 199.62109375 340.8984375 C208.37016602 357.15517104 215.98980702 373.68166405 222.25 391.0625 C222.63800781 392.1362085 223.02601563 393.20991699 223.42578125 394.31616211 C229.52421209 411.68247755 233.98583099 429.27206009 237.25 447.375 C237.42153595 448.31055725 237.5930719 449.2461145 237.76980591 450.21002197 C240.30972347 464.11137242 242.3507728 477.86894835 243 492 C243.10651832 493.84774653 243.21463093 495.69540173 243.32421875 497.54296875 C244.11142289 511.48003234 244.11663541 525.30247581 243.5625 539.25 C243.52334473 540.27593262 243.48418945 541.30186523 243.44384766 542.35888672 C243.40179199 543.31811035 243.35973633 544.27733398 243.31640625 545.265625 C243.27974854 546.12961914 243.24309082 546.99361328 243.20532227 547.88378906 C243 550 243 550 242 552 C239.69921875 551.9375 239.69921875 551.9375 237 551 C235.67989734 548.62567015 234.74143686 546.52380366 233.8125 544 C226.28988654 525.34830032 214.70919039 508.63015328 201 494 C197.47898513 490.14178327 194.73729328 486.56753252 192.25 481.9453125 C189.41268833 477.52974622 185.55474559 473.83888342 182 470 C180.8073549 468.62946036 179.61941462 467.254804 178.4375 465.875 C171.61125392 458.08027049 164.14255342 451.39436832 156 445 C155.36352539 444.49774902 154.72705078 443.99549805 154.07128906 443.47802734 C137.61436817 430.53757582 120.71374612 420.38342403 102 411 C101.10297363 410.54947266 100.20594727 410.09894531 99.28173828 409.63476562 C88.15350368 404.08826613 76.92321462 399.20127214 65.19726562 395.04223633 C63.80797852 394.53019653 63.80797852 394.53019653 62.390625 394.0078125 C61.56594727 393.71535645 60.74126953 393.42290039 59.89160156 393.12158203 C58 392 58 392 57.14404297 390.00317383 C57 388 57 388 58.3046875 385.94140625 C62.26369784 383.08977127 66.43510402 382.13145886 71.125 380.9375 C72.59030151 380.55235229 72.59030151 380.55235229 74.08520508 380.15942383 C82.98506665 377.88221053 91.90049272 376.22669414 101 375 C101.93070313 374.86851562 102.86140625 374.73703125 103.8203125 374.6015625 C124.24522966 372.23252822 145.08989679 374.19852817 165 379 C155.66170399 359.84177667 145.37123413 341.48421776 133.71679688 323.63232422 C132.07641273 321.11716184 130.45147653 318.59258158 128.828125 316.06640625 C122.80999184 306.78161729 116.36128331 298.25498543 109 290 C107.85385723 288.66693265 106.70798515 287.33363247 105.5625 286 C101.98689882 281.9344727 98.30221571 277.96863772 94.61352539 274.00585938 C93.62287846 272.93949526 92.63941341 271.86642467 91.66235352 270.78759766 C90.45354296 269.48771355 89.20302582 268.22623684 87.92944336 266.98974609 C82.18462237 261.15678431 80.65893874 256.46982684 79.4375 248.5 C74.29483368 221.17813518 62.91407103 194.02127834 51 169 C50.22172852 167.36514648 50.22172852 167.36514648 49.42773438 165.69726562 C42.19941783 150.64869427 34.41658981 136.01486392 25.69580078 121.77099609 C23.8573621 118.76692483 22.03531237 115.75327336 20.21484375 112.73828125 C13.31194116 101.23928081 13.31194116 101.23928081 6 90 C-11.01150223 121.41852031 -21.49589314 152.18414646 -24 188 C-22.71222656 187.91621094 -21.42445313 187.83242188 -20.09765625 187.74609375 C-18.41928773 187.64295379 -16.74090136 187.54010416 -15.0625 187.4375 C-14.21236328 187.38142578 -13.36222656 187.32535156 -12.48632812 187.26757812 C-11.67744141 187.21923828 -10.86855469 187.17089844 -10.03515625 187.12109375 C-9.2862915 187.0739624 -8.53742676 187.02683105 -7.76586914 186.97827148 C-6 187 -6 187 -5 188 C-4.375 190.6875 -4.375 190.6875 -5 194 C-11.10435806 199.51745737 -19.36773701 202.9132402 -26.67196655 206.60549927 C-30.12131715 208.35025596 -33.56048677 210.11485621 -37 211.87890625 C-37.68450729 212.22962692 -38.36901459 212.5803476 -39.07426453 212.94169617 C-47.74503011 217.39429706 -56.30513133 222.04540921 -64.8203125 226.78808594 C-66.7499363 227.86096368 -68.68631374 228.92019879 -70.625 229.9765625 C-77.73586902 233.94921636 -83.87203064 238.64476578 -90 244 C-90.87914062 244.76828125 -91.75828125 245.5365625 -92.6640625 246.328125 C-95.13660944 248.52428451 -97.57532152 250.75120493 -100 253 C-100.88751953 253.80630859 -100.88751953 253.80630859 -101.79296875 254.62890625 C-112.18120758 264.47429175 -120.13299769 276.53856118 -127 289 C-127.47614746 289.86334961 -127.95229492 290.72669922 -128.44287109 291.61621094 C-133.89143173 301.58591764 -139.11116066 311.59500725 -143.25 322.1875 C-143.53762207 322.92331299 -143.82524414 323.65912598 -144.12158203 324.41723633 C-145.40199499 327.85240138 -146 330.28488465 -146 334 C-145.49774902 333.65332275 -144.99549805 333.30664551 -144.47802734 332.94946289 C-116.46528453 313.63682541 -90.8342497 299.26744408 -57 293 C-55.58618042 292.72953857 -55.58618042 292.72953857 -54.14379883 292.45361328 C-47.81860814 291.54096249 -41.38159271 291.75505598 -35 291.75 C-34.24045013 291.74932526 -33.48090027 291.74865051 -32.69833374 291.74795532 C11.31003498 291.80998385 11.31003498 291.80998385 26 304 C26.65625 306.4765625 26.65625 306.4765625 26 309 C24.09375 311.2109375 24.09375 311.2109375 21.5 313.375 C20.58605469 314.15359375 19.67210937 314.9321875 18.73046875 315.734375 C17.82941406 316.48203125 16.92835938 317.2296875 16 318 C5.22228732 327.2653871 -2.88319922 336.35839975 -9.9375 348.8125 C-10.27418701 349.40603271 -10.61087402 349.99956543 -10.95776367 350.61108398 C-12.60532074 353.52193857 -14.2423449 356.43744016 -15.86328125 359.36328125 C-27.34747215 379.2169032 -45.99241062 391.53569804 -67.875 397.75 C-74.48766294 399.42205906 -81.14751805 400.80859287 -88 400 C-90.58110626 397.41889374 -90.38658571 396.22590373 -90.5 392.625 C-90.3469701 382.83108645 -85.47059155 375.08014003 -79 368 C-76.87464936 366.29266213 -74.80109606 364.72251024 -72.5625 363.1875 C-71.95631836 362.76154541 -71.35013672 362.33559082 -70.72558594 361.89672852 C-67.05556541 359.34105795 -63.31726407 356.91752832 -59.52539062 354.54760742 C-52.72329051 350.29442408 -46.74818782 345.6149856 -41 340 C-40.30777344 339.33484375 -39.61554688 338.6696875 -38.90234375 337.984375 C-36.26064201 335.40234209 -34.05927426 333.08891139 -32 330 C-55.75300289 330.52152302 -78.74700038 339.76129703 -95.84375 356.1171875 C-98 358 -98 358 -100.15625 359.0078125 C-102.54565411 360.2936359 -102.90330834 361.5559443 -104 364 C-105.07153019 365.40058277 -106.1806991 366.77265546 -107.3125 368.125 C-118.98863535 382.59416773 -128.75397513 397.93781522 -138.1875 413.94287109 C-147.03050212 428.85829035 -156.44446425 443.40788741 -165.96289062 457.89794922 C-169.27905811 462.9477124 -172.5864912 468.00318238 -175.89343262 473.05899048 C-176.96233343 474.69243954 -178.03241479 476.32511588 -179.10253906 477.95776367 C-179.76995117 478.97717041 -180.43736328 479.99657715 -181.125 481.046875 C-181.79015625 482.03059082 -182.4553125 483.01430664 -183.140625 484.02783203 C-185.07040794 486.95948181 -185.07040794 486.95948181 -186.421875 490.18701172 C-187.99791444 493.4836668 -189.22347156 495.60847143 -192 498 C-198.04506129 499.36440255 -203.85115236 498.98255127 -210 498.625 C-211.71089991 498.56612296 -213.42202291 498.51341309 -215.13330078 498.46679688 C-217.69013122 498.39588774 -220.24603683 498.32075799 -222.80203247 498.22406006 C-229.85815446 497.95738695 -236.82213712 498.10753488 -243.875 498.5 C-244.82375 498.54850098 -245.7725 498.59700195 -246.75 498.64697266 C-248.83377769 498.75649843 -250.91699238 498.87669299 -253 499 C-242.11849365 513.59032008 -242.11849365 513.59032008 -231 528 C-230.35417969 529.03125 -229.70835938 530.0625 -229.04296875 531.125 C-225.00822244 535.85645408 -218.54500489 536.59091908 -212.75 537.875 C-212.09059418 538.02508514 -211.43118835 538.17517029 -210.75180054 538.32980347 C-198.31233945 541.08892718 -186.02297109 541.62359976 -173.3125 541.5625 C-172.43758911 541.55917664 -171.56267822 541.55585327 -170.66125488 541.5524292 C-141.6339368 541.33214294 -119.94569731 530.66597074 -95.74267578 515.4465332 C-86.30205269 509.51741329 -76.71136259 503.85076519 -67.11352539 498.18139648 C-65.74227628 497.37105616 -64.37110083 496.56059118 -63 495.75 C-62.32533188 495.35116104 -61.65066376 494.95232208 -60.95555115 494.54139709 C-56.55461517 491.93463189 -52.17674377 489.29266995 -47.8125 486.625 C-46.6997168 485.94743652 -45.58693359 485.26987305 -44.44042969 484.57177734 C-42.39519183 483.32378785 -40.35379862 482.06946258 -38.31738281 480.80712891 C-15.94156475 467.18587891 7.09258784 465.39825534 32.37109375 471.140625 C49.36075041 475.36075041 49.36075041 475.36075041 54 480 C53.625 482.625 53.625 482.625 53 485 C51.88625 484.938125 50.7725 484.87625 49.625 484.8125 C39.38137177 484.87488643 30.52173528 490.00938216 21.6875 494.6875 C20.55376953 495.27466797 19.42003906 495.86183594 18.25195312 496.46679688 C11.39625986 500.05675819 4.79809807 503.93138646 -1.7644043 508.02905273 C-7.14071942 511.30400875 -12.68780182 514.24304037 -18.25 517.1875 C-19.46520811 517.83449104 -20.68029353 518.48171258 -21.89526367 519.12915039 C-32.06308181 524.53857693 -42.28212484 529.84939556 -52.5078125 535.1484375 C-69.36955885 543.89135318 -86.01270103 553.04717903 -102.65234375 562.20385742 C-104.29786038 563.10801422 -105.94499537 564.00923205 -107.59375 564.9074707 C-111.80795333 567.20950431 -115.97481592 569.56497165 -120.09765625 572.02734375 C-120.95020996 572.52484131 -121.80276367 573.02233887 -122.68115234 573.53491211 C-124.27068534 574.46407512 -125.84948711 575.4120532 -127.41259766 576.38500977 C-141.9732959 584.79389969 -161.28808 583.81762154 -177.5625 584.6875 C-179.82622192 584.81749077 -182.08989443 584.94834507 -184.35351562 585.08007812 C-186.52860235 585.20389135 -188.70373131 585.32696511 -190.87890625 585.44921875 C-192.37750938 585.53353401 -192.37750938 585.53353401 -193.90638733 585.61955261 C-208.98823529 586.42310719 -208.98823529 586.42310719 -215.1875 585.25 C-215.98542969 585.11078125 -216.78335937 584.9715625 -217.60546875 584.828125 C-223.19943118 582.8935083 -226.31890494 578.60516322 -229.4375 573.8125 C-229.85580078 573.17812012 -230.27410156 572.54374023 -230.70507812 571.89013672 C-236.09381926 563.54069835 -240.80583017 554.78875317 -245.61328125 546.09765625 C-249.92469582 538.30677 -254.41969069 530.6350625 -259 523 C-259.43376953 522.27264648 -259.86753906 521.54529297 -260.31445312 520.79589844 C-266.47186931 510.46424856 -266.47186931 510.46424856 -273.17578125 500.484375 C-273.69019775 499.7612915 -274.20461426 499.03820801 -274.73461914 498.29321289 C-275.72091375 496.92269718 -276.72081331 495.56183729 -277.73608398 494.21264648 C-280.9967825 489.70034276 -280.9967825 489.70034276 -281.01171875 486.44921875 C-277.29200829 477.44435984 -271.58873708 469.26116601 -266.13061523 461.23193359 C-261.63180025 454.56171307 -257.49552598 447.6793657 -253.34033203 440.79174805 C-248.9139353 433.46465135 -244.37998924 426.21435977 -239.73095703 419.02636719 C-237.43391625 415.43968951 -235.3806097 412.0615611 -234 408 C-234.48726562 407.42636719 -234.97453125 406.85273437 -235.4765625 406.26171875 C-246.84703073 392.63783045 -257.18832878 378.25231579 -266.59619141 363.21191406 C-268.0456696 360.92804059 -269.5404515 358.67896482 -271.04296875 356.4296875 C-297.86667653 315.57232972 -297.86667653 315.57232972 -298.01953125 300.01171875 C-296.37856227 296.77379145 -293.53785679 294.93509017 -290.6875 292.8125 C-289.74124756 292.08740234 -289.74124756 292.08740234 -288.77587891 291.34765625 C-285.8160917 289.08748214 -282.82593944 286.87218431 -279.82421875 284.66796875 C-263.99641464 273.03296043 -251.26080834 259.27704553 -239 244 C-237.95661611 242.7128222 -236.91228325 241.42641328 -235.8671875 240.140625 C-235.31699951 239.46370605 -234.76681152 238.78678711 -234.19995117 238.08935547 C-233.06292267 236.6918702 -231.92505878 235.29506423 -230.78637695 233.89892578 C-228.4300158 231.00695022 -226.0869473 228.11212032 -223.80078125 225.1640625 C-212.68994592 210.97537298 -199.40955925 198.74459691 -185 188 C-183.03523399 186.44559651 -181.07622652 184.88386589 -179.125 183.3125 C-177.75011989 182.20818405 -176.37514203 181.10398977 -175 180 C-176.94295188 171.68539075 -179.3101037 163.62225106 -182.125 155.5625 C-182.51824463 154.43650391 -182.91148926 153.31050781 -183.31665039 152.15039062 C-189.42980255 134.90748005 -196.76490442 118.79027825 -206 103 C-206.66 103 -207.32 103 -208 103 C-216.51339178 120.69094888 -220.72737828 139.58092515 -223 159 C-223.09716309 159.73508789 -223.19432617 160.47017578 -223.29443359 161.22753906 C-223.91655825 166.41951135 -224.03719731 171.54135014 -224 176.765625 C-224.00054077 178.87598586 -224.00395848 180.9863234 -224.00830078 183.09667969 C-224.00273884 184.53951394 -223.9827351 185.98236047 -223.94873047 187.42480469 C-223.68953045 199.50079711 -223.68953045 199.50079711 -226.89013672 203.16235352 C-229.19592477 204.67664882 -231.49946129 205.84356749 -234 207 C-243.63086083 214.88343317 -252.74436015 223.94242648 -260.1875 233.9375 C-262.13109752 236.14917993 -263.11411219 236.69079773 -266 237 C-269.46484463 232.43067163 -269.43806669 228.62154849 -269.3984375 223.125 C-269.4025766 222.25603088 -269.4067157 221.38706177 -269.41098022 220.49176025 C-269.4171723 217.66081783 -269.39821633 214.83084473 -269.375 212 C-269.37101196 211.03348511 -269.36702393 210.06697021 -269.36291504 209.07116699 C-269.28281563 192.54262025 -268.37494385 176.37380471 -266 160 C-265.86078125 159.00774414 -265.7215625 158.01548828 -265.578125 156.99316406 C-261.52657633 128.92305949 -252.72583295 102.50898315 -243 76 C-241.88798757 72.95565282 -240.77684836 69.91098872 -239.66601562 66.86621094 C-239.02099891 65.10046159 -238.37391121 63.33546718 -237.72460938 61.57128906 C-235.84595974 56.43932028 -234.09538836 51.28005819 -232.41625977 46.07958984 C-227.96853603 32.3154302 -222.61636806 18.87679226 -216 6 C-213.71850586 6.16381836 -213.71850586 6.16381836 -211 7 C-209.18579102 9.30297852 -209.18579102 9.30297852 -207.50390625 12.37890625 C-206.8701709 13.51553711 -206.23643555 14.65216797 -205.58349609 15.82324219 C-204.9097582 17.06962225 -204.2360947 18.31604254 -203.5625 19.5625 C-202.85428069 20.84252688 -202.14413235 22.12148821 -201.43212891 23.39941406 C-199.97928126 26.00866749 -198.53320629 28.62149798 -197.09130859 31.23681641 C-194.10873289 36.62667732 -190.99542449 41.93910239 -187.875 47.25 C-186.72635214 49.21341861 -185.57791428 51.1769601 -184.4296875 53.140625 C-183.86475586 54.10548828 -183.29982422 55.07035156 -182.71777344 56.06445312 C-179.8063929 61.03978564 -176.90371153 66.02018925 -174 71 C-172.82945748 73.00652815 -171.65888461 75.01303859 -170.48828125 77.01953125 C-168.19316064 80.95393232 -165.89894529 84.88885909 -163.60546875 88.82421875 C-157.45458469 99.37689527 -151.29418923 109.92397109 -145.12002563 120.46304321 C-144.38546109 121.71699278 -143.65106006 122.97103814 -142.9168396 124.22518921 C-141.88261049 125.99159531 -140.84763656 127.75756306 -139.8125 129.5234375 C-138.84763672 131.17037598 -138.84763672 131.17037598 -137.86328125 132.85058594 C-135.62954594 136.62616056 -133.34236061 140.36752791 -131.03125 144.09619141 C-130 146 -130 146 -130 148 C-129.29955566 147.99476318 -128.59911133 147.98952637 -127.87744141 147.98413086 C-107.56291974 147.85464504 -87.30105445 148.29964249 -67 149 C-66.78085938 147.86046875 -66.56171875 146.7209375 -66.3359375 145.546875 C-58.94488612 108.17212601 -42.50210841 74.87167628 -24.15234375 41.7421875 C-21.76245676 37.41806991 -19.4345845 33.06461611 -17.12890625 28.6953125 C-16.45765747 27.4270534 -15.78635213 26.15882423 -15.11499023 24.890625 C-14.13146883 23.0322543 -13.15006244 21.17294709 -12.17605591 19.30957031 C-8.58792886 12.44769277 -4.93517368 5.98801073 0 0 Z M-253 323 C-236.81512292 354.91378282 -236.81512292 354.91378282 -210 377 C-208.00915338 377.3842406 -206.00915019 377.72718753 -204 378 C-204.48294226 362.56250085 -205.36125836 351.20948211 -216.88183594 339.81445312 C-220.6201346 336.61216685 -224.87011313 334.50876362 -229.25 332.3125 C-230.12785156 331.85294922 -231.00570313 331.39339844 -231.91015625 330.91992188 C-242.00180861 325.38011082 -242.00180861 325.38011082 -253 323 Z " fill="#25292E" transform="translate(1339,524)"/>
<path d="M0 0 C1.32 0 2.64 0 4 0 C6 2.4921875 6 2.4921875 8 5.875 C8.66 6.96554687 9.32 8.05609375 10 9.1796875 C18.24415232 24.23413884 22.07788615 42.29178083 25.375 59 C25.53033203 59.76159424 25.68566406 60.52318848 25.84570312 61.30786133 C28.56563645 76.04238601 28.17204803 91.3854029 28.203125 106.3125 C28.20595238 107.2465567 28.20877975 108.1806134 28.21169281 109.14297485 C28.22653865 114.07741563 28.2358624 119.01182823 28.24023438 123.94628906 C28.24572736 128.98539304 28.26981549 134.02422805 28.29820633 139.06324768 C28.31699067 142.99451421 28.32204642 146.92571756 28.32357025 150.85702515 C28.32655688 152.71301763 28.33444635 154.56901011 28.34775543 156.42495728 C28.42692791 168.30279925 27.51670106 179.38563732 25 191 C24.67692368 192.50738739 24.67692368 192.50738739 24.34732056 194.04522705 C23.76852074 196.62553486 23.15130233 199.19195386 22.51171875 201.7578125 C22.28603714 202.67480927 22.06035553 203.59180603 21.82783508 204.53659058 C21.35607617 206.44424568 20.88132707 208.35116385 20.40356445 210.25732422 C19.68731297 213.125749 18.98883177 215.99813601 18.29101562 218.87109375 C15.62629089 229.67005792 12.48929679 239.81623581 8 250 C7.51088135 251.13920898 7.0217627 252.27841797 6.51782227 253.45214844 C-4.54930506 279.01258994 -16.41644298 303.84233955 -32 327 C-32.42764648 327.64211426 -32.85529297 328.28422852 -33.29589844 328.94580078 C-42.49803544 342.73357941 -52.56727268 355.80448482 -63.48681641 368.26464844 C-65.56082624 370.64316762 -67.60569678 373.04601045 -69.65185547 375.44848633 C-75.00166931 381.7245239 -80.42377151 387.92322816 -86 394 C-86.53415527 394.58458984 -87.06831055 395.16917969 -87.61865234 395.77148438 C-100.03130862 409.33250846 -100.03130862 409.33250846 -105.87890625 414.19921875 C-108.83631491 416.71002058 -111.65963955 419.3582999 -114.5 422 C-118.61549028 425.81730871 -122.75799486 429.58633719 -127.01171875 433.25 C-128.47435153 434.53734673 -129.9109172 435.8544617 -131.33203125 437.1875 C-138.75119051 444.12836264 -146.66150375 450.2266886 -154.77832031 456.32226562 C-156.9549427 457.96597431 -159.11656525 459.62735861 -161.2734375 461.296875 C-176.39389766 472.99650349 -191.76240431 483.84145163 -208.31323242 493.44116211 C-210.24916389 494.56437178 -212.17821278 495.69947403 -214.1027832 496.84204102 C-223.41533565 502.29706185 -232.99625039 506.9616042 -242.8125 511.4375 C-244.02663071 511.99301544 -244.02663071 511.99301544 -245.26528931 512.55975342 C-276.95605848 527.01614828 -309.64591476 536.37275173 -344 542 C-344.9862738 542.16886719 -345.97254761 542.33773437 -346.9887085 542.51171875 C-356.18825494 543.97516773 -365.1996272 544.32666899 -374.484375 544.3359375 C-376.03550326 544.34239194 -377.5866304 544.34912207 -379.13775635 544.35610962 C-382.36823339 544.36798484 -385.59860429 544.37180058 -388.82910156 544.37060547 C-392.10276396 544.37044299 -395.37586636 544.38433608 -398.64941406 544.41162109 C-433.3085628 544.69589317 -433.3085628 544.69589317 -448 540 C-449.68681885 539.50741699 -449.68681885 539.50741699 -451.40771484 539.00488281 C-454.56999109 538.04985535 -457.68977207 537.01429426 -460.8125 535.9375 C-461.93342041 535.55682373 -463.05434082 535.17614746 -464.20922852 534.78393555 C-473.00234778 531.76337056 -481.73302284 528.57825412 -490.4375 525.3125 C-491.61481689 524.87349365 -492.79213379 524.4344873 -494.00512695 523.98217773 C-504.03787422 520.15926022 -513.74404335 515.83022369 -522.625 509.75 C-523.60726562 509.08484375 -524.58953125 508.4196875 -525.6015625 507.734375 C-528 506 -528 506 -530 504 C-530.125 501.375 -530.125 501.375 -530 499 C-523.36470135 494.99125406 -514.59964112 497.9968344 -507.43481445 499.51171875 C-458.99329335 509.44934461 -405.14089988 497.55942438 -360.75 478.1875 C-359.9903595 477.85946381 -359.23071899 477.53142761 -358.44805908 477.19345093 C-342.20352248 470.14472621 -327.70489908 461.21649819 -314 450 C-313.45166504 449.55462891 -312.90333008 449.10925781 -312.33837891 448.65039062 C-298.67449934 437.47980474 -285.62733484 425.12952474 -275 411 C-273.824375 409.45699219 -273.824375 409.45699219 -272.625 407.8828125 C-243.28061023 368.57403841 -221.72792867 318.33129687 -220 269 C-219.95697754 267.85700439 -219.95697754 267.85700439 -219.91308594 266.69091797 C-219.05154907 239.73790077 -221.92408877 212.50458519 -225.4375 185.8125 C-225.58328995 184.67152863 -225.58328995 184.67152863 -225.73202515 183.50750732 C-227.64620167 168.72915469 -231.65709096 155.89750381 -238.25 142.5 C-238.82194092 141.31962158 -239.39388184 140.13924316 -239.9831543 138.9230957 C-243.4808754 131.79598967 -247.15460611 124.98527416 -251.70703125 118.48046875 C-253.27309016 115.47609592 -253.24877787 113.3414283 -253 110 C-241.68712427 105.2366839 -228.96062045 108.95955658 -217.97265625 113.15625 C-215.95609827 114.04825037 -213.97224152 115.01387924 -212 116 C-211.04480469 115.26394531 -210.08960938 114.52789063 -209.10546875 113.76953125 C-193.6907515 102.06498663 -193.6907515 102.06498663 -186 100 C-183.69921875 100.390625 -183.69921875 100.390625 -182 101 C-182 102.32 -182 103.64 -182 105 C-181.34 105 -180.68 105 -180 105 C-166.7095332 119.83586992 -159.35892778 138.55973128 -151.98046875 156.75366211 C-151.19456407 158.92716968 -151.19456407 158.92716968 -150 160 C-149.52691406 159.01902344 -149.05382813 158.03804687 -148.56640625 157.02734375 C-140.98343719 141.46864673 -132.87427458 127.6790828 -121 115 C-120.3817334 114.33790527 -119.7634668 113.67581055 -119.12646484 112.99365234 C-110.47708938 103.82673759 -101.61676294 95.81415765 -91 89 C-89.69095703 88.12794922 -89.69095703 88.12794922 -88.35546875 87.23828125 C-86 86 -86 86 -82 86 C-80.68293772 90.76834227 -81.10812899 95.14266531 -81.5625 100 C-81.64983398 100.93497314 -81.73716797 101.86994629 -81.82714844 102.83325195 C-84.38922583 127.7977399 -89.07971421 152.63357315 -95 177 C-95.28037109 178.18625977 -95.56074219 179.37251953 -95.84960938 180.59472656 C-100.41832619 199.83275599 -106.26834929 218.39050915 -112.89352417 237.00759888 C-114.29763927 240.96255001 -115.64608205 244.93075035 -116.94847107 248.9203186 C-119.19874079 255.80913232 -121.69962449 262.49578938 -124.625 269.125 C-125.05248535 270.09800049 -125.4799707 271.07100098 -125.92041016 272.07348633 C-137.1172663 297.18004851 -150.69639235 323.72007993 -169.9921875 343.62109375 C-175.51297383 350.16225887 -177.52564956 357.33971407 -179.875 365.4375 C-182.86356332 375.46550885 -186.12446389 385.2817996 -190 395 C-171.24238493 385.70979119 -158.14601309 372.61424717 -144.62109375 356.86328125 C-142.70537689 354.66136091 -140.72516424 352.52372876 -138.75 350.375 C-133.16618859 344.1707651 -128.07087772 337.62200652 -123 331 C-122.14462646 329.88939209 -122.14462646 329.88939209 -121.27197266 328.75634766 C-107.40471175 310.71062773 -94.53219966 292.20267389 -84 272 C-83.51789063 271.08347656 -83.03578125 270.16695312 -82.5390625 269.22265625 C-65.48165945 236.62310168 -53.98821891 202.20429967 -53.796875 165.05859375 C-53.78986069 164.14132507 -53.78284637 163.2240564 -53.77561951 162.2789917 C-53.7582044 159.33177729 -53.75176624 156.38476399 -53.75 153.4375 C-53.74932526 152.42934235 -53.74865051 151.42118469 -53.74795532 150.38247681 C-53.76427465 135.03605347 -54.29126639 120.14064778 -57 105 C-57.16628906 104.00887207 -57.33257813 103.01774414 -57.50390625 101.99658203 C-59.86037394 88.20470028 -63.57690999 75.49087558 -68.93408203 62.57763672 C-70.03037762 59.92653988 -71.09526206 57.26461428 -72.15234375 54.59765625 C-73.47330101 51.26604642 -74.8004361 47.93720291 -76.140625 44.61328125 C-76.43904297 43.86643066 -76.73746094 43.11958008 -77.04492188 42.35009766 C-77.73169583 40.66019835 -78.4385849 38.97842261 -79.15820312 37.30224609 C-79.53396484 36.41230957 -79.90972656 35.52237305 -80.296875 34.60546875 C-80.64588867 33.7961792 -80.99490234 32.98688965 -81.35449219 32.15307617 C-82 30 -82 30 -81 27 C-79.33959961 26.31152344 -79.33959961 26.31152344 -77.15234375 25.859375 C-76.33169434 25.67971191 -75.51104492 25.50004883 -74.66552734 25.31494141 C-73.76527832 25.12851074 -72.8650293 24.94208008 -71.9375 24.75 C-55.49892653 21.08216989 -39.42849783 16.4685297 -23.70141602 10.42993164 C-16.28619791 7.62541175 -8.73027821 5.71665488 -1 4 C-0.67 2.68 -0.34 1.36 0 0 Z " fill="#393F46" transform="translate(1413,1030)"/>
<path d="M0 0 C1.09727417 0.13377045 2.19454834 0.26754089 3.32507324 0.40536499 C21.81829027 2.68150748 39.8521549 5.63809371 57.875 10.4375 C58.848927 10.69593689 58.848927 10.69593689 59.8425293 10.95959473 C90.90861155 19.24651828 114.66421204 32.71239383 138.9375 53.625 C155.52184542 67.84742514 173.67485084 80.66123674 192.234375 92.16796875 C192.87971191 92.56967285 193.52504883 92.97137695 194.18994141 93.38525391 C195.84986699 94.4075388 197.5220366 95.40987274 199.1953125 96.41015625 C204.61307635 100.5090184 206.47673704 105.27015064 207.5625 111.7265625 C208.47768511 119.66579336 209.25453678 129.73890654 204.36376953 136.53857422 C200.81072824 139.24953706 197.50666126 138.91857555 193.2265625 138.79296875 C192.37758392 138.78493729 191.52860535 138.77690582 190.65390015 138.76863098 C187.93529573 138.73966992 185.21811322 138.68358626 182.5 138.625 C178.95061168 138.56816612 175.40115761 138.52224348 171.8515625 138.48046875 C170.98292572 138.46901321 170.11428894 138.45755768 169.21932983 138.445755 C163.2104671 138.38819639 157.2952842 138.67634151 151.30517578 139.17749023 C121.17662685 141.46125569 91.63895969 137.81933575 61.875 133.4375 C60.94965454 133.30263184 60.02430908 133.16776367 59.07092285 133.02880859 C53.04315091 132.14964111 47.0197299 131.24514069 41 130.3125 C40.24960449 130.19670593 39.49920898 130.08091187 38.72607422 129.96160889 C29.65062496 128.54602624 20.6950708 126.82903008 11.75466919 124.71359253 C8.33329566 123.9158102 5.41152526 123.4375 1.875 123.4375 C6.19437404 133.78126415 12.40374582 141.24481519 19.875 149.4375 C20.7103125 150.37078125 21.545625 151.3040625 22.40625 152.265625 C23.88924104 153.92129308 25.37850484 155.57137138 26.875 157.21484375 C28.69194336 159.23406401 30.4401374 161.29580652 32.1875 163.375 C49.04833043 182.63347146 73.16875398 201.20244435 99.40234375 203.67578125 C109.48269445 203.98619724 114.47721624 199.1885207 121.58984375 192.6015625 C124.06959316 190.25321861 126.52392515 187.91565998 128.875 185.4375 C129.63490234 184.66986328 129.63490234 184.66986328 130.41015625 183.88671875 C137.16410111 176.70199836 141.84744249 167.94849178 146.5703125 159.3515625 C148.6076896 155.71415104 150.27992641 152.93339466 153.5 150.25 C158.63901451 149.01282984 163.74585125 149.13021 168.875 150.4375 C171.265625 152.01953125 171.265625 152.01953125 172.875 154.4375 C173.00401526 157.22054348 172.91684223 159.35728547 172.5 162.0625 C172.39550537 162.77962158 172.29101074 163.49674316 172.18334961 164.2355957 C170.3677653 174.95636133 163.72702054 182.04492603 156.79296875 190.0234375 C153.90677603 193.3627232 151.1969335 196.81989498 148.5 200.3125 C130.1314011 223.87172221 130.1314011 223.87172221 118.875 231.4375 C118.215 231.4375 117.555 231.4375 116.875 231.4375 C116.545 232.4275 116.215 233.4175 115.875 234.4375 C86.11043087 242.70177749 60.29274369 233.65471517 34.27099609 218.96777344 C15.69223235 208.21293102 -1.76063923 195.45603914 -17.125 180.4375 C-17.84429688 179.756875 -18.56359375 179.07625 -19.3046875 178.375 C-23.84813244 173.99066403 -27.8388793 169.26035147 -31.78515625 164.3359375 C-34.11739701 161.44691806 -36.52287046 158.6327873 -38.9375 155.8125 C-44.66062102 148.9572351 -49.77159161 141.71097721 -54.80761719 134.34130859 C-55.90603071 132.75394227 -57.04579745 131.19529212 -58.1953125 129.64453125 C-68.55183723 115.03858045 -71.5826116 95.78280043 -74.125 78.4375 C-74.228125 77.75768066 -74.33125 77.07786133 -74.4375 76.37744141 C-77.49639022 54.54461246 -73.47483414 35.09394785 -65.1315918 14.96362305 C-64.43668949 13.21970984 -63.79796055 11.45273145 -63.20629883 9.67114258 C-60.86417644 2.87647451 -60.86417644 2.87647451 -57.06640625 0.62109375 C-55.95136719 0.37488281 -54.83632813 0.12867188 -53.6875 -0.125 C-52.01880859 -0.52912109 -52.01880859 -0.52912109 -50.31640625 -0.94140625 C-49.26324219 -1.14636719 -48.21007812 -1.35132813 -47.125 -1.5625 C-46.03022339 -1.82232666 -46.03022339 -1.82232666 -44.91333008 -2.08740234 C-30.28812019 -4.57936088 -14.55096044 -1.80229047 0 0 Z M47.875 57.4375 C47.31117252 70.76053453 49.10366531 80.07137719 57.875 90.4375 C63.03408162 93.87688774 68.80954784 94.10310603 74.875 93.4375 C82.24873439 91.60193312 88.19665404 88.45962202 93.875 83.4375 C94.43316406 82.94894531 94.99132812 82.46039062 95.56640625 81.95703125 C97.18706569 80.35458998 97.18706569 80.35458998 97.3125 77.1875 C96.29258357 68.44535921 90.15821327 63.08996599 83.875 57.4375 C81.04978086 56.02489043 78.6678639 56.3077233 75.51171875 56.3046875 C73.59262695 56.30275391 73.59262695 56.30275391 71.63476562 56.30078125 C70.96614502 56.30287598 70.29752441 56.3049707 69.60864258 56.30712891 C67.58081481 56.31245192 65.55321125 56.3071945 63.52539062 56.30078125 C62.24212891 56.30207031 60.95886719 56.30335938 59.63671875 56.3046875 C58.46069092 56.30581543 57.28466309 56.30694336 56.07299805 56.30810547 C53.21448925 56.42376389 50.6523801 56.78012034 47.875 57.4375 Z " fill="#25292E" transform="translate(813.125,594.5625)"/>
<path d="M0 0 C7.45675809 1.75716403 12.92738262 4.50090296 19 9.125 C20.18033813 10.00430176 20.18033813 10.00430176 21.38452148 10.90136719 C27.23162468 15.30437553 32.75702973 19.88733747 38 25 C38.91749023 25.8650415 38.91749023 25.8650415 39.85351562 26.74755859 C50.04498831 36.36401665 58.81442743 46.30152314 66.62011719 57.9453125 C67.86153019 59.79381424 69.13161244 61.61738678 70.4140625 63.4375 C87.64634544 88.76834701 96.28782756 118.21609357 102 148 C102.17934082 148.92377441 102.35868164 149.84754883 102.54345703 150.79931641 C108.25201555 181.29220248 105.2605203 213.05453607 98 243 C97.63479248 244.52778076 97.63479248 244.52778076 97.26220703 246.08642578 C93.24050011 262.55393018 87.33808423 277.73541374 80 293 C79.66468262 293.70640625 79.32936523 294.4128125 78.98388672 295.140625 C72.80208298 307.9971562 63.7011372 318.64850723 54 329 C53.35933594 329.72832031 52.71867187 330.45664063 52.05859375 331.20703125 C51.16333984 332.18736328 51.16333984 332.18736328 50.25 333.1875 C49.73953125 333.75855469 49.2290625 334.32960938 48.703125 334.91796875 C47 336 47 336 44.79501343 335.93971252 C40.83199557 334.60730479 38.43586548 331.96911374 35.57666016 329.04663086 C34.95319199 328.42535309 34.32972382 327.80407532 33.68736267 327.16397095 C31.62816723 325.10708706 29.58362257 323.03626781 27.5390625 320.96484375 C26.10646565 319.52732063 24.67305273 318.09061037 23.23886108 316.65467834 C20.2319321 313.64010528 17.23158177 310.61919089 14.23632812 307.59301758 C10.41293071 303.73020578 6.57898874 299.87809338 2.74070168 296.03008175 C-0.93419198 292.34516238 -4.60415753 288.65535179 -8.2734375 284.96484375 C-8.96694683 284.26793867 -9.66045616 283.57103359 -10.37498093 282.85301018 C-17.12235102 276.06583061 -23.79988174 269.29725459 -30 262 C-31.2996568 260.60510973 -32.6093297 259.21933087 -33.9375 257.8515625 C-52.8420648 238.2113491 -52.8420648 238.2113491 -53.1875 231.1875 C-51.88796161 227.69926538 -50.7093464 225.55882716 -48 223 C-44.56143078 221.678898 -43.11928551 221.9552161 -39.62890625 223.265625 C-38.26921742 223.91836456 -36.91408874 224.58064916 -35.5625 225.25 C-5.02138099 239.49952073 30.85562099 253.26266522 65 249 C65.66 248.67 66.32 248.34 67 248 C68.546876 242.75780912 69.10733156 238.13948233 69.0546875 232.67578125 C69.04679199 231.60884033 69.03889648 230.54189941 69.03076172 229.44262695 C69.02061035 228.63656006 69.01045898 227.83049316 69 227 C68.38406982 226.93006836 67.76813965 226.86013672 67.13354492 226.78808594 C-21.33991479 216.66008521 -21.33991479 216.66008521 -33 205 C-34.18446598 198.30391676 -34.18611588 191.7092166 -34.18530273 184.92919922 C-34.18750196 182.87316561 -34.2057408 180.8176587 -34.22460938 178.76171875 C-34.22654297 177.45589844 -34.22847656 176.15007812 -34.23046875 174.8046875 C-34.23457764 173.61858887 -34.23868652 172.43249023 -34.24291992 171.21044922 C-34.00094201 168.01244974 -33.51338557 165.81868465 -32 163 C-29.4453125 162.06640625 -29.4453125 162.06640625 -26.125 161.5625 C2.36172476 156.30653957 36.2609894 144.12128264 55 120.625 C59.22162175 113.89322478 62.41993401 105.97874623 62 98 C61.48695313 98.44988281 60.97390625 98.89976563 60.4453125 99.36328125 C35.31269952 120.47636858 3.76374753 133.42073474 -27.6875 141.5625 C-28.70671539 141.82708511 -28.70671539 141.82708511 -29.746521 142.09701538 C-42.86209088 145.46916395 -42.86209088 145.46916395 -47 145 C-48.84956657 142.92995529 -50.26261703 141.0588138 -51.75 138.75 C-52.62493634 137.45870898 -53.50126485 136.16836027 -54.37890625 134.87890625 C-55.03463623 133.90074951 -55.03463623 133.90074951 -55.70361328 132.90283203 C-58.95136499 128.13579308 -62.51407825 123.59359782 -66 119 C-66.61746094 118.16339844 -67.23492188 117.32679687 -67.87109375 116.46484375 C-70.65059404 112.75677988 -73.29134574 109.62892741 -76.9375 106.75 C-79.90776188 104.3228334 -79.90776188 104.3228334 -80.75 101.375 C-79.7135367 98.09286622 -77.67153469 97.12162755 -75 95 C-73.76496309 93.58169954 -72.5781084 92.12029423 -71.4375 90.625 C-68.14061444 86.406471 -64.74346964 82.30517138 -61.25 78.25 C-60.74154541 77.65856201 -60.23309082 77.06712402 -59.70922852 76.45776367 C-57.11860138 73.44813005 -54.51932783 70.44618482 -51.9140625 67.44921875 C-45.80202683 60.3992798 -39.96075665 53.21858219 -34.34228516 45.76757812 C-32.90185404 43.87075723 -31.44294733 41.98924341 -29.98046875 40.109375 C-23.33234742 31.53813422 -16.96851323 22.8180742 -10.84472656 13.86303711 C-7.47948648 8.97369907 -3.94403728 4.43778554 0 0 Z " fill="#25292E" transform="translate(1029,1068)"/>
<path d="M0 0 C14.70788432 3.85780572 28.84961478 9.80068285 41 19 C41.78761719 19.57878906 42.57523438 20.15757812 43.38671875 20.75390625 C50.36340362 26.09308823 56.65507161 32.20223775 63.01953125 38.2421875 C65.98970949 41.05904321 68.99807466 43.82600323 72.03979492 46.56518555 C76.38072637 50.47738303 80.41689453 54.42947021 84.16015625 58.9140625 C86.02977406 61.03375658 88.01389516 62.9984234 90.04443359 64.96313477 C95.47254562 70.22827597 99.87390256 75.66051021 104 82 C104.91154305 83.33375664 105.82584546 84.66562963 106.7421875 85.99609375 C118.63363533 103.36555954 128.53548489 121.14284356 135.1875 141.1875 C135.4256543 141.88029053 135.66380859 142.57308105 135.90917969 143.28686523 C140.89546393 158.9957586 141.54745975 175.34309754 141.4375 191.6875 C141.43293793 193.13391876 141.43293793 193.13391876 141.42828369 194.60955811 C141.36399929 208.42098925 140.76244475 221.76228353 137.62841797 235.26708984 C136.95737354 238.18537708 136.36900824 241.11387107 135.78515625 244.05078125 C131.01912432 267.15524877 123.32301193 289.62386883 114.25 311.375 C113.8269458 312.39529297 113.4038916 313.41558594 112.96801758 314.46679688 C108.71035933 324.33476836 102.83095891 333.00508651 96.5625 341.6875 C91.57277002 348.67022891 86.79493836 355.77838748 82.0625 362.9375 C75.73006146 372.4986688 69.20756852 381.88325554 62.39599609 391.10888672 C61.11808766 392.84003026 59.84908965 394.57731689 58.58203125 396.31640625 C44.37810227 415.59855409 27.84958142 433.0637873 10 449 C9.01902344 449.88042969 8.03804687 450.76085938 7.02734375 451.66796875 C1.23557966 456.67899986 -4.84508024 461.09202729 -11.1875 465.375 C-11.92395752 465.87531738 -12.66041504 466.37563477 -13.41918945 466.89111328 C-27.04696849 475.89716536 -27.04696849 475.89716536 -34 475 C-34.33 473.68 -34.66 472.36 -35 471 C-34.01 470.67 -33.02 470.34 -32 470 C-31.29740215 468.34815906 -30.63664178 466.67836512 -30 465 C-28.80853436 463.28261796 -27.56709151 461.59928749 -26.2890625 459.9453125 C-22.02640285 454.19965454 -18.66938378 448.21266975 -15.375 441.875 C-14.15703365 439.56790811 -12.93692549 437.26194584 -11.71484375 434.95703125 C-10.79227783 433.21607178 -10.79227783 433.21607178 -9.85107422 431.43994141 C-7.5313454 427.12907632 -5.11519274 422.87818109 -2.6862793 418.62817383 C28.54720004 363.87474649 57.08987579 298.05577066 63 235 C63.14248169 233.57010742 63.14248169 233.57010742 63.2878418 232.11132812 C64.18672746 222.08216113 64.20081323 212.06104976 64.1875 202 C64.18609512 200.62939926 64.18609512 200.62939926 64.18466187 199.23110962 C64.15537473 186.05781306 64.00916388 173.04493538 62 160 C61.84402344 158.96262695 61.68804688 157.92525391 61.52734375 156.85644531 C54.05796721 108.54064483 38.16198082 49.28026122 3.3125 12.875 C-0.37362431 9.00533423 -1.09512626 6.32707083 -1 1 C-0.67 0.67 -0.34 0.34 0 0 Z " fill="#393F46" transform="translate(1417,962)"/>
<path d="M0 0 C2.29296875 0.18359375 2.29296875 0.18359375 5 1 C6.73828125 3.22265625 6.73828125 3.22265625 8.3125 6.0625 C11.12118309 10.77816314 14.08438721 14.37040444 18.05078125 18.1328125 C21.75803883 21.68405323 24.99962637 25.65754412 28.33056641 29.55810547 C35.2734674 37.6769877 42.35046451 45.6249834 49.7109375 53.36914062 C53.37963248 57.2349475 56.93892646 61.1737195 60.43261719 65.19848633 C62.32072004 67.36862822 64.25045828 69.4985071 66.1875 71.625 C70.39133139 76.2800092 74.4731291 81.03058566 78.53759766 85.80688477 C82.31498661 90.23485772 86.19452079 94.55537895 90.16015625 98.81640625 C92.12580438 101.14930923 93.72982672 103.21792495 95 106 C93.87019489 109.08889096 92.44718926 110.71777611 89.7890625 112.59375 C88.80353394 113.29371094 88.80353394 113.29371094 87.7980957 114.0078125 C87.08097412 114.50023437 86.36385254 114.99265625 85.625 115.5 C84.87114014 116.02335937 84.11728027 116.54671875 83.34057617 117.0859375 C70.87619958 125.62447592 57.76677867 133.11379363 44.5625 140.4375 C43.69987549 140.92154297 42.83725098 141.40558594 41.94848633 141.90429688 C30.38835365 148.22200549 18.24396814 152.00792801 5.5 155.125 C4.80500397 155.29742218 4.11000793 155.46984436 3.39395142 155.64749146 C-8.31397501 158.54056268 -19.99878713 160.75582552 -32 162 C-33.12294968 162.12820633 -33.12294968 162.12820633 -34.26858521 162.25900269 C-42.68808545 163.14115205 -51.08136206 163.16386769 -59.53515625 163.16796875 C-61.10648121 163.17118841 -62.67780589 163.17455299 -64.24913025 163.17805481 C-67.51757504 163.1839995 -70.78599355 163.18589906 -74.05444336 163.18530273 C-78.2476707 163.18520025 -82.440732 163.19896157 -86.63391972 163.21607494 C-89.86717004 163.22716074 -93.10037938 163.22922316 -96.33364677 163.22869301 C-97.88105286 163.22987409 -99.42845998 163.23430303 -100.97584724 163.24202538 C-103.12733104 163.25177557 -105.27844241 163.24896956 -107.42993164 163.24291992 C-108.65361954 163.24434494 -109.87730743 163.24576996 -111.13807678 163.24723816 C-114 163 -114 163 -116 161 C-115.63308716 159.18521118 -115.63308716 159.18521118 -115 157 C-114.91032888 155.34740928 -114.87212657 153.69164215 -114.87060547 152.03662109 C-114.86749359 151.0442897 -114.86438171 150.05195831 -114.86117554 149.02955627 C-114.86315948 147.95503708 -114.86514343 146.88051788 -114.8671875 145.7734375 C-114.86520859 144.08836342 -114.86520859 144.08836342 -114.8631897 142.36924744 C-114.86126881 138.70447047 -114.86762269 135.03976925 -114.875 131.375 C-114.87588623 130.12826508 -114.87677246 128.88153015 -114.87768555 127.59701538 C-114.89116605 111.49261322 -115.07677486 95.41363134 -115.63964844 79.31958008 C-115.94833452 70.39866497 -116.11082641 61.48890709 -116.125 52.5625 C-116.12951172 51.4485083 -116.13402344 50.3345166 -116.13867188 49.18676758 C-116.10455987 30.6568398 -116.10455987 30.6568398 -113 26 C-110.47205298 25.75590772 -108.19103719 25.69970097 -105.66796875 25.77734375 C-104.55880348 25.79225357 -104.55880348 25.79225357 -103.42723083 25.8074646 C-101.8394396 25.82896677 -100.25172055 25.85646329 -98.66412354 25.88931274 C-94.52764836 25.96979546 -90.39106072 25.99019203 -86.25390625 26.0078125 C-85.44141418 26.01156387 -84.62892212 26.01531525 -83.79180908 26.0191803 C-55.59762431 26.08084721 -30.54310022 19.43287204 -5.91015625 5.96801758 C-4 5 -4 5 -1 4 C-0.26676204 1.98491642 -0.26676204 1.98491642 0 0 Z " fill="#25292E" transform="translate(956,1317)"/>
<path d="M0 0 C2.16874252 0.50603992 3.99967627 0.99983813 6 2 C6.309375 2.969375 6.61875 3.93875 6.9375 4.9375 C10.37001108 13.3974263 20.23824286 19.33664558 27.23046875 24.8203125 C29.29217065 26.44292133 31.33271244 28.08148654 33.36328125 29.7421875 C41.92149591 36.71780529 50.75505502 43.16226445 59.81298828 49.47021484 C63.47933748 52.03477659 67.11852862 54.63635002 70.75 57.25 C71.48041504 57.77505127 72.21083008 58.30010254 72.96337891 58.84106445 C77.21497437 61.91880791 81.40512223 65.06435987 85.55859375 68.2734375 C86.96383301 69.3577002 86.96383301 69.3577002 88.39746094 70.46386719 C90.2147824 71.87154391 92.02692389 73.28594174 93.83300781 74.70800781 C98.40875016 78.25628963 102.54046695 81.03486361 108 83 C107.29227577 87.16672638 105.32010789 88.49075597 102.08984375 91.11328125 C98.74399867 94.1339227 96.04987672 97.63562494 93.25390625 101.16015625 C91.85534547 102.92229436 90.43007998 104.66399511 88.96484375 106.37109375 C79.90843568 117.04793269 73.27740767 129.69810085 69 143 C68.68160156 143.92941406 68.36320313 144.85882812 68.03515625 145.81640625 C66.38533877 151.52614324 65.92918554 156.147873 66.34765625 162.0625 C67.44493331 178.88617503 67.44493331 178.88617503 64.66992188 182.94580078 C61.27747459 185.96291758 57.39475433 187.70925876 53.13659668 189.18862915 C51.08779958 189.96665818 49.26158865 190.89190714 47.33886719 191.93798828 C42.86669701 194.19953476 38.38616762 195.37410749 33.515625 196.47265625 C32.61994812 196.68184189 31.72427124 196.89102753 30.80145264 197.10655212 C28.90994768 197.54575628 27.01727698 197.97996695 25.12353516 198.40942383 C22.29652831 199.05192538 19.47439629 199.71307157 16.65234375 200.37695312 C-1.94021576 204.69442639 -20.41328488 207.25989477 -39.4375 208.625 C-41.89107792 208.80597587 -44.34445879 208.98912311 -46.79762268 209.17562866 C-48.29991179 209.28938239 -49.80245734 209.39981959 -51.30528259 209.5062561 C-54.93949677 209.77675686 -58.44577009 210.18654254 -62 211 C-64.42377719 207.36433422 -64.40721877 204.46910451 -64.5625 200.25 C-64.62522713 198.8593261 -64.68908042 197.46870265 -64.75390625 196.078125 C-64.78798584 195.29655029 -64.82206543 194.51497559 -64.85717773 193.7097168 C-65.02627087 190.50157203 -65.27078571 187.30149338 -65.5078125 184.09765625 C-67.14404748 159.75011512 -67.41771078 134.89218933 -62 111 C-61.71044434 109.71899414 -61.71044434 109.71899414 -61.41503906 108.41210938 C-54.53792788 79.61632364 -39.54764733 48.10854421 -21 25 C-20.4627832 24.32582031 -19.92556641 23.65164063 -19.37207031 22.95703125 C-16.0781009 18.83633285 -12.75100342 14.74484208 -9.37988281 10.68701172 C-8.13361226 9.16335115 -6.93477046 7.60119511 -5.7421875 6.03515625 C-4.87980469 5.02775391 -4.87980469 5.02775391 -4 4 C-3.34 4 -2.68 4 -2 4 C-1.34 2.68 -0.68 1.36 0 0 Z " fill="#25292E" transform="translate(607,1008)"/>
<path d="M0 0 C3.35115304 1.69419404 4.32343881 4.86832574 5.859375 8.12890625 C15.7926789 27.92296145 29.43018504 45.7378559 43.109375 63.06640625 C43.57456543 63.65760254 44.03975586 64.24879883 44.51904297 64.85791016 C53.82009175 77.78106547 53.82009175 77.78106547 66.109375 87.06640625 C65.12516343 90.67518199 63.61902348 92.67622064 60.94140625 95.15625 C56.78374481 99.22861515 53.61177712 103.75975478 50.359375 108.56640625 C49.13031431 110.35383361 47.89983206 112.14028426 46.66796875 113.92578125 C46.06581543 114.80041016 45.46366211 115.67503906 44.84326172 116.57617188 C42.43309996 120.03768271 39.9372851 123.43101498 37.421875 126.81640625 C31.78961047 134.43658848 26.4324462 142.22815081 21.109375 150.06640625 C19.9749598 151.73404424 18.84054237 153.40168072 17.70608521 155.06929016 C15.61020373 158.15088465 13.515849 161.23351539 11.421875 164.31640625 C11.02009033 164.90787445 10.61830566 165.49934265 10.2043457 166.10873413 C9.41185534 167.27578673 8.61984802 168.44316749 7.82833862 169.61088562 C7.05447466 170.75106083 6.27855867 171.88984618 5.5005188 173.0271759 C3.57763633 175.84782833 1.71028803 178.68671302 -0.07666016 181.59570312 C-1.10799072 183.2440918 -1.10799072 183.2440918 -2.16015625 184.92578125 C-3.06084839 186.41029785 -3.06084839 186.41029785 -3.97973633 187.92480469 C-5.890625 190.06640625 -5.890625 190.06640625 -8.39160156 190.52539062 C-11.03214772 190.04041341 -12.43520621 189.41342693 -14.60546875 187.86328125 C-15.28432129 187.38391113 -15.96317383 186.90454102 -16.66259766 186.41064453 C-17.37722168 185.8845459 -18.0918457 185.35844727 -18.828125 184.81640625 C-19.57884277 184.2735498 -20.32956055 183.73069336 -21.10302734 183.17138672 C-33.8913631 173.79868689 -45.42740929 162.98963674 -56.890625 152.06640625 C-57.6846875 151.31488281 -58.47875 150.56335937 -59.296875 149.7890625 C-64.64253709 144.6024975 -69.26515188 138.89495073 -73.890625 133.06640625 C-74.79020537 131.94648667 -75.68995046 130.8266994 -76.58984375 129.70703125 C-86.06737698 117.85388932 -94.38583957 105.68175684 -101.63232422 92.34619141 C-102.96880748 89.92475549 -104.35027103 87.53286595 -105.73828125 85.140625 C-111.65402166 74.81549369 -116.70184623 64.30934596 -121.078125 53.25390625 C-121.78267822 51.49288574 -121.78267822 51.49288574 -122.50146484 49.69628906 C-124.91609309 43.41663204 -126.64393036 37.81174257 -126.890625 31.06640625 C-125.890625 30.06640625 -125.890625 30.06640625 -124.1328125 30.01269531 C-123.35164062 30.03557617 -122.57046875 30.05845703 -121.765625 30.08203125 C-114.76763189 30.14655175 -107.85036975 29.48444422 -100.890625 28.81640625 C-100.1932019 28.75016052 -99.49577881 28.68391479 -98.77722168 28.61566162 C-66.45196662 25.51188535 -27.94238685 0.98144747 0 0 Z " fill="#25292E" transform="translate(674.890625,1217.93359375)"/>
<path d="M0 0 C1.65971986 0.84836452 3.30370103 1.72773008 4.9375 2.625 C13.88362262 7.17998551 23.44985295 9.9879476 33 13 C34.18770996 13.37801758 34.18770996 13.37801758 35.39941406 13.76367188 C44.08381458 16.55626798 44.08381458 16.55626798 52.8828125 18.94921875 C53.91148437 19.29597656 54.94015625 19.64273437 56 20 C57.02681542 23.08044626 57.13272709 25.19968918 57.14526367 28.42773438 C57.15469749 30.11866211 57.15469749 30.11866211 57.1643219 31.84375 C57.16552536 33.08125 57.16672882 34.31875 57.16796875 35.59375 C57.17418495 37.54764648 57.17418495 37.54764648 57.18052673 39.54101562 C57.1920533 43.86068884 57.19016764 48.18031622 57.1875 52.5 C57.18755604 53.98673503 57.1876171 55.47347005 57.18768311 56.96020508 C57.18019218 79.73980059 56.84288032 102.50354458 56.18811417 125.27365112 C56.12494925 127.50179009 56.06522164 129.72999985 56.00619507 131.95825195 C55.89498229 136.10805917 55.76563389 140.25707723 55.6328125 144.40625 C55.59937241 145.64375 55.56593231 146.88125 55.53147888 148.15625 C55.49160355 149.28353516 55.45172821 150.41082031 55.41064453 151.57226562 C55.37955597 152.55376587 55.34846741 153.53526611 55.31643677 154.54650879 C55 157 55 157 53 160 C33.88466009 166.37177997 7.6921376 154.80706624 -10 148 C-11.07685059 147.58975586 -12.15370117 147.17951172 -13.26318359 146.75683594 C-57.83863433 129.63377236 -57.83863433 129.63377236 -73 115 C-74 112 -74 112 -72.83984375 109.3828125 C-67.69631669 100.57439039 -62.14637633 92.09193792 -56.44921875 83.6328125 C-51.25484226 75.9116074 -46.13446026 68.14182812 -41.01754761 60.36914062 C-39.42487773 57.95073727 -37.82980269 55.53393326 -36.23461914 53.1171875 C-30.92444519 45.05924032 -25.67519655 36.96641087 -20.51953125 28.80859375 C-20.03426971 28.04082611 -19.54900818 27.27305847 -19.04904175 26.48202515 C-10.66030297 13.99862136 -10.66030297 13.99862136 -6 0 C-3.42842428 -1.28578786 -2.69256233 -0.89591519 0 0 Z " fill="#25292E" transform="translate(765,1312)"/>
<path d="M0 0 C2.0625 0.4375 2.0625 0.4375 4 1 C4 1.66 4 2.32 4 3 C4.86141602 3.26699707 5.72283203 3.53399414 6.61035156 3.80908203 C9.99239961 4.99732968 13.04378634 6.42447034 16.234375 8.0546875 C17.4470516 8.66969744 18.65978176 9.28460179 19.87255859 9.89941406 C20.50409851 10.22139771 21.13563843 10.54338135 21.78631592 10.87512207 C35.31630438 17.76438546 48.99116392 24.27499275 62.81689453 30.55175781 C66.14135953 32.06431544 69.45996103 33.58916361 72.77734375 35.1171875 C74.95571086 36.11983143 77.13409563 37.12243702 79.3125 38.125 C80.31522949 38.58680664 81.31795898 39.04861328 82.35107422 39.52441406 C83.28322754 39.95206055 84.21538086 40.37970703 85.17578125 40.8203125 C85.98958252 41.19430176 86.80338379 41.56829102 87.6418457 41.95361328 C90.07203228 43.03196297 92.52563716 44.02784056 95 45 C94.41323699 49.14780747 92.03878679 52.08890864 89.625 55.375 C89.18091797 55.98786865 88.73683594 56.6007373 88.27929688 57.23217773 C84.22618517 62.78253158 79.99337866 68.18593341 75.71875 73.56640625 C73.10995984 76.85055437 70.54929798 80.16957162 68 83.5 C59.84035709 94.13786481 51.58787319 104.70309732 43 115 C42.5663916 115.51997559 42.1327832 116.03995117 41.68603516 116.57568359 C35.06429997 124.48582126 28.19089502 132.11278466 21.07568359 139.58276367 C18.48908352 142.30460855 16.0269793 144.96492691 13.734375 147.9453125 C12 150 12 150 9.25 150.3125 C8.13625 150.1578125 8.13625 150.1578125 7 150 C7 149.34 7 148.68 7 148 C6.45375977 147.7313916 5.90751953 147.4627832 5.34472656 147.18603516 C2.69682412 145.84664427 0.09175532 144.44015182 -2.515625 143.0234375 C-14.58084774 136.48491749 -26.63772102 129.96451077 -39 124 C-40.0209375 123.49855469 -41.041875 122.99710938 -42.09375 122.48046875 C-47.70594094 119.80542719 -52.89910581 118.18081823 -59 117 C-60 116 -60 116 -60.328125 113.47265625 C-59.88415103 108.77393168 -58.01908427 105.52049422 -55.75 101.4375 C-55.07553833 100.19021118 -55.07553833 100.19021118 -54.38745117 98.91772461 C-50.64142841 92.0370516 -46.73031311 85.25006884 -42.81323242 78.46582031 C-36.90425857 68.18593963 -31.36750822 57.70654999 -25.79740906 47.2409668 C-22.60496609 41.24757032 -19.36717217 35.27909395 -16.125 29.3125 C-11.90265904 21.54041473 -7.72026124 13.74958943 -3.62548828 5.90942383 C-1.10474054 1.10474054 -1.10474054 1.10474054 0 0 Z " fill="#25292E" transform="translate(917,1006)"/>
<path d="M0 0 C3.70292713 0.32488483 6.01281347 1.4267484 8.93359375 3.66015625 C9.65724121 4.20260986 10.38088867 4.74506348 11.12646484 5.30395508 C11.88910645 5.8842749 12.65174805 6.46459473 13.4375 7.0625 C51.69458471 35.29181275 94.76576032 40.73164783 141 36 C143.63190579 43.25697999 145.22189454 50.47966774 146.625 58.0625 C146.8415625 59.19494141 147.058125 60.32738281 147.28125 61.49414062 C147.69404302 63.68168883 148.09453967 65.87160382 148.48095703 68.06396484 C148.79863449 69.86094938 149.1381724 71.65445259 149.51513672 73.43994141 C150.13432591 76.76933949 150.36217085 78.46305018 148.4296875 81.328125 C115.10620096 106.39716992 71.16559844 121.8020142 30.08984375 127.546875 C27.65790079 127.90351897 25.36256353 128.33848221 23 129 C1.87463503 103.66408118 -4.47141615 58.09702283 -4.25 26.25 C-4.25773438 25.12207031 -4.26546875 23.99414062 -4.2734375 22.83203125 C-4.23042801 4.23042801 -4.23042801 4.23042801 0 0 Z " fill="#25292E" transform="translate(565,791)"/>
<path d="M0 0 C0.41666667 1.66666667 0.83333333 3.33333333 1.25 5 C1.53101563 6.10214844 1.81203125 7.20429687 2.1015625 8.33984375 C2.70065208 10.78048261 3.25807585 13.23172564 3.7734375 15.69140625 C7.32578339 31.83991441 14.23896856 46.39529535 25 59 C26.04414062 60.23363281 26.04414062 60.23363281 27.109375 61.4921875 C29.35102877 64.05290877 31.65472317 66.53379484 34 69 C34.47953125 69.5067627 34.9590625 70.01352539 35.453125 70.53564453 C49.2193662 84.99280504 64.09432574 96.63586927 83.2421875 103.11328125 C85 104 85 104 86 107 C85.49333053 109.00016612 84.89338752 110.97703297 84.25 112.9375 C82.09219801 120.06048652 80.93678722 127.14007388 79.95214844 134.50952148 C79.84032227 135.33782471 79.72849609 136.16612793 79.61328125 137.01953125 C79.51829346 137.76307861 79.42330566 138.50662598 79.32543945 139.27270508 C79 141 79 141 78 142 C51.58901187 146.64480793 24.13206904 144.43799516 -1 135 C-2.0530835 134.60723877 -2.0530835 134.60723877 -3.12744141 134.20654297 C-20.20532002 127.73472673 -35.93466634 118.84931135 -48.57421875 105.45703125 C-50.14714058 103.78415792 -50.14714058 103.78415792 -52.8125 101.8125 C-56.26676482 98.95039486 -56.8710735 97.13885073 -57.375 92.6875 C-56.97975564 80.10942948 -51.25391765 68.18005372 -46 57 C-45.54496094 56.01515625 -45.08992187 55.0303125 -44.62109375 54.015625 C-43.09330241 50.71272362 -41.54915903 47.41792876 -40 44.125 C-39.51402344 43.07908691 -39.02804687 42.03317383 -38.52734375 40.95556641 C-35.27184105 34.12660691 -31.50909097 28.06648044 -27 22 C-26.22010506 20.90583718 -25.44126697 19.8109193 -24.6640625 18.71484375 C-9.07359813 -2.52044393 -9.07359813 -2.52044393 0 0 Z " fill="#25292E" transform="translate(627,668)"/>
<path d="M0 0 C4.01671494 0.52352689 5.59104839 2.37654769 8.1875 5.375 C9.37085938 6.73625 9.37085938 6.73625 10.578125 8.125 C14.8826176 13.23484928 19.13427544 18.3887741 23.28759766 23.62255859 C24.59994638 25.27616632 25.92436469 26.91953593 27.25 28.5625 C28.03890625 29.55378906 28.8278125 30.54507813 29.640625 31.56640625 C32.04142725 34.04273042 33.7317026 35.02066975 37 36 C35.24374389 50.1002276 14.12630351 65.60233762 3.609375 73.89453125 C0.80028966 76.16114352 -1.84693029 78.55303034 -4.5 81 C-8.92154099 85.06456105 -13.46905563 88.90469122 -18.1484375 92.66796875 C-20.62426965 94.69272463 -23.03263359 96.77696784 -25.43579102 98.88671875 C-33.43950071 105.86232589 -42.10891721 111.76766814 -50.94604492 117.63330078 C-52.23043256 118.48793076 -53.51009672 119.34975266 -54.7824707 120.22216797 C-58.68600412 122.89221142 -61.15066127 124.32876873 -66 124 C-71.43702477 120.41716485 -75.62180407 115.40490362 -79.7890625 110.46484375 C-82.89139058 107.00624125 -86.19771721 103.76669268 -89.5 100.5 C-94.01946898 96.02494706 -98.43182495 91.5452152 -102.53515625 86.6796875 C-104.08943415 84.89744884 -105.73748631 83.26822036 -107.4375 81.625 C-111.07309386 78.06343407 -114.17515563 74.14660781 -117.30078125 70.13671875 C-118.97167964 67.95277482 -118.97167964 67.95277482 -121 66 C-120.625 62.375 -120.625 62.375 -120 59 C-119.33097656 58.85304688 -118.66195312 58.70609375 -117.97265625 58.5546875 C-89.22749147 51.8410517 -60.72542411 38.84036951 -35.55664062 23.54541016 C-32.56328494 21.73601926 -29.55558664 19.95170494 -26.546875 18.16796875 C-24.2810702 16.82061482 -22.01544477 15.47295919 -19.75 14.125 C-18.66589844 13.48232178 -17.58179688 12.83964355 -16.46484375 12.17749023 C-15.44003906 11.56462158 -14.41523437 10.95175293 -13.359375 10.3203125 C-12.44639648 9.77648926 -11.53341797 9.23266602 -10.59277344 8.67236328 C-7.90913902 7.00900502 -7.90913902 7.00900502 -5.29003906 4.79248047 C-3 3 -3 3 -1 3 C-0.67 2.01 -0.34 1.02 0 0 Z " fill="#25292E" transform="translate(722,883)"/>
<path d="M0 0 C7.04157985 2.60064608 13.43161076 6.04005264 19.9387207 9.73950195 C27.46295043 14.01579481 35.16378085 17.86607298 42.93359375 21.671875 C44.93449832 22.67006382 46.93482149 23.66942327 48.93359375 24.671875 C43.57446565 55.23030759 20.79235838 86.18495556 3.8581543 111.28491211 C-4.36422027 123.21987569 -4.36422027 123.21987569 -11.0859375 136.015625 C-12.06640625 137.671875 -12.06640625 137.671875 -15.50390625 138.609375 C-19.06640625 138.671875 -19.06640625 138.671875 -20.56364441 137.2991333 C-21.30751152 136.49364044 -21.30751152 136.49364044 -22.06640625 135.671875 C-23.77890455 134.60180419 -23.77890455 134.60180419 -25.6730957 133.69824219 C-26.38847 133.34066833 -27.1038443 132.98309448 -27.84089661 132.61468506 C-28.6126976 132.23652649 -29.3844986 131.85836792 -30.1796875 131.46875 C-30.98568893 131.0678717 -31.79169037 130.66699341 -32.62211609 130.25396729 C-35.20494625 128.97093342 -37.79180027 127.69626156 -40.37890625 126.421875 C-42.07775023 125.57998435 -43.77632086 124.73754185 -45.47460938 123.89453125 C-51.76083055 120.77634997 -58.04795663 117.66015841 -64.34912109 114.57226562 C-65.6234127 113.94409218 -66.8976666 113.31584222 -68.171875 112.6875 C-69.27039795 112.14899414 -70.3689209 111.61048828 -71.50073242 111.05566406 C-74.06640625 109.671875 -74.06640625 109.671875 -76.06640625 107.671875 C-76.50183123 104.22593106 -76.63497384 102.41311867 -74.484375 99.609375 C-73.74832031 98.97 -73.01226563 98.330625 -72.25390625 97.671875 C-61.22372007 87.32892783 -52.7033091 74.25582372 -43.82617188 62.08007812 C-42.12771077 59.75576897 -40.41846825 57.43976379 -38.70703125 55.125 C-27.70345581 40.17041592 -17.93048402 24.61865086 -8.98608398 8.34838867 C-8.51630127 7.5051001 -8.04651855 6.66181152 -7.5625 5.79296875 C-6.94652954 4.67039673 -6.94652954 4.67039673 -6.31811523 3.52514648 C-4.59985135 0.98109712 -3.18151348 -0.50519307 0 0 Z " fill="#25292E" transform="translate(843.06640625,971.328125)"/>
<path d="M0 0 C2.1875 0.3125 2.1875 0.3125 4 1 C4 1.66 4 2.32 4 3 C4.72574219 3.23976563 5.45148438 3.47953125 6.19921875 3.7265625 C9.40948928 5.18618341 11.28813518 6.9182166 13.8125 9.375 C18.47774494 13.73516081 23.32512308 17.67487042 28.4375 21.5 C29.46677612 22.2741626 29.46677612 22.2741626 30.5168457 23.06396484 C34.16580776 25.80803569 34.16580776 25.80803569 38.17211914 27.95898438 C38.77531982 28.30251953 39.37852051 28.64605469 40 29 C40.75 32.125 40.75 32.125 41 35 C40.41476562 35.22171875 39.82953125 35.4434375 39.2265625 35.671875 C36.3087074 37.41234997 35.18002156 39.37732739 33.375 42.25 C32.323125 43.88001953 32.323125 43.88001953 31.25 45.54296875 C30.88132812 46.11450684 30.51265625 46.68604492 30.1328125 47.27490234 C15.23950143 69.95510407 -1.52044651 92.20153415 -19.25 112.71484375 C-24.79557099 119.23212751 -29.85729947 126.16401633 -35 133 C-38.55247611 132.35749819 -40.95588511 130.89787381 -43.9375 128.89453125 C-44.90558594 128.24726074 -45.87367188 127.59999023 -46.87109375 126.93310547 C-48.41990234 125.88340576 -48.41990234 125.88340576 -50 124.8125 C-51.06347656 124.09723145 -52.12695312 123.38196289 -53.22265625 122.64501953 C-62.50583367 116.38108769 -71.77155772 110.07351569 -80.85546875 103.52246094 C-82.31401888 102.48699661 -83.79742685 101.48586953 -85.30078125 100.51660156 C-89.02379741 98.0153034 -90.72442202 96.73353556 -92.33984375 92.43359375 C-92 89 -92 89 -89.81640625 86.47265625 C-88.747624 85.64829794 -87.66138654 84.84627961 -86.5625 84.0625 C-80.11487439 79.06928667 -74.42308238 73.58271966 -68.73461914 67.74633789 C-64.90758585 63.84105216 -60.98370623 60.14832022 -56.8215332 56.60058594 C-54.96501393 54.96925765 -53.23149553 53.26292411 -51.5 51.5 C-49.32015669 49.28214143 -47.10530971 47.2115243 -44.72265625 45.21484375 C-38.51316671 39.81385917 -32.77065833 33.91935927 -26.96362305 28.09399414 C-24.94235732 26.0673702 -22.91580426 24.04614453 -20.88867188 22.02539062 C-12.33749147 13.50926054 -12.33749147 13.50926054 -4.29907227 4.51342773 C-2.92304163 2.91034299 -1.59378319 1.39027629 0 0 Z " fill="#25292E" transform="translate(777,933)"/>
<path d="M0 0 C0.02740022 1.85408125 0.04657422 3.70828469 0.0625 5.5625 C0.07410156 6.59503906 0.08570313 7.62757813 0.09765625 8.69140625 C0 12 0 12 -0.49121094 15.12402344 C-1.07225603 19.55044949 -1.19796314 23.86558312 -1.23828125 28.32421875 C-1.24802979 29.21569611 -1.25777832 30.10717346 -1.26782227 31.02566528 C-1.55931669 64.64043789 -0.93455489 98.50322865 19.71875 126.8125 C23.36313897 131.90465993 24.01511846 136.87024624 23 143 C21.27887551 145.77838668 20.01588468 146.35497199 17 148 C4.46233259 150.00602679 -9.59329911 142.61406976 -19.53125 135.56640625 C-22.78932556 133.15888615 -25.90631448 130.61510434 -29 128 C-29.66515625 127.43796875 -30.3303125 126.8759375 -31.015625 126.296875 C-51.00838041 107.79890504 -58.8437646 81.0655395 -62 55 C-62.28342439 52.79481996 -62.57310507 50.59059811 -62.86645508 48.38671875 C-63.10744583 46.56984419 -63.33924164 44.75175655 -63.5703125 42.93359375 C-63.89957391 40.08937443 -63.89957391 40.08937443 -64.7265625 37.81640625 C-65 36 -65 36 -64.015625 34.28125 C-50.42206151 20.56738948 -31.00406028 11.66702743 -14 3 C-13.1637207 2.57203125 -12.32744141 2.1440625 -11.46582031 1.703125 C-4.40289898 -1.70434799 -4.40289898 -1.70434799 0 0 Z " fill="#25292E" transform="translate(715,606)"/>
<path d="M0 0 C0.7425 0.11827148 1.485 0.23654297 2.25 0.35839844 C4.44975593 0.73361722 6.62880018 1.166123 8.8125 1.625 C10.70935547 2.01558594 10.70935547 2.01558594 12.64453125 2.4140625 C17.35926386 4.64244601 18.72110375 7.43513156 21 12 C21.49185791 12.97469238 21.98371582 13.94938477 22.49047852 14.95361328 C24.16563618 18.36544932 25.77951636 21.80020463 27.375 25.25 C27.6600238 25.86472168 27.94504761 26.47944336 28.2387085 27.11279297 C34.92732884 41.58877454 40.70281938 56.35107354 44 72 C44.26018921 73.08716309 44.26018921 73.08716309 44.52563477 74.19628906 C45.10064488 77.5948563 45.11184232 80.82231634 45.09765625 84.26953125 C45.09553383 85.29103523 45.09553383 85.29103523 45.09336853 86.33317566 C45.08780298 88.49299647 45.07525703 90.65271089 45.0625 92.8125 C45.05748054 94.28320162 45.05291841 95.75390488 45.04882812 97.22460938 C45.03784488 100.8164404 45.02060422 104.4082098 45 108 C41.21352797 106.26204439 39.39006413 104.3052917 36.8125 101 C27.25312189 89.00761104 17.04293809 78.48170804 5 69 C4.3620752 68.49629883 3.72415039 67.99259766 3.06689453 67.47363281 C-13.38852742 54.53519216 -30.28845959 44.38231804 -49 35 C-49.89702637 34.54947266 -50.79405273 34.09894531 -51.71826172 33.63476562 C-62.84649632 28.08826613 -74.07678538 23.20127214 -85.80273438 19.04223633 C-86.72892578 18.70087646 -87.65511719 18.3595166 -88.609375 18.0078125 C-89.43405273 17.71535645 -90.25873047 17.42290039 -91.10839844 17.12158203 C-93 16 -93 16 -93.85595703 14.00317383 C-94 12 -94 12 -92.6953125 9.94140625 C-88.73630216 7.08977127 -84.56489598 6.13145886 -79.875 4.9375 C-78.89813232 4.68073486 -77.92126465 4.42396973 -76.91479492 4.15942383 C-68.01493335 1.88221053 -59.09950728 0.22669414 -50 -1 C-49.06929687 -1.13148438 -48.13859375 -1.26296875 -47.1796875 -1.3984375 C-31.63103149 -3.20188663 -15.42619938 -2.49909999 0 0 Z " fill="#393F46" transform="translate(1490,900)"/>
</svg>
