<svg version="1.1" xmlns="http://www.w3.org/2000/svg" xmlns:xlink="http://www.w3.org/1999/xlink" width="178.32899" height="199.00457" viewBox="0,0,178.32899,199.00457"><g transform="translate(-150.8355,-80.49772)"><g data-paper-data="{&quot;isPaintingLayer&quot;:true}" fill-rule="nonzero" stroke="none" stroke-width="1" stroke-linecap="butt" stroke-linejoin="miter" stroke-miterlimit="10" stroke-dasharray="" stroke-dashoffset="0" style="mix-blend-mode: normal"><path d="M240.55903,80.61875c0.49715,0.24196 0.97278,0.51595 1.44997,0.79486c0.14118,0.08118 0.28237,0.16236 0.42783,0.24601c0.44637,0.25723 0.89159,0.51636 1.33659,0.77596c0.27642,0.16069 0.55284,0.32137 0.82926,0.48205c0.55509,0.32318 1.10965,0.64725 1.66397,0.97174c1.3416,0.78465 2.68912,1.55907 4.03587,2.33484c0.75871,0.43715 1.51711,0.87483 2.27554,1.31247c0.3028,0.1747 0.60561,0.34939 0.90842,0.52409c4.23927,2.44573 8.47855,4.89147 12.71782,7.3372c0.22493,0.12976 0.22493,0.12976 0.45441,0.26215c0.30214,0.17432 0.60426,0.34868 0.90637,0.52306c0.76703,0.4427 1.53439,0.88482 2.30236,1.32588c1.84224,1.05886 3.6742,2.13242 5.49089,3.23459c-0.08265,0.54077 -0.2435,0.93854 -0.51262,1.41339c-0.07782,0.13825 -0.15563,0.27649 -0.2358,0.41893c-0.0845,0.14766 -0.16901,0.29532 -0.25607,0.44745c-0.08694,0.15342 -0.17387,0.30685 -0.26344,0.46492c-0.27474,0.48349 -0.55122,0.9659 -0.8284,1.44799c-0.13282,0.23108 -0.13282,0.23108 -0.26832,0.46683c-0.25622,0.44466 -0.51335,0.88877 -0.77112,1.33253c-0.11612,0.20006 -0.11612,0.20006 -0.23458,0.40415c-0.53217,0.91011 -1.08919,1.80216 -1.66087,2.68795c-0.529,-0.1979 -1.00589,-0.44082 -1.49528,-0.72226c-0.15561,-0.0892 -0.31122,-0.1784 -0.47154,-0.2703c-0.16838,-0.09714 -0.33675,-0.19429 -0.50512,-0.29145c-0.17545,-0.10083 -0.35092,-0.20162 -0.52641,-0.30237c-0.45101,-0.2591 -0.90169,-0.51877 -1.35228,-0.7786c-0.24865,-0.14332 -0.49739,-0.28647 -0.74618,-0.42953c-1.74389,-1.00278 -3.48372,-2.01225 -5.22018,-3.02782c-1.07598,-0.62815 -2.15691,-1.24737 -3.23937,-1.86426c-1.35859,-0.77425 -2.71252,-1.55601 -4.06228,-2.34559c-1.47079,-0.86009 -2.94703,-1.71065 -4.42341,-2.56109c-0.6077,-0.35014 -1.2152,-0.70062 -1.82267,-1.05117c-0.30015,-0.17317 -0.60034,-0.34628 -0.90057,-0.51931c-0.70922,-0.40882 -1.41806,-0.81825 -2.12569,-1.22982c-0.33399,-0.1942 -0.66818,-0.38806 -1.00238,-0.5819c-0.23559,-0.13683 -0.47089,-0.27415 -0.70619,-0.41149c-0.14295,-0.08287 -0.28591,-0.16574 -0.43319,-0.25112c-0.12544,-0.07302 -0.25089,-0.14604 -0.38013,-0.22127c-0.50962,-0.27783 -0.50962,-0.27783 -1.05401,-0.47041c-0.34379,0.10626 -0.34379,0.10626 -0.67421,0.32701c-0.19548,0.11753 -0.19548,0.11753 -0.39491,0.23744c-0.14009,0.08757 -0.28019,0.17513 -0.42452,0.26535c-0.30363,0.18358 -0.60734,0.367 -0.91115,0.55029c-0.15685,0.09566 -0.31369,0.19132 -0.47529,0.28989c-0.75094,0.454 -1.51216,0.88968 -2.27343,1.32605c-0.30539,0.17591 -0.61074,0.35188 -0.91606,0.52791c-0.15165,0.08735 -0.30329,0.1747 -0.45953,0.2647c-0.75871,0.43715 -1.51711,0.87483 -2.27554,1.31247c-0.3028,0.1747 -0.60561,0.34939 -0.90842,0.52409c-0.14989,0.08647 -0.29978,0.17295 -0.45421,0.26204c-12.26361,7.07516 -12.26361,7.07516 -12.71813,7.33737c-0.30179,0.17411 -0.60357,0.34824 -0.90534,0.52238c-0.7725,0.44575 -1.54513,0.89125 -2.31802,1.33632c-0.23451,0.1354 -0.23451,0.1354 -0.47376,0.27354c-0.31062,0.17857 -0.62195,0.3559 -0.93401,0.53193c-0.65388,0.37089 -1.28802,0.73874 -1.88688,1.19424c-1.70776,1.26146 -3.30167,0.94157 -5.33326,0.71182c-9.05221,-0.8601 -19.40179,4.14397 -26.33682,9.59739c-0.13908,0.10917 -0.27816,0.21835 -0.42145,0.33083c-0.96985,0.77865 -1.89203,1.6075 -2.79294,2.4643c-0.07918,0.07517 -0.15836,0.15034 -0.23993,0.22779c-2.75489,2.63465 -5.87899,6.37636 -6.57318,10.2452c-0.42133,1.03225 -1.98725,1.59351 -2.92615,2.11381c-0.39192,0.21754 -0.78177,0.43618 -1.16729,0.66495c-0.42403,0.24386 -0.85845,0.44033 -1.30671,0.6357c-1.46816,0.65747 -1.46816,0.65747 -2.49942,1.83073c-0.28268,0.99912 -0.22123,2.02899 -0.19171,3.0569c-0.00134,0.34746 -0.00404,0.69491 -0.00796,1.04234c-0.00543,0.75389 -0.00138,1.50682 0.01119,2.26056c0.01862,1.12055 0.01947,2.24064 0.01678,3.36132c-0.00403,1.88526 0.0062,3.77019 0.02465,5.65535c0.01821,1.86579 0.03003,3.73144 0.03337,5.59732c0.00021,0.11613 0.00042,0.23225 0.00064,0.3519c0.00104,0.58977 0.00197,1.17955 0.00285,1.76932c0.00645,4.17451 0.02716,8.34884 0.05627,12.52325c0.02825,4.0547 0.05002,8.10934 0.06305,12.16412c0.00061,0.18756 0.00061,0.18756 0.00123,0.37892c0.00405,1.25577 0.00798,2.51153 0.0118,3.7673c0.0078,2.55801 0.01647,5.11602 0.02568,7.67403c0.00063,0.17641 0.00063,0.17641 0.00128,0.35638c0.02828,7.85 0.07706,15.69989 0.12891,23.54976c0.10138,0.05843 0.20277,0.11685 0.30722,0.17705c0.38472,0.22174 0.76941,0.44353 1.15408,0.66534c0.24493,0.14122 0.48988,0.28238 0.73484,0.42355c1.03442,0.59653 2.06665,1.19665 3.09712,1.79996c1.21292,0.70901 2.43051,1.40945 3.65113,2.10508c1.35859,0.77425 2.71252,1.55601 4.06228,2.34559c1.47079,0.86009 2.94703,1.71065 4.42341,2.56109c0.75871,0.43715 1.51711,0.87483 2.27554,1.31247c0.3028,0.1747 0.60561,0.34939 0.90842,0.52409c6.66172,3.8433 13.32343,7.68659 19.98515,11.52989c0.14991,0.08649 0.29982,0.17297 0.45428,0.26208c0.30258,0.17457 0.60516,0.34915 0.90773,0.52374c0.76035,0.43873 1.52081,0.87726 2.28148,1.31544c1.4607,0.84166 2.91988,1.68568 4.37503,2.5369c1.21275,0.7093 2.43051,1.40945 3.65113,2.10508c1.35859,0.77425 2.71252,1.55601 4.06228,2.34559c1.47079,0.86009 2.94703,1.71065 4.42341,2.56109c0.75871,0.43715 1.51711,0.87483 2.27554,1.31247c0.3028,0.1747 0.60561,0.34939 0.90842,0.52409c1.81683,1.04817 3.63366,2.09634 5.45049,3.14452c0.14993,0.0865 0.29987,0.17299 0.45434,0.26211c0.30236,0.17445 0.60471,0.34891 0.90705,0.5234c0.76369,0.44071 1.5276,0.88105 2.29192,1.32066c0.15301,0.08811 0.30602,0.17621 0.46366,0.26699c0.30389,0.17488 0.60794,0.34946 0.91217,0.52374c0.74581,0.42861 1.48532,0.86453 2.21689,1.31707c0.14057,0.08609 0.28113,0.17218 0.42596,0.26088c0.2653,0.16311 0.52934,0.32829 0.79186,0.49583c0.11769,0.07204 0.23537,0.14408 0.35662,0.2183c0.10202,0.06424 0.20405,0.12847 0.30916,0.19466c0.30784,0.13459 0.30784,0.13459 0.64183,0.00822c0.39122,-0.2016 0.77579,-0.40927 1.15736,-0.6287c0.15559,-0.08919 0.31117,-0.17838 0.47147,-0.27027c0.1684,-0.09715 0.3368,-0.19431 0.50518,-0.29149c0.17565,-0.10093 0.35133,-0.20182 0.52702,-0.30268c0.45112,-0.25913 0.9019,-0.51883 1.35257,-0.77874c0.39952,-0.23039 0.79922,-0.46048 1.19887,-0.69064c0.74881,-0.43151 1.49722,-0.8637 2.24552,-1.29609c0.75531,-0.43634 1.51094,-0.87211 2.26654,-1.30796c0.14971,-0.08638 0.29942,-0.17277 0.45366,-0.26177c0.76033,-0.43872 1.52076,-0.87724 2.28141,-1.3154c1.4607,-0.84166 2.91988,-1.68568 4.37503,-2.5369c1.29554,-0.75772 2.59714,-1.50441 3.90108,-2.24752c1.27519,-0.7269 2.54536,-1.462 3.81233,-2.20315c1.47079,-0.86009 2.94703,-1.71065 4.42341,-2.56109c0.75871,-0.43715 1.51711,-0.87483 2.27554,-1.31247c0.3028,-0.1747 0.60561,-0.34939 0.90842,-0.52409c0.14989,-0.08647 0.29978,-0.17295 0.45421,-0.26204c19.53094,-11.26785 19.53094,-11.26785 19.98521,-11.52993c0.30258,-0.17457 0.60516,-0.34915 0.90773,-0.52374c0.76035,-0.43873 1.52081,-0.87726 2.28148,-1.31544c1.4607,-0.84166 2.91988,-1.68568 4.37503,-2.5369c1.29554,-0.75772 2.59714,-1.50441 3.90108,-2.24752c1.27519,-0.7269 2.54536,-1.462 3.81233,-2.20315c1.01396,-0.59295 2.03019,-1.18185 3.04782,-1.76848c0.15008,-0.08652 0.30016,-0.17304 0.45479,-0.26218c0.61833,-0.35634 1.23676,-0.71253 1.85522,-1.06864c0.4733,-0.27256 0.94652,-0.54524 1.41974,-0.81793c0.13933,-0.08016 0.27865,-0.16032 0.4222,-0.2429c0.27388,-0.15783 0.54596,-0.31885 0.81595,-0.48326c0.35605,-0.20883 0.71262,-0.36719 1.09675,-0.5176c0.76505,-0.32649 1.56996,-0.6764 1.91777,-1.47754c0.23238,-0.99036 0.18493,-2.00856 0.16968,-3.01907c0.00344,-0.3457 0.00791,-0.6914 0.01332,-1.03708c0.00935,-0.7512 0.01133,-1.50189 0.00676,-2.2531c-0.00679,-1.11699 0,-2.23361 0.00939,-3.35057c0.01724,-2.11099 0.01845,-4.22181 0.01476,-6.33285c-0.00276,-1.63033 -0.00116,-3.2606 0.00351,-4.89092c0.00065,-0.23431 0.00131,-0.46863 0.00196,-0.70294c0.00099,-0.3531 0.00198,-0.7062 0.00298,-1.0593c0.0092,-3.28263 0.01361,-6.56523 0.00796,-9.84787c-0.00021,-0.12373 -0.00042,-0.24745 -0.00064,-0.37493c-0.00175,-1.00472 -0.00362,-2.00944 -0.0055,-3.01416c-0.00723,-3.91835 0.0007,-7.83642 0.02077,-11.75472c0.02252,-4.40349 0.03389,-8.8068 0.02867,-13.21035c-0.00052,-0.46968 -0.00101,-0.93937 -0.00147,-1.40905c-0.00012,-0.11565 -0.00024,-0.23129 -0.00037,-0.35044c-0.00162,-1.74462 0.00544,-3.48907 0.01688,-5.23366c0.013,-1.98467 0.01421,-3.96896 -0.00019,-5.95363c-0.00771,-1.1103 -0.00622,-2.21968 0.00867,-3.32992c0.01009,-0.82995 0.00256,-1.65915 -0.01172,-2.48906c-0.00306,-0.33499 -0.00049,-0.67009 0.00835,-1.00498c0.04481,-1.50966 0.04481,-1.50966 -0.43237,-2.91594c-0.8404,-0.82025 -1.89729,-1.30827 -2.96028,-1.77864c-0.50992,-0.23038 -0.97965,-0.50215 -1.45951,-0.78938c-0.29691,-0.16899 -0.59389,-0.33787 -0.89095,-0.50662c-1.35884,-0.77381 -2.71253,-1.55601 -4.06228,-2.34559c-1.01396,-0.59295 -2.03019,-1.18185 -3.04782,-1.76848c-0.15008,-0.08652 -0.30016,-0.17304 -0.45479,-0.26218c-0.61833,-0.35634 -1.23676,-0.71253 -1.85522,-1.06864c-0.23662,-0.13626 -0.23662,-0.13626 -0.47802,-0.27528c-0.15643,-0.09005 -0.31286,-0.18011 -0.47403,-0.27289c-0.30885,-0.17814 -0.61746,-0.35669 -0.92582,-0.53569c-0.66335,-0.38497 -1.32719,-0.76669 -2.0018,-1.13163c-0.10817,-0.05985 -0.21634,-0.11969 -0.32779,-0.18135c-0.1921,-0.10605 -0.38553,-0.20978 -0.58066,-0.31015c-1.32387,-0.74092 -1.97517,-2.31502 -2.67608,-3.59637c-0.17268,-0.31201 -0.34556,-0.62392 -0.51863,-0.93571c-0.08337,-0.15029 -0.16673,-0.30059 -0.25263,-0.45544c-0.30021,-0.53665 -0.60924,-1.0675 -0.92329,-1.59614c-0.57802,-0.97411 -1.14651,-1.95345 -1.71201,-2.93488c-0.08906,-0.15454 -0.17813,-0.30908 -0.26989,-0.4683c-0.27406,-0.47567 -0.54802,-0.9514 -0.82196,-1.42714c-1.34389,-2.33346 -2.69356,-4.66334 -4.05293,-6.98781c0.09224,-0.04612 0.18448,-0.09224 0.27951,-0.13976c0.33329,0.15613 0.33329,0.15613 0.75556,0.4018c0.23541,0.13581 0.23541,0.13581 0.47557,0.27436c0.17195,0.10069 0.3439,0.20141 0.51583,0.30213c0.17752,0.10291 0.35511,0.20571 0.53275,0.30841c0.36627,0.21196 0.73217,0.42452 1.09778,0.6376c0.64048,0.37314 1.28291,0.74288 1.92533,1.11266c0.59846,0.3446 1.19637,0.69017 1.79431,1.03568c0.60378,0.3488 1.20777,0.69724 1.81178,1.04565c0.45405,0.26191 0.90806,0.52388 1.36208,0.78586c0.60912,0.35143 1.21839,0.70262 1.82775,1.05363c1.4607,0.84166 2.91988,1.68568 4.37503,2.5369c1.21275,0.7093 2.43051,1.40945 3.65113,2.10508c1.35859,0.77425 2.71252,1.55601 4.06228,2.34559c1.47079,0.86009 2.94703,1.71065 4.42341,2.56109c0.75871,0.43715 1.51711,0.87483 2.27554,1.31247c0.3028,0.1747 0.60561,0.34939 0.90842,0.52409c0.60561,0.34939 1.21122,0.69878 1.81683,1.04817c0.22522,0.12993 0.22522,0.12993 0.45499,0.26249c0.3002,0.1732 0.60039,0.34641 0.90057,0.51965c0.71095,0.41027 1.42201,0.82034 2.13345,1.22978c0.33688,0.19389 0.67371,0.38789 1.01052,0.5819c0.23841,0.13726 0.4769,0.27438 0.7154,0.41149c0.21578,0.12431 0.21578,0.12431 0.43592,0.25112c0.12691,0.07302 0.25382,0.14604 0.38457,0.22127c0.25239,0.14894 0.49892,0.30785 0.74276,0.47041c0.03112,0.34884 0.03112,0.34884 0.00873,0.75992c-0.04,0.63792 -0.04,0.63792 0.27078,1.19666c-0.09224,0 -0.18448,0 -0.27951,0c0,30.62339 0,61.24678 0,92.79816c0.09224,0.04612 0.18448,0.09224 0.27951,0.13976c-0.09224,0.09224 -0.18448,0.18448 -0.27951,0.27951c0.01741,0.24299 0.04301,0.48543 0.07315,0.72717c0.01009,0.72018 0.01009,0.72018 -0.32796,1.08557c-0.38751,0.25272 -0.78062,0.46246 -1.19516,0.66794c-0.31015,0.16675 -0.62023,0.33362 -0.93025,0.50061c-0.16124,0.08424 -0.32248,0.16849 -0.4886,0.25529c-0.77422,0.41051 -1.52811,0.85487 -2.28469,1.29677c-0.30523,0.17618 -0.61059,0.35215 -0.91606,0.52791c-0.91193,0.5253 -1.82353,1.05119 -2.73507,1.57717c-0.3028,0.1747 -0.60561,0.34939 -0.90842,0.52409c-0.14989,0.08647 -0.29978,0.17295 -0.45421,0.26204c-12.26361,7.07516 -12.26361,7.07516 -12.71789,7.33724c-0.30258,0.17457 -0.60516,0.34915 -0.90773,0.52374c-0.76035,0.43873 -1.52081,0.87726 -2.28148,1.31544c-1.4607,0.84166 -2.91988,1.68568 -4.37503,2.5369c-1.29554,0.75772 -2.59714,1.50441 -3.90108,2.24752c-1.27519,0.7269 -2.54536,1.462 -3.81233,2.20315c-1.47079,0.86009 -2.94703,1.71065 -4.42341,2.56109c-0.75871,0.43715 -1.51711,0.87483 -2.27554,1.31247c-0.3028,0.1747 -0.60561,0.34939 -0.90842,0.52409c-0.14989,0.08647 -0.29978,0.17295 -0.45421,0.26204c-19.53094,11.26785 -19.53094,11.26785 -19.98521,11.52993c-0.30258,0.17457 -0.60516,0.34915 -0.90773,0.52374c-0.76035,0.43873 -1.52081,0.87726 -2.28148,1.31544c-1.4607,0.84166 -2.91988,1.68568 -4.37503,2.5369c-1.29554,0.75772 -2.59714,1.50441 -3.90108,2.24752c-1.27415,0.72631 -2.54326,1.46086 -3.80926,2.20131c-1.34644,0.78725 -2.69586,1.56921 -4.04884,2.34518c-0.51391,0.2949 -1.025,0.59355 -1.53295,0.89859c-0.10242,0.06048 -0.20484,0.12095 -0.31036,0.18326c-0.18291,0.10807 -0.36482,0.21786 -0.54538,0.32981c-0.36775,0.21471 -0.64355,0.32713 -1.07137,0.33857c-0.68422,-0.2278 -1.2799,-0.58203 -1.9009,-0.94499c-0.14118,-0.08118 -0.28237,-0.16236 -0.42783,-0.24601c-0.44637,-0.25723 -0.89159,-0.51636 -1.33659,-0.77596c-0.27642,-0.16069 -0.55284,-0.32137 -0.82926,-0.48205c-0.55509,-0.32318 -1.10965,-0.64725 -1.66397,-0.97174c-1.3416,-0.78465 -2.68912,-1.55907 -4.03587,-2.33484c-0.75871,-0.43715 -1.51711,-0.87483 -2.27554,-1.31247c-0.3028,-0.1747 -0.60561,-0.34939 -0.90842,-0.52409c-6.66172,-3.8433 -13.32343,-7.68659 -19.98515,-11.52989c-0.14991,-0.08649 -0.29982,-0.17297 -0.45428,-0.26208c-0.30258,-0.17457 -0.60516,-0.34915 -0.90773,-0.52374c-0.76035,-0.43873 -1.52081,-0.87726 -2.28148,-1.31544c-1.4607,-0.84166 -2.91988,-1.68568 -4.37503,-2.5369c-1.21275,-0.7093 -2.43051,-1.40945 -3.65113,-2.10508c-1.35859,-0.77425 -2.71252,-1.55601 -4.06228,-2.34559c-1.47079,-0.86009 -2.94703,-1.71065 -4.42341,-2.56109c-0.75871,-0.43715 -1.51711,-0.87483 -2.27554,-1.31247c-0.3028,-0.1747 -0.60561,-0.34939 -0.90842,-0.52409c-9.99257,-5.76495 -9.99257,-5.76495 -19.98515,-11.52989c-0.14991,-0.08649 -0.29982,-0.17297 -0.45428,-0.26208c-0.30258,-0.17457 -0.60516,-0.34915 -0.90773,-0.52374c-0.76035,-0.43873 -1.52081,-0.87726 -2.28148,-1.31544c-1.203,-0.69314 -2.40575,-1.38667 -3.60582,-2.08488c-0.14419,-0.08388 -0.28838,-0.16777 -0.43694,-0.2542c-0.28202,-0.16476 -0.5636,-0.33029 -0.84468,-0.49665c-0.6322,-0.37353 -1.26444,-0.73532 -1.91967,-1.06707c-1.5709,-0.81236 -1.5709,-0.81236 -1.77316,-1.43141c0.00382,-0.41709 0.00382,-0.41709 0.07861,-0.7965c0.10119,-0.36471 0.10119,-0.36471 -0.22328,-0.74737c0.09224,0 0.18448,0 0.27951,0c0,-30.62339 0,-61.24678 0,-92.79816c-0.09224,-0.04612 -0.18448,-0.09224 -0.27951,-0.13976c0.09224,-0.09224 0.18448,-0.18448 0.27951,-0.27951c-0.01741,-0.24299 -0.04301,-0.48543 -0.07315,-0.72717c-0.01009,-0.72018 -0.01009,-0.72018 0.32796,-1.08557c0.38751,-0.25272 0.78062,-0.46246 1.19516,-0.66794c0.31015,-0.16675 0.62023,-0.33362 0.93025,-0.50061c0.24186,-0.12637 0.24186,-0.12637 0.4886,-0.25529c0.77422,-0.41051 1.52811,-0.85487 2.28469,-1.29677c0.30523,-0.17618 0.61059,-0.35215 0.91606,-0.52791c0.91193,-0.5253 1.82353,-1.05119 2.73507,-1.57717c0.3028,-0.1747 0.60561,-0.34939 0.90842,-0.52409c0.14989,-0.08647 0.29978,-0.17295 0.45421,-0.26204c12.26361,-7.07516 12.26361,-7.07516 12.71789,-7.33724c0.30258,-0.17457 0.60516,-0.34915 0.90773,-0.52374c0.76035,-0.43873 1.52081,-0.87726 2.28148,-1.31544c1.4607,-0.84166 2.91988,-1.68568 4.37503,-2.5369c1.29554,-0.75772 2.59714,-1.50441 3.90108,-2.24752c1.27519,-0.7269 2.54536,-1.462 3.81233,-2.20315c1.47079,-0.86009 2.94703,-1.71065 4.42341,-2.56109c0.75871,-0.43715 1.51711,-0.87483 2.27554,-1.31247c0.3028,-0.1747 0.60561,-0.34939 0.90842,-0.52409c0.14989,-0.08647 0.29978,-0.17295 0.45421,-0.26204c19.53094,-11.26785 19.53094,-11.26785 19.98521,-11.52993c0.30258,-0.17457 0.60516,-0.34915 0.90773,-0.52374c0.76035,-0.43873 1.52081,-0.87726 2.28148,-1.31544c1.4607,-0.84166 2.91988,-1.68568 4.37503,-2.5369c1.29554,-0.75772 2.59714,-1.50441 3.90108,-2.24752c1.27415,-0.72631 2.54326,-1.46086 3.80926,-2.20131c1.34644,-0.78725 2.69586,-1.56921 4.04884,-2.34518c0.51391,-0.2949 1.025,-0.59355 1.53295,-0.89859c0.10242,-0.06048 0.20484,-0.12095 0.31036,-0.18326c0.18291,-0.10807 0.36482,-0.21786 0.54538,-0.32981c0.57381,-0.33502 0.89179,-0.39836 1.52231,-0.18845z" fill="#25292e"/><path d="M280.38956,106.47366c0.70896,0.14429 0.88695,0.53177 1.27855,1.1175c0.35547,0.5767 0.67057,1.17106 0.98484,1.77097c0.24542,0.45313 0.50954,0.88631 0.78504,1.32168c0.45585,0.72796 0.85715,1.47208 1.24907,2.2361c0.47482,0.92317 0.98863,1.80287 1.55479,2.67284c0.70603,1.08825 1.31436,2.20889 1.90473,3.36336c0.58874,1.14862 1.22047,2.26737 1.86596,3.38479c0.57536,0.99623 1.13501,2.00121 1.69598,3.00558c0.52491,0.93986 0.52491,0.93986 1.05438,1.87716c1.05463,1.85623 2.05717,3.73535 2.97364,5.66395c0.09019,0.18908 0.09019,0.18908 0.1822,0.38198c0.34046,0.71431 0.67993,1.42904 1.01699,2.14497c0.31602,0.67064 0.63507,1.33978 0.95551,2.00831c0.12881,0.27 0.25667,0.54045 0.38352,0.81138c0.68322,1.45793 1.28099,2.67084 2.51921,3.73752c0.23658,0.27462 0.43123,0.55599 0.63764,0.85601c0.05552,0.08017 0.11104,0.16034 0.16825,0.24294c0.12607,0.18207 0.25166,0.36448 0.37686,0.54715c0.24225,0.35014 0.48928,0.69663 0.73672,1.04312c1.90519,2.68062 3.51566,5.46741 5.01273,8.39261c0.18397,0.35612 0.37169,0.70984 0.56169,1.06278c1.22274,2.27198 2.28763,4.58166 3.16253,7.01074c0.05423,0.15006 0.10845,0.30011 0.16432,0.45472c0.85229,2.42705 1.47583,4.88531 1.93202,7.4153c0.02397,0.13075 0.04795,0.2615 0.07265,0.39621c0.35497,1.9428 0.64022,3.86551 0.73095,5.84041c0.01489,0.25823 0.03,0.51646 0.04531,0.77466c0.11002,1.94779 0.11075,3.87956 0.0333,5.82882c-0.00547,0.14338 -0.01094,0.28676 -0.01658,0.43449c-0.00588,0.13406 -0.01176,0.26812 -0.01781,0.40623c-0.00512,0.12075 -0.01025,0.2415 -0.01552,0.3659c-0.0287,0.29575 -0.0287,0.29575 -0.16845,0.57527c-0.32155,-0.00873 -0.32155,-0.00873 -0.69878,-0.13976c-0.18449,-0.33183 -0.31565,-0.62558 -0.44547,-0.97829c-1.05133,-2.60669 -2.66981,-4.94316 -4.58575,-6.98781c-0.49208,-0.53921 -0.87525,-1.03873 -1.22287,-1.68472c-0.39653,-0.6171 -0.9357,-1.13292 -1.4325,-1.66943c-0.16668,-0.19154 -0.3327,-0.38366 -0.49788,-0.57649c-0.95401,-1.08936 -1.99781,-2.02376 -3.13578,-2.91741c-0.08895,-0.07019 -0.1779,-0.14039 -0.26955,-0.21271c-2.29996,-1.80851 -4.66193,-3.22762 -7.27729,-4.53901c-0.12537,-0.06296 -0.25073,-0.12593 -0.37989,-0.1908c-1.55524,-0.77516 -3.12474,-1.45815 -4.76352,-2.0394c-0.19416,-0.07156 -0.19416,-0.07156 -0.39225,-0.14457c-0.11525,-0.04087 -0.23051,-0.08175 -0.34925,-0.12386c-0.26436,-0.15675 -0.26436,-0.15675 -0.38399,-0.43582c-0.02013,-0.27996 -0.02013,-0.27996 0.16221,-0.56766c0.5533,-0.39853 1.13628,-0.53246 1.79172,-0.69933c0.20479,-0.05383 0.20479,-0.05383 0.41371,-0.10874c1.24381,-0.31825 2.4898,-0.54962 3.76151,-0.72106c0.13007,-0.01838 0.26014,-0.03675 0.39416,-0.05568c2.85451,-0.33109 5.76768,-0.05633 8.55024,0.61471c-1.30509,-2.67748 -2.74324,-5.24307 -4.37202,-7.73798c-0.22925,-0.35151 -0.45635,-0.70434 -0.68322,-1.05738c-0.84107,-1.29761 -1.74232,-2.48926 -2.7711,-3.64294c-0.16018,-0.1863 -0.32032,-0.37264 -0.48041,-0.55903c-0.49971,-0.56818 -1.01467,-1.12243 -1.53019,-1.67626c-0.13845,-0.14903 -0.27589,-0.299 -0.41244,-0.44977c-0.16894,-0.18167 -0.34371,-0.35797 -0.5217,-0.53077c-0.80287,-0.81519 -1.0161,-1.47022 -1.1868,-2.58406c-0.71872,-3.8184 -2.30925,-7.61374 -3.97432,-11.11062c-0.10877,-0.22848 -0.10877,-0.22848 -0.21973,-0.46158c-1.0102,-2.10313 -2.0979,-4.1483 -3.31669,-6.13897c-0.25693,-0.41984 -0.51158,-0.84101 -0.766,-1.26238c-0.96472,-1.60706 -0.96472,-1.60706 -1.98661,-3.17782c-2.37746,4.39094 -3.84272,8.69062 -4.19269,13.69611c0.17997,-0.01171 0.35995,-0.02342 0.54538,-0.03548c0.23456,-0.01441 0.46913,-0.02879 0.70369,-0.04313c0.11881,-0.00784 0.23762,-0.01567 0.36004,-0.02375c0.11305,-0.00676 0.22609,-0.01351 0.34257,-0.02047c0.10466,-0.00659 0.20932,-0.01317 0.31715,-0.01996c0.24679,0.00304 0.24679,0.00304 0.38655,0.14279c0.08735,0.37559 0.08735,0.37559 0,0.83854c-0.85312,0.7711 -2.00798,1.24568 -3.02879,1.7617c-0.48207,0.24384 -0.96271,0.49045 -1.44341,0.73699c-0.09566,0.04902 -0.19133,0.09803 -0.28989,0.14853c-1.21179,0.62228 -2.40812,1.2723 -3.59817,1.93512c-0.26968,0.14994 -0.5403,0.29798 -0.81124,0.44561c-0.99379,0.5552 -1.85136,1.21144 -2.70778,1.95986c-0.12287,0.10737 -0.24573,0.21474 -0.37232,0.32537c-0.34555,0.30693 -0.68638,0.61815 -1.02524,0.93244c-0.12404,0.11269 -0.12404,0.11269 -0.25058,0.22765c-1.45182,1.37595 -2.56313,3.06201 -3.52284,4.80358c-0.06654,0.12066 -0.13309,0.24132 -0.20165,0.36563c-0.76147,1.39333 -1.49096,2.79216 -2.06939,4.27253c-0.0402,0.10283 -0.08039,0.20567 -0.12181,0.31162c-0.17895,0.48009 -0.26252,0.82004 -0.26252,1.33925c0.07019,-0.04845 0.14039,-0.0969 0.21271,-0.14682c3.91496,-2.69906 7.49705,-4.70727 12.2256,-5.58319c0.19759,-0.0378 0.19759,-0.0378 0.39917,-0.07636c0.88399,-0.12755 1.7836,-0.09763 2.67547,-0.09833c0.10615,-0.00009 0.2123,-0.00019 0.32167,-0.00029c6.15045,0.00867 6.15045,0.00867 8.20346,1.7123c0.09172,0.34612 0.09172,0.34612 0,0.69878c-0.26641,0.30899 -0.26641,0.30899 -0.6289,0.61143c-0.12773,0.10881 -0.25546,0.21763 -0.38706,0.32974c-0.12593,0.10449 -0.25186,0.20898 -0.3816,0.31664c-1.50625,1.2949 -2.63905,2.5657 -3.62493,4.30624c-0.04705,0.08295 -0.09411,0.1659 -0.14259,0.25136c-0.23026,0.40681 -0.45904,0.81427 -0.68558,1.22317c-1.60499,2.77467 -4.21073,4.4963 -7.26896,5.36478c-0.92416,0.23368 -1.85492,0.42746 -2.81259,0.31445c-0.36073,-0.36073 -0.33354,-0.52745 -0.34939,-1.0307c0.02139,-1.36876 0.70289,-2.452 1.6072,-3.4415c0.29703,-0.23861 0.58682,-0.45805 0.89968,-0.67258c0.08472,-0.05953 0.16944,-0.11906 0.25672,-0.18039c0.51291,-0.35717 1.03536,-0.69587 1.5653,-1.02709c0.95064,-0.59441 1.78569,-1.24839 2.58904,-2.03312c0.09674,-0.09296 0.19349,-0.18592 0.29316,-0.2817c0.36919,-0.36086 0.67685,-0.68417 0.96465,-1.11587c-3.31963,0.07289 -6.53319,1.3642 -8.92256,3.65004c-0.30135,0.26313 -0.30135,0.26313 -0.6027,0.40398c-0.33393,0.1797 -0.38392,0.35612 -0.53719,0.69769c-0.14975,0.19574 -0.30477,0.3875 -0.46294,0.57649c-1.63181,2.02216 -2.99658,4.16653 -4.31497,6.40333c-1.23586,2.08452 -2.55153,4.11792 -3.88178,6.143c-0.46346,0.70574 -0.92569,1.41227 -1.38786,2.11885c-0.14939,0.22828 -0.29894,0.45646 -0.44849,0.68463c-0.09328,0.14247 -0.18655,0.28494 -0.28265,0.43172c-0.09296,0.13748 -0.18592,0.27496 -0.2817,0.41661c-0.2697,0.40972 -0.2697,0.40972 -0.45858,0.86078c-0.22026,0.46073 -0.39154,0.75768 -0.77958,1.09191c-0.84484,0.19068 -1.65627,0.13732 -2.51561,0.08735c-0.23911,-0.00823 -0.47825,-0.01559 -0.71741,-0.02211c-0.35733,-0.00991 -0.71454,-0.02041 -1.07175,-0.03392c-0.98614,-0.03727 -1.9594,-0.01629 -2.94508,0.03856c-0.13259,0.00678 -0.26519,0.01356 -0.4018,0.02054c-0.29122,0.01531 -0.58236,0.0321 -0.87348,0.04934c1.52076,2.03909 1.52076,2.03909 3.07464,4.05293c0.09026,0.14412 0.18051,0.28825 0.27351,0.43674c0.56388,0.66125 1.46716,0.7639 2.27704,0.94335c0.09216,0.02098 0.18431,0.04195 0.27926,0.06356c1.73849,0.3856 3.45601,0.46033 5.23238,0.45179c0.12227,-0.00046 0.24455,-0.00093 0.37053,-0.00141c4.05675,-0.03079 7.08782,-1.52145 10.47034,-3.64846c1.31939,-0.82863 2.65975,-1.62058 4.0011,-2.41291c0.19164,-0.11325 0.38327,-0.22652 0.57489,-0.3398c0.09429,-0.05574 0.18858,-0.11148 0.28572,-0.16891c0.61506,-0.36431 1.22689,-0.73354 1.83682,-1.10637c0.15552,-0.09469 0.31104,-0.18939 0.47127,-0.28695c0.28583,-0.17441 0.57113,-0.34971 0.85573,-0.52613c3.12716,-1.90366 6.34633,-2.15349 9.87916,-1.35095c2.37441,0.58979 2.37441,0.58979 3.02278,1.23815c-0.05241,0.36686 -0.05241,0.36686 -0.13976,0.69878c-0.15565,-0.00865 -0.31131,-0.01729 -0.47168,-0.0262c-1.43161,0.00872 -2.6698,0.7263 -3.90444,1.38009c-0.15845,0.08206 -0.31689,0.16412 -0.48014,0.24867c-0.95813,0.50172 -1.88026,1.04322 -2.79741,1.6159c-0.75137,0.4577 -1.52661,0.86844 -2.30397,1.27995c-0.16983,0.09042 -0.33965,0.18087 -0.50945,0.27136c-1.42102,0.756 -2.84919,1.49822 -4.2783,2.2388c-2.35653,1.22188 -4.68252,2.50146 -7.00801,3.78116c-0.22997,0.12636 -0.46017,0.25231 -0.69059,0.37785c-0.58896,0.32172 -1.17131,0.65091 -1.7475,0.99505c-0.11915,0.06953 -0.2383,0.13906 -0.36106,0.21069c-0.22215,0.12986 -0.44279,0.26234 -0.66125,0.39832c-2.03495,1.1752 -4.73431,1.03875 -7.00876,1.16033c-0.31637,0.01817 -0.63273,0.03645 -0.94909,0.05487c-0.30398,0.0173 -0.60797,0.0345 -0.91196,0.05159c-0.20944,0.01178 -0.20944,0.01178 -0.42311,0.02381c-2.10778,0.1123 -2.10778,0.1123 -2.97417,-0.05165c-0.11152,-0.01946 -0.22303,-0.03891 -0.33793,-0.05896c-0.78179,-0.27037 -1.21776,-0.8697 -1.6536,-1.5395c-0.05846,-0.08866 -0.11692,-0.17732 -0.17715,-0.26866c-0.75311,-1.16689 -1.41164,-2.39003 -2.08351,-3.60466c-0.60255,-1.08883 -1.23075,-2.16099 -1.87088,-3.22804c-0.06062,-0.10165 -0.12124,-0.2033 -0.1837,-0.30804c-0.86054,-1.44391 -0.86054,-1.44391 -1.79745,-2.83866c-0.07189,-0.10106 -0.14379,-0.20211 -0.21786,-0.30623c-0.13784,-0.19154 -0.27758,-0.38173 -0.41947,-0.57028c-0.4557,-0.63062 -0.4557,-0.63062 -0.45779,-1.08499c0.51985,-1.25849 1.31692,-2.40214 2.07973,-3.52427c0.62874,-0.93221 1.20681,-1.89406 1.78752,-2.85664c0.61862,-1.02401 1.25226,-2.03728 1.902,-3.04185c0.32103,-0.50126 0.60799,-0.97338 0.80094,-1.541c-0.0681,-0.08017 -0.1362,-0.16034 -0.20636,-0.24294c-1.58909,-1.90402 -3.03436,-3.91449 -4.34916,-6.01648c-0.20257,-0.31919 -0.41148,-0.63351 -0.62146,-0.94786c-3.74878,-5.71007 -3.74878,-5.71007 -3.77014,-7.88476c0.22934,-0.45252 0.62634,-0.70949 1.0247,-1.00614c0.13224,-0.10134 0.13224,-0.10134 0.26716,-0.20472c0.41365,-0.31587 0.83154,-0.62548 1.25105,-0.93353c2.21203,-1.62607 3.99192,-3.54854 5.70544,-5.6836c0.14582,-0.17989 0.29177,-0.35967 0.43783,-0.53937c0.07689,-0.0946 0.15378,-0.18921 0.23301,-0.28668c0.15891,-0.19531 0.31793,-0.39052 0.47707,-0.58564c0.32932,-0.40417 0.65677,-0.80874 0.97628,-1.22075c1.55281,-1.98296 3.40883,-3.69229 5.42265,-5.19391c0.27459,-0.21724 0.54837,-0.4355 0.82107,-0.65511c0.19215,-0.15434 0.38431,-0.30865 0.57649,-0.46294c-0.27154,-1.16202 -0.60236,-2.28889 -0.99576,-3.41529c-0.05496,-0.15737 -0.10992,-0.31473 -0.16654,-0.47686c-0.85435,-2.4098 -1.87948,-4.66228 -3.17014,-6.86907c-0.09224,0 -0.18448,0 -0.27951,0c-1.1898,2.47242 -1.77873,5.11241 -2.09634,7.82635c-0.01358,0.10273 -0.02716,0.20547 -0.04115,0.31131c-0.08695,0.72561 -0.10381,1.44142 -0.09861,2.17154c-0.00008,0.29494 -0.00055,0.58987 -0.00116,0.8848c0.00078,0.20165 0.00357,0.40329 0.00833,0.60488c0.03622,1.6877 0.03622,1.6877 -0.41108,2.19942c-0.32225,0.21163 -0.64418,0.37472 -0.99365,0.53634c-1.34597,1.10176 -2.61964,2.36781 -3.65987,3.76468c-0.27163,0.3091 -0.40901,0.38479 -0.81233,0.428c-0.48423,-0.63859 -0.48049,-1.17094 -0.47495,-1.93912c-0.00058,-0.12144 -0.00116,-0.24289 -0.00175,-0.36801c-0.00087,-0.39564 0.00178,-0.79115 0.00503,-1.18678c0.00056,-0.13508 0.00111,-0.27015 0.00169,-0.40932c0.01119,-2.30997 0.13808,-4.56966 0.46999,-6.858c0.01946,-0.13867 0.03891,-0.27735 0.05896,-0.42022c0.56623,-3.92297 1.79619,-7.61451 3.15543,-11.3193c0.15541,-0.42547 0.3107,-0.85098 0.46595,-1.2765c0.09015,-0.24677 0.18058,-0.49344 0.27132,-0.74c0.26255,-0.71722 0.50721,-1.43826 0.74188,-2.16506c0.6216,-1.92363 1.3696,-3.80176 2.29428,-5.60137c0.31885,0.02289 0.31885,0.02289 0.69878,0.13976c0.25355,0.32186 0.25355,0.32186 0.4886,0.75174c0.08857,0.15885 0.17714,0.3177 0.26839,0.48137c0.09416,0.17419 0.18831,0.34838 0.28245,0.52258c0.09898,0.17889 0.19823,0.35763 0.29773,0.53623c0.20304,0.36466 0.40514,0.72982 0.60666,1.09533c0.41683,0.75327 0.85194,1.49571 1.28804,2.23794c0.16053,0.2744 0.32103,0.54882 0.4815,0.82325c0.07895,0.13485 0.15791,0.26969 0.23925,0.40862c0.40688,0.69533 0.81255,1.39138 1.21836,2.08734c0.16359,0.28042 0.32719,0.56085 0.49078,0.84127c0.32076,0.54986 0.64139,1.09979 0.96192,1.64978c0.85962,1.4748 1.72058,2.94882 2.58346,4.42172c0.10266,0.17525 0.2053,0.35051 0.30791,0.52578c0.14454,0.24687 0.28918,0.49367 0.43385,0.74046c0.13485,0.23017 0.13485,0.23017 0.27242,0.46499c0.31218,0.52766 0.63183,1.05054 0.95482,1.57164c0.14412,0.26607 0.14412,0.26607 0.14412,0.54558c0.09789,-0.00073 0.19578,-0.00146 0.29664,-0.00222c2.83908,-0.0181 5.6708,0.04409 8.508,0.14197c0.03063,-0.15926 0.06125,-0.31851 0.09281,-0.4826c1.03295,-5.22336 3.33093,-9.8773 5.89542,-14.50736c0.334,-0.60432 0.65934,-1.21274 0.98157,-1.82338c0.09381,-0.17725 0.18763,-0.35449 0.28146,-0.53173c0.13745,-0.25972 0.27461,-0.51957 0.41073,-0.77999c0.50146,-0.95899 1.01196,-1.86177 1.70168,-2.69863zM245.03123,151.61493c2.26194,4.46015 2.26194,4.46015 6.00952,7.54684c0.27823,0.0537 0.55775,0.10163 0.83854,0.13976c-0.06749,-2.15749 -0.19024,-3.74414 -1.80032,-5.33667c-0.52245,-0.44754 -1.11641,-0.7415 -1.72853,-1.04844c-0.12269,-0.06423 -0.24537,-0.12845 -0.37177,-0.19462c-1.41037,-0.77422 -1.41037,-0.77422 -2.94744,-1.10686z" fill="#25292e"/><path d="M290.73152,177.19033c0.18448,0 0.36896,0 0.55903,0c0.27951,0.3483 0.27951,0.3483 0.55903,0.82107c0.09224,0.15241 0.18448,0.30482 0.27951,0.46185c1.15217,2.10395 1.68796,4.62762 2.14875,6.9627c0.02171,0.10644 0.04342,0.21288 0.06578,0.32254c0.38013,2.05924 0.32512,4.20352 0.32946,6.28968c0.0004,0.13054 0.00079,0.26108 0.0012,0.39558c0.00207,0.68962 0.00338,1.37923 0.00399,2.06886c0.00077,0.70425 0.00413,1.40846 0.0081,2.11269c0.00263,0.54942 0.00333,1.09883 0.00354,1.64825c0.00042,0.25939 0.00152,0.51877 0.00338,0.77815c0.01106,1.66 -0.11615,3.2089 -0.46787,4.83208c-0.04515,0.21067 -0.04515,0.21067 -0.09122,0.42559c-0.08089,0.36061 -0.16715,0.71929 -0.25654,1.07788c-0.03154,0.12816 -0.06308,0.25631 -0.09558,0.38835c-0.06593,0.26661 -0.13228,0.53311 -0.19905,0.79951c-0.1001,0.40088 -0.19772,0.80231 -0.29524,1.20383c-0.37241,1.50922 -0.81083,2.92721 -1.43823,4.35046c-0.06836,0.15921 -0.13671,0.31842 -0.20714,0.48246c-1.5467,3.57223 -3.20521,7.04234 -5.38311,10.27877c-0.05977,0.08974 -0.11953,0.17948 -0.18111,0.27194c-1.28606,1.92693 -2.6933,3.75367 -4.21937,5.49506c-0.28986,0.33241 -0.57564,0.66823 -0.8616,1.00399c-0.74767,0.87712 -1.50544,1.74342 -2.28476,2.59269c-0.07465,0.0817 -0.1493,0.1634 -0.22622,0.24758c-1.73475,1.89524 -1.73475,1.89524 -2.55198,2.57539c-0.41332,0.3509 -0.80789,0.72101 -1.20485,1.09021c-0.57517,0.53349 -1.15411,1.06024 -1.74859,1.57226c-0.20441,0.17991 -0.40518,0.36399 -0.60379,0.55029c-1.03687,0.97003 -2.14239,1.82231 -3.27677,2.6742c-0.3042,0.22972 -0.6063,0.46191 -0.90773,0.69523c-2.11318,1.6351 -4.26102,3.15075 -6.57411,4.49237c-0.27056,0.15698 -0.54016,0.31561 -0.80913,0.47529c-1.30149,0.76237 -2.64048,1.41427 -4.01236,2.03981c-0.16968,0.07764 -0.16968,0.07764 -0.34279,0.15684c-4.42898,2.02037 -8.9976,3.32802 -13.79879,4.11446c-0.13784,0.0236 -0.27568,0.0472 -0.41769,0.07152c-1.28569,0.20453 -2.54509,0.25365 -3.84269,0.25495c-0.21678,0.0009 -0.43356,0.00184 -0.65034,0.00282c-0.45148,0.00166 -0.90294,0.00219 -1.35443,0.00203c-0.45751,-0.00002 -0.91495,0.00192 -1.37245,0.00573c-4.84383,0.03973 -4.84383,0.03973 -6.89705,-0.61655c-0.23574,-0.06884 -0.23574,-0.06884 -0.47625,-0.13907c-0.44195,-0.13347 -0.87796,-0.2782 -1.31438,-0.42869c-0.15666,-0.0532 -0.31331,-0.1064 -0.47471,-0.16122c-1.22889,-0.42214 -2.44906,-0.86728 -3.66557,-1.32369c-0.16454,-0.06135 -0.32907,-0.12271 -0.4986,-0.18592c-1.40214,-0.53428 -2.75864,-1.13929 -3.99981,-1.98904c-0.13728,-0.09296 -0.27456,-0.18592 -0.41599,-0.2817c-0.3352,-0.24239 -0.3352,-0.24239 -0.61471,-0.5219c-0.01747,-0.36686 -0.01747,-0.36686 0,-0.69878c0.92732,-0.56025 2.1523,-0.1402 3.15363,0.07152c6.77001,1.38885 14.29622,-0.27285 20.50012,-2.98019c0.10616,-0.04585 0.21233,-0.09169 0.32171,-0.13892c2.27028,-0.9851 4.29655,-2.23288 6.21189,-3.80046c0.07663,-0.06224 0.15327,-0.12449 0.23222,-0.18862c1.90961,-1.56116 3.73304,-3.28719 5.21827,-5.26188c0.1643,-0.21565 0.1643,-0.21565 0.33192,-0.43565c4.10106,-5.49365 7.11318,-12.51539 7.35467,-19.40974c0.00601,-0.15974 0.00601,-0.15974 0.01215,-0.32271c0.12041,-3.76685 -0.28105,-7.57288 -0.77207,-11.30327c-0.02038,-0.15946 -0.02038,-0.15946 -0.04116,-0.32214c-0.26752,-2.06537 -0.82807,-3.85867 -1.74947,-5.73106c-0.07993,-0.16497 -0.15986,-0.32993 -0.24222,-0.49989c-0.48883,-0.99606 -1.00226,-1.9479 -1.63849,-2.85699c-0.21887,-0.41988 -0.21547,-0.71821 -0.1807,-1.1852c1.58105,-0.6657 3.35965,-0.14541 4.89529,0.44111c0.28183,0.12466 0.55908,0.25962 0.83472,0.39743c0.13349,-0.10287 0.26699,-0.20574 0.40453,-0.31172c2.1543,-1.63578 2.1543,-1.63578 3.22913,-1.92438c0.32155,0.05459 0.32155,0.05459 0.55903,0.13976c0,0.18448 0,0.36896 0,0.55903c0.09224,0 0.18448,0 0.27951,0c1.85743,2.07341 2.88472,4.69018 3.9159,7.2329c0.10984,0.30376 0.10984,0.30376 0.27678,0.4537c0.06612,-0.1371 0.13223,-0.2742 0.20035,-0.41545c1.05977,-2.17443 2.19307,-4.1016 3.85258,-5.87358c0.08641,-0.09253 0.17281,-0.18506 0.26184,-0.2804c1.2088,-1.28113 2.44709,-2.40094 3.93085,-3.35326c0.18295,-0.12187 0.18295,-0.12187 0.36959,-0.24621c0.32919,-0.17306 0.32919,-0.17306 0.88822,-0.17306c0.18407,0.66641 0.12464,1.27774 0.06114,1.95659c-0.01221,0.13067 -0.02441,0.26134 -0.03699,0.39596c-0.35807,3.48894 -1.01359,6.95991 -1.84099,10.36527c-0.03918,0.16579 -0.07837,0.33157 -0.11874,0.50239c-0.63851,2.68864 -1.45608,5.2822 -2.38199,7.88405c-0.19623,0.55273 -0.38469,1.10731 -0.5667,1.66488c-0.31449,0.96275 -0.664,1.89726 -1.07284,2.82373c-0.05974,0.13598 -0.11949,0.27197 -0.18104,0.41207c-1.56483,3.5088 -3.4626,7.21793 -6.15931,9.99923c-0.77156,0.91417 -1.05285,1.91726 -1.38118,3.04898c-0.41767,1.40148 -0.8734,2.77337 -1.41503,4.13154c2.62149,-1.29836 4.45179,-3.12855 6.34199,-5.32985c0.26773,-0.30773 0.54448,-0.60648 0.82052,-0.90678c0.78037,-0.86708 1.49247,-1.78231 2.20116,-2.70778c0.11954,-0.15521 0.11954,-0.15521 0.2415,-0.31356c1.93804,-2.522 3.73705,-5.1086 5.20899,-7.93206c0.06738,-0.12809 0.13476,-0.25618 0.20418,-0.38815c2.38388,-4.55599 3.99016,-9.36624 4.0169,-14.55758c0.00098,-0.12819 0.00196,-0.25639 0.00297,-0.38847c0.00243,-0.41189 0.00333,-0.82376 0.00358,-1.23565c0.00009,-0.1409 0.00019,-0.28179 0.00029,-0.42696c-0.00228,-2.14476 -0.07593,-4.22649 -0.45449,-6.34249c-0.02324,-0.13852 -0.04648,-0.27703 -0.07042,-0.41975c-0.32933,-1.9275 -0.84874,-3.70434 -1.59744,-5.50904c-0.15321,-0.37051 -0.30204,-0.74253 -0.44977,-1.11525c-0.18461,-0.46561 -0.37009,-0.93084 -0.55739,-1.39538c-0.04171,-0.10438 -0.08341,-0.20875 -0.12638,-0.31629c-0.09598,-0.23617 -0.19477,-0.47121 -0.29534,-0.70547c-0.05252,-0.12437 -0.10503,-0.24875 -0.15914,-0.37689c-0.04878,-0.1131 -0.09755,-0.22621 -0.14781,-0.34274c-0.09021,-0.30091 -0.09021,-0.30091 0.04954,-0.72017c0.23205,-0.09622 0.23205,-0.09622 0.53773,-0.15941c0.11469,-0.02511 0.22938,-0.05022 0.34755,-0.07609c0.12582,-0.02605 0.25163,-0.05211 0.38126,-0.07895c2.29739,-0.5126 4.54334,-1.15739 6.74129,-2.00132c1.03632,-0.39195 2.09231,-0.65871 3.17267,-0.89862c0.04612,-0.18448 0.09224,-0.36896 0.13976,-0.55903z" fill="#393f46"/><path d="M206.89524,116.33521c0.15335,0.0187 0.3067,0.03739 0.4647,0.05665c2.58454,0.31811 5.10489,0.73131 7.62369,1.40205c0.13611,0.03612 0.13611,0.03612 0.27497,0.07297c4.34168,1.15815 7.66167,3.04009 11.05402,5.96276c2.31777,1.98767 4.85476,3.77848 7.44857,5.38662c0.09019,0.05614 0.18038,0.11228 0.2733,0.17012c0.23198,0.14287 0.46568,0.28295 0.69953,0.42275c0.75717,0.57284 1.01762,1.23824 1.16937,2.14056c0.1279,1.10956 0.23647,2.51734 -0.44704,3.46763c-0.49656,0.37887 -0.95832,0.33262 -1.55649,0.31507c-0.11865,-0.00112 -0.2373,-0.00224 -0.35955,-0.0034c-0.37994,-0.00405 -0.75969,-0.01189 -1.13956,-0.02007c-0.49605,-0.00794 -0.99211,-0.01436 -1.48819,-0.0202c-0.1214,-0.0016 -0.24279,-0.0032 -0.36787,-0.00485c-0.83978,-0.00804 -1.66646,0.03223 -2.50362,0.10226c-4.21065,0.31917 -8.33873,-0.18981 -12.49843,-0.8022c-0.12932,-0.01885 -0.25865,-0.0377 -0.39189,-0.05712c-0.84242,-0.12287 -1.68423,-0.24928 -2.52552,-0.37962c-0.10487,-0.01618 -0.20974,-0.03237 -0.3178,-0.04904c-1.26835,-0.19784 -2.51995,-0.4378 -3.76942,-0.73344c-0.47816,-0.1115 -0.88649,-0.17834 -1.38075,-0.17834c0.60366,1.44561 1.47146,2.48868 2.51561,3.63366c0.11674,0.13043 0.23348,0.26086 0.35376,0.39525c0.20726,0.23139 0.41539,0.462 0.62454,0.69168c0.25393,0.2822 0.49825,0.57034 0.74246,0.86092c2.35641,2.69149 5.72739,5.28662 9.3937,5.63229c1.40879,0.04338 2.10681,-0.62712 3.10084,-1.54769c0.34656,-0.3282 0.68957,-0.65488 1.01815,-1.00122c0.1062,-0.10728 0.1062,-0.10728 0.21455,-0.21673c0.94391,-1.00411 1.59843,-2.22747 2.25848,-3.42894c0.28474,-0.50835 0.51844,-0.89698 0.96847,-1.272c0.71821,-0.1729 1.43192,-0.1565 2.14875,0.0262c0.3341,0.2211 0.3341,0.2211 0.55903,0.55903c0.01803,0.38895 0.00585,0.68757 -0.05241,1.06564c-0.0146,0.10022 -0.02921,0.20044 -0.04425,0.3037c-0.25374,1.49829 -1.18182,2.48897 -2.1509,3.60401c-0.40336,0.46669 -0.78208,0.94985 -1.15899,1.43796c-2.56713,3.29255 -2.56713,3.29255 -4.14028,4.34991c-0.09224,0 -0.18448,0 -0.27951,0c-0.04612,0.13836 -0.09224,0.27672 -0.13976,0.41927c-4.15978,1.15498 -7.76797,-0.1094 -11.40467,-2.16199c-2.5965,-1.50306 -5.03565,-3.28591 -7.18291,-5.38485c-0.10053,-0.09512 -0.20105,-0.19024 -0.30462,-0.28825c-0.63497,-0.61274 -1.19271,-1.27383 -1.74422,-1.96205c-0.32595,-0.40376 -0.66213,-0.79705 -0.99958,-1.1912c-0.79984,-0.95807 -1.51413,-1.97078 -2.21795,-3.00073c-0.15351,-0.22184 -0.3128,-0.43968 -0.47345,-0.6564c-1.44739,-2.04127 -1.87096,-4.73239 -2.22627,-7.1565c-0.01441,-0.09501 -0.02882,-0.19002 -0.04367,-0.28791c-0.4275,-3.05127 0.13454,-5.76963 1.30056,-8.58297c0.09712,-0.24372 0.18638,-0.49067 0.26907,-0.73966c0.32733,-0.9496 0.32733,-0.9496 0.85809,-1.2648c0.15583,-0.03441 0.31167,-0.06882 0.47222,-0.10427c0.23321,-0.05648 0.23321,-0.05648 0.47113,-0.1141c0.14719,-0.02864 0.29437,-0.05729 0.44602,-0.0868c0.153,-0.03631 0.153,-0.03631 0.30909,-0.07336c2.04396,-0.34827 4.24333,0.03985 6.27692,0.29173zM213.58607,124.36246c-0.0788,1.86198 0.17171,3.16323 1.39756,4.61196c0.72101,0.48068 1.52817,0.51229 2.37586,0.41927c1.03053,-0.25653 1.86178,-0.69569 2.65537,-1.39756c0.07801,-0.06828 0.15601,-0.13656 0.23638,-0.2069c0.2265,-0.22395 0.2265,-0.22395 0.24403,-0.66657c-0.14254,-1.22177 -0.99986,-1.97022 -1.87797,-2.76019c-0.39484,-0.19742 -0.72773,-0.15789 -1.16882,-0.15832c-0.26821,-0.00027 -0.26821,-0.00027 -0.54183,-0.00055c-0.09344,0.00029 -0.18689,0.00059 -0.28316,0.00089c-0.2834,0.00074 -0.56677,0.00001 -0.85017,-0.00089c-0.17934,0.00018 -0.35869,0.00036 -0.54347,0.00055c-0.16436,0.00016 -0.32871,0.00032 -0.49805,0.00048c-0.39949,0.01616 -0.75757,0.06597 -1.14572,0.15784z" fill="#25292e"/><path d="M237.06512,182.50106c1.04213,0.24557 1.80668,0.62903 2.65537,1.27528c0.16496,0.12289 0.16496,0.12289 0.33325,0.24826c0.81717,0.61535 1.58938,1.25585 2.32212,1.97037c0.12823,0.12089 0.12823,0.12089 0.25904,0.24423c1.42432,1.34396 2.64991,2.73279 3.7408,4.36008c0.1735,0.25834 0.351,0.5132 0.53023,0.76757c2.40832,3.54014 3.61602,7.65565 4.41433,11.81814c0.02506,0.1291 0.05013,0.25821 0.07595,0.39122c0.79781,4.26157 0.37973,8.70056 -0.63498,12.88562c-0.05104,0.21352 -0.05104,0.21352 -0.10311,0.43135c-0.56206,2.30144 -1.38696,4.42314 -2.4125,6.55647c-0.04686,0.09872 -0.09373,0.19745 -0.14201,0.29917c-0.86395,1.79678 -2.13586,3.28537 -3.49165,4.73206c-0.08954,0.10179 -0.17907,0.20357 -0.27132,0.30845c-0.12512,0.13701 -0.12512,0.13701 -0.25276,0.27678c-0.07134,0.07981 -0.14268,0.15962 -0.21619,0.24184c-0.23802,0.15122 -0.23802,0.15122 -0.54618,0.1428c-0.55386,-0.18621 -0.88873,-0.55492 -1.28832,-0.96335c-0.08713,-0.08683 -0.17427,-0.17365 -0.26404,-0.26311c-0.28779,-0.28746 -0.57352,-0.57687 -0.85926,-0.86637c-0.20021,-0.2009 -0.40054,-0.40169 -0.60098,-0.60237c-0.42024,-0.42131 -0.83955,-0.8435 -1.25816,-1.26642c-0.53434,-0.53985 -1.07016,-1.07821 -1.60659,-1.61599c-0.51359,-0.51499 -1.02649,-1.03066 -1.53929,-1.54644c-0.09692,-0.0974 -0.19384,-0.19479 -0.2937,-0.29514c-0.94299,-0.94855 -1.87621,-1.8945 -2.74272,-2.91434c-0.18164,-0.19494 -0.36467,-0.38862 -0.55029,-0.57977c-2.64203,-2.74484 -2.64203,-2.74484 -2.69031,-3.72647c0.18162,-0.4875 0.34634,-0.78664 0.72499,-1.14425c0.48056,-0.18463 0.68211,-0.14602 1.16991,0.03712c0.19003,0.09122 0.37941,0.18378 0.56831,0.27733c4.26831,1.99146 9.28235,3.91495 14.05424,3.31921c0.09224,-0.04612 0.18448,-0.09224 0.27951,-0.13976c0.21619,-0.73263 0.29451,-1.37807 0.28716,-2.14166c-0.0011,-0.14911 -0.00221,-0.29822 -0.00334,-0.45185c-0.00142,-0.11265 -0.00284,-0.22531 -0.0043,-0.34137c-0.08608,-0.00977 -0.17216,-0.01955 -0.26085,-0.02962c-12.36472,-1.41545 -12.36472,-1.41545 -13.99429,-3.04502c-0.16554,-0.93582 -0.16577,-1.85747 -0.16565,-2.80502c-0.00031,-0.28734 -0.00286,-0.57461 -0.00549,-0.86194c-0.00027,-0.1825 -0.00054,-0.36499 -0.00082,-0.55302c-0.00057,-0.16576 -0.00115,-0.33153 -0.00174,-0.50232c0.03382,-0.44694 0.10196,-0.75353 0.31346,-1.14746c0.35703,-0.13048 0.35703,-0.13048 0.82107,-0.2009c3.9812,-0.73455 8.71883,-2.43752 11.33773,-5.72127c0.59,-0.94081 1.03698,-2.04691 0.97829,-3.16199c-0.0717,0.06287 -0.1434,0.12575 -0.21728,0.19053c-3.51244,2.95069 -7.9216,4.75974 -12.31711,5.89761c-0.14244,0.03698 -0.14244,0.03698 -0.28776,0.0747c-1.83298,0.47128 -1.83298,0.47128 -2.41128,0.40571c-0.25849,-0.2893 -0.45597,-0.55081 -0.66384,-0.87348c-0.12228,-0.18047 -0.24475,-0.3608 -0.36741,-0.54101c-0.09164,-0.1367 -0.09164,-0.1367 -0.18514,-0.27617c-0.45389,-0.66622 -0.95181,-1.30102 -1.43898,-1.94301c-0.08629,-0.11692 -0.17259,-0.23384 -0.2615,-0.3543c-0.38845,-0.51823 -0.75751,-0.95536 -1.26709,-1.35771c-0.41511,-0.33921 -0.41511,-0.33921 -0.53282,-0.75119c0.14485,-0.4587 0.43023,-0.59444 0.8036,-0.89095c0.1726,-0.19822 0.33847,-0.40246 0.49788,-0.61143c0.46076,-0.58957 0.93553,-1.16275 1.42377,-1.72948c0.07106,-0.08266 0.14212,-0.16531 0.21533,-0.25048c0.36206,-0.42062 0.72532,-0.84016 1.08942,-1.259c0.8542,-0.98527 1.67055,-1.98882 2.45577,-3.03015c0.20131,-0.26509 0.4052,-0.52805 0.60959,-0.79077c0.92912,-1.19788 1.8185,-2.41657 2.67434,-3.66809c0.47031,-0.68332 0.96441,-1.31724 1.51562,-1.93745z" fill="#25292e"/><path d="M291.29055,167.6869c2.05552,0.53915 4.03191,1.36971 5.73001,2.65537c0.11007,0.08089 0.22015,0.16178 0.33356,0.24512c0.97504,0.74618 1.85434,1.59998 2.74381,2.4441c0.4151,0.39367 0.83554,0.78037 1.26064,1.16319c0.60667,0.54675 1.17075,1.09908 1.6939,1.72583c0.26129,0.29624 0.53858,0.57082 0.82236,0.8454c0.75861,0.73584 1.37373,1.49503 1.95038,2.38101c0.12739,0.1864 0.25517,0.37254 0.38324,0.55848c1.6619,2.42749 3.04575,4.91198 3.97541,7.71334c0.03328,0.09682 0.06657,0.19364 0.10086,0.2934c0.69686,2.19542 0.78798,4.48006 0.77262,6.76429c-0.00064,0.20215 -0.00064,0.20215 -0.00129,0.40838c-0.00898,1.93023 -0.09306,3.79476 -0.53106,5.68214c-0.09378,0.40785 -0.17601,0.81712 -0.25761,1.22758c-0.66608,3.22899 -1.74166,6.36912 -3.00967,9.40898c-0.05912,0.14259 -0.11825,0.28518 -0.17917,0.4321c-0.59503,1.37911 -1.41672,2.59084 -2.29277,3.80426c-0.69735,0.97588 -1.36508,1.96929 -2.02647,2.96982c-0.885,1.33623 -1.79656,2.64779 -2.74852,3.93713c-0.1786,0.24194 -0.35595,0.48473 -0.53303,0.72778c-1.98509,2.6948 -4.29505,5.13568 -6.78964,7.36286c-0.1371,0.12305 -0.2742,0.24609 -0.41545,0.37287c-0.80944,0.70032 -1.65925,1.31707 -2.54564,1.91564c-0.10292,0.06992 -0.20585,0.13984 -0.31189,0.21189c-1.90457,1.25865 -1.90457,1.25865 -2.8763,1.13327c-0.04612,-0.18448 -0.09224,-0.36896 -0.13976,-0.55903c0.13836,-0.04612 0.27672,-0.09224 0.41927,-0.13976c0.09819,-0.23086 0.19054,-0.46422 0.27951,-0.69878c0.16651,-0.24001 0.34001,-0.47527 0.51863,-0.70642c0.59573,-0.80299 1.0649,-1.63971 1.52531,-2.52544c0.17022,-0.32243 0.34074,-0.6447 0.51153,-0.96683c0.12893,-0.24331 0.12893,-0.24331 0.26047,-0.49154c0.3242,-0.60247 0.66187,-1.19656 1.00132,-1.79052c4.36507,-7.65213 8.35409,-16.85075 9.18007,-25.66319c0.01991,-0.19984 0.01991,-0.19984 0.04023,-0.40371c0.12562,-1.40164 0.12759,-2.80215 0.12573,-4.20825c-0.0002,-0.19155 -0.0002,-0.19155 -0.0004,-0.38697c-0.00409,-1.84105 -0.02453,-3.65968 -0.30532,-5.48279c-0.0218,-0.14498 -0.0436,-0.28996 -0.06606,-0.43933c-1.04389,-6.75244 -3.26546,-15.03445 -8.13589,-20.12231c-0.51516,-0.54081 -0.61599,-0.91511 -0.6027,-1.65961c0.04612,-0.04612 0.09224,-0.09224 0.13976,-0.13976z" fill="#393f46"/><path d="M226.86291,217.30037c0.32046,0.02566 0.32046,0.02566 0.69878,0.13976c0.24294,0.31063 0.24294,0.31063 0.46294,0.70752c0.39253,0.65904 0.80666,1.16108 1.36099,1.6869c0.51811,0.49631 0.97114,1.05163 1.43666,1.59676c0.97031,1.13466 1.95937,2.24545 2.98804,3.32774c0.51272,0.54027 1.01016,1.09074 1.49842,1.65323c0.26387,0.30329 0.53357,0.60095 0.80428,0.89815c0.58751,0.65057 1.15797,1.31449 1.726,1.98201c0.52791,0.61884 1.0701,1.22266 1.62433,1.81816c0.27471,0.32604 0.49888,0.61514 0.6764,1.00395c-0.1579,0.43169 -0.35677,0.65934 -0.72826,0.92152c-0.13773,0.09782 -0.13773,0.09782 -0.27825,0.19762c-0.10022,0.06882 -0.20044,0.13764 -0.3037,0.20854c-0.10536,0.07314 -0.21071,0.14629 -0.31926,0.22164c-1.74197,1.19331 -3.5741,2.23999 -5.41948,3.26353c-0.12056,0.06765 -0.24111,0.1353 -0.36532,0.20499c-1.6156,0.88294 -3.31285,1.41205 -5.0939,1.84768c-0.09713,0.0241 -0.19426,0.04819 -0.29433,0.07302c-1.63626,0.40432 -3.26928,0.71392 -4.94653,0.8878c-0.15694,0.01792 -0.15694,0.01792 -0.31705,0.0362c-1.17668,0.12329 -2.34969,0.12646 -3.53116,0.12703c-0.2196,0.00045 -0.4392,0.00092 -0.65881,0.00141c-0.45679,0.00083 -0.91357,0.0011 -1.37035,0.00101c-0.58603,-0.00001 -1.17204,0.00191 -1.75806,0.0043c-0.45187,0.00155 -0.90373,0.00184 -1.3556,0.00176c-0.21626,0.00017 -0.43252,0.00078 -0.64878,0.00186c-0.30068,0.00136 -0.60131,0.00097 -0.902,0.00013c-0.17102,0.0002 -0.34204,0.0004 -0.51824,0.0006c-0.39997,-0.03455 -0.39997,-0.03455 -0.67948,-0.31407c0.05128,-0.25363 0.05128,-0.25363 0.13976,-0.55903c0.01253,-0.23096 0.01787,-0.46236 0.01808,-0.69366c0.00043,-0.13868 0.00087,-0.27737 0.00132,-0.42026c-0.00028,-0.15017 -0.00055,-0.30034 -0.00084,-0.45506c0.00028,-0.2355 0.00028,-0.2355 0.00056,-0.47576c0.00027,-0.51218 -0.00062,-1.02434 -0.00165,-1.53651c-0.00012,-0.17424 -0.00025,-0.34848 -0.00038,-0.528c-0.00188,-2.25069 -0.02782,-4.49783 -0.10649,-6.74707c-0.04314,-1.24675 -0.06585,-2.49195 -0.06783,-3.73947c-0.00063,-0.15569 -0.00126,-0.31137 -0.00191,-0.47178c0.00477,-2.58967 0.00477,-2.58967 0.43865,-3.2405c0.3533,-0.03411 0.67208,-0.04197 1.0247,-0.03112c0.15501,0.00208 0.15501,0.00208 0.31316,0.00421c0.2219,0.00301 0.4438,0.00685 0.66567,0.01144c0.5781,0.01125 1.15621,0.0141 1.73441,0.01656c0.11355,0.00052 0.2271,0.00105 0.34409,0.00159c3.94031,0.00862 7.44184,-0.92048 10.88445,-2.80228c0.26696,-0.13529 0.26696,-0.13529 0.68623,-0.27504c0.10247,-0.28162 0.10247,-0.28162 0.13976,-0.55903z" fill="#25292e"/><path d="M178.08798,174.11569c0.3031,0.07072 0.55898,0.13973 0.83854,0.27951c0.04324,0.13548 0.08647,0.27095 0.13102,0.41053c0.47971,1.18233 1.85886,2.01237 2.83607,2.77875c0.28814,0.22677 0.57331,0.45577 0.8571,0.68786c1.19606,0.97489 2.43061,1.87554 3.69651,2.75712c0.5124,0.35841 1.021,0.722 1.52852,1.08727c0.10208,0.07338 0.20416,0.14676 0.30933,0.22236c0.59419,0.43013 1.17979,0.86974 1.76026,1.31823c0.19639,0.15153 0.19639,0.15153 0.39675,0.30613c0.25398,0.19673 0.50724,0.3944 0.75965,0.59315c0.63949,0.49589 1.21692,0.88422 1.97993,1.15886c-0.09891,0.58233 -0.37453,0.76737 -0.82598,1.13388c-0.4676,0.42215 -0.84412,0.91154 -1.23488,1.40411c-0.19546,0.24627 -0.39465,0.48968 -0.59942,0.72826c-1.26569,1.49216 -2.19242,3.2601 -2.79021,5.11912c-0.0445,0.12989 -0.089,0.25978 -0.13484,0.39361c-0.23057,0.79797 -0.29432,1.44389 -0.23584,2.27049c0.15335,2.35121 0.15335,2.35121 -0.23447,2.91857c-0.47412,0.42166 -1.01675,0.66572 -1.61185,0.87247c-0.28633,0.10873 -0.54156,0.23804 -0.81027,0.38424c-0.62501,0.31607 -1.2512,0.48022 -1.93188,0.63375c-0.12518,0.02924 -0.25035,0.05847 -0.37932,0.08859c-0.26435,0.06138 -0.52886,0.12207 -0.79352,0.18208c-0.39509,0.08979 -0.7895,0.18219 -1.1839,0.27497c-2.59843,0.60339 -5.18015,0.96193 -7.83891,1.15272c-0.3429,0.02529 -0.68578,0.05089 -1.02862,0.07695c-0.20995,0.0159 -0.41994,0.03133 -0.62997,0.04621c-0.5079,0.0378 -0.99793,0.09507 -1.49465,0.20876c-0.33874,-0.50811 -0.33642,-0.91273 -0.35813,-1.50238c-0.00877,-0.19436 -0.01769,-0.3887 -0.02675,-0.58305c-0.00476,-0.10923 -0.00953,-0.21846 -0.01443,-0.331c-0.02363,-0.44836 -0.0578,-0.89559 -0.09093,-1.34335c-0.22867,-3.40272 -0.26692,-6.87677 0.49024,-10.21586c0.04047,-0.17903 0.04047,-0.17903 0.08175,-0.36167c0.96112,-4.02439 3.0561,-8.4278 5.64825,-11.65736c0.07508,-0.09422 0.15016,-0.18844 0.22751,-0.28552c0.46035,-0.57589 0.92534,-1.1477 1.39647,-1.71481c0.17417,-0.21294 0.34172,-0.43126 0.50839,-0.65013c0.12052,-0.14079 0.12052,-0.14079 0.24348,-0.28443c0.09224,0 0.18448,0 0.27951,0c0.09224,-0.18448 0.18448,-0.36896 0.27951,-0.55903z" fill="#25292e"/><path d="M187.57612,203.45522c0.46834,0.23677 0.60423,0.68038 0.81888,1.13607c1.38824,2.76634 3.29417,5.25609 5.20592,7.67786c0.06501,0.08262 0.13003,0.16525 0.19701,0.25037c1.29988,1.80609 1.29988,1.80609 3.01738,3.10378c-0.13755,0.50435 -0.34804,0.78401 -0.72226,1.13061c-0.58106,0.56914 -1.02436,1.20239 -1.47891,1.87415c-0.17177,0.2498 -0.34374,0.49947 -0.5159,0.74901c-0.08415,0.12223 -0.16831,0.24447 -0.25501,0.37041c-0.33684,0.48377 -0.68564,0.95801 -1.03719,1.43114c-0.78714,1.06497 -1.53584,2.15389 -2.27977,3.24933c-0.15854,0.23306 -0.31708,0.46613 -0.47563,0.69918c-0.29291,0.43067 -0.58561,0.86149 -0.87826,1.29234c-0.05615,0.08266 -0.1123,0.16532 -0.17016,0.25049c-0.11076,0.1631 -0.22144,0.32625 -0.33206,0.48945c-0.10815,0.15935 -0.21659,0.3185 -0.32533,0.47745c-0.26873,0.3942 -0.52971,0.79096 -0.77945,1.19751c-0.14413,0.23037 -0.14413,0.23037 -0.29118,0.4654c-0.12588,0.20747 -0.12588,0.20747 -0.2543,0.41913c-0.26706,0.2993 -0.26706,0.2993 -0.61659,0.36345c-0.36903,-0.06778 -0.56512,-0.1554 -0.86843,-0.37205c-0.09487,-0.06699 -0.18975,-0.13399 -0.2875,-0.20302c-0.09987,-0.07353 -0.19975,-0.14705 -0.30265,-0.2228c-0.10492,-0.07587 -0.20984,-0.15174 -0.31793,-0.2299c-1.78725,-1.30989 -3.39948,-2.82053 -5.00154,-4.34712c-0.11098,-0.10503 -0.22195,-0.21006 -0.33629,-0.31827c-0.74709,-0.72485 -1.39313,-1.52252 -2.03957,-2.3371c-0.12572,-0.15652 -0.25147,-0.31301 -0.37723,-0.46949c-1.32454,-1.65655 -2.4871,-3.35768 -3.49984,-5.22141c-0.18678,-0.33841 -0.37985,-0.67269 -0.57383,-1.00702c-0.82676,-1.443 -1.53223,-2.9113 -2.14384,-4.45637c-0.09847,-0.24611 -0.09847,-0.24611 -0.19892,-0.4972c-0.33746,-0.87762 -0.57894,-1.66094 -0.61341,-2.60364c0.13976,-0.13976 0.13976,-0.13976 0.38542,-0.14726c0.10917,0.0032 0.21835,0.0064 0.33083,0.00969c0.97801,0.00902 1.94474,-0.08352 2.91741,-0.17688c0.09747,-0.00926 0.19494,-0.01852 0.29536,-0.02806c4.51766,-0.43377 9.89961,-3.86205 13.80474,-3.99922z" fill="#25292e"/><path d="M200.16946,216.60159c0.23196,0.11856 0.46171,0.24146 0.69005,0.36686c1.25028,0.63659 2.58722,1.02902 3.92191,1.44997c0.16599,0.05283 0.16599,0.05283 0.33533,0.10673c1.2137,0.39028 1.2137,0.39028 2.44341,0.72471c0.14376,0.04846 0.28753,0.09692 0.43565,0.14685c0.1435,0.43051 0.15831,0.72669 0.16006,1.17783c0.00132,0.23632 0.00132,0.23632 0.00266,0.47741c0.00017,0.17295 0.00034,0.3459 0.00051,0.52409c0.00087,0.27307 0.00087,0.27307 0.00176,0.55166c0.00161,0.6037 0.00135,1.2074 0.00097,1.8111c0.00001,0.20778 0.00002,0.41556 0.00003,0.62334c-0.00105,3.18359 -0.04819,6.36497 -0.1397,9.54723c-0.00883,0.3114 -0.01718,0.6228 -0.02542,0.93421c-0.01554,0.57996 -0.03362,1.15981 -0.05218,1.73969c-0.00467,0.17295 -0.00935,0.3459 -0.01416,0.52409c-0.00557,0.15755 -0.01115,0.31509 -0.01689,0.47741c-0.00434,0.13717 -0.00869,0.27434 -0.01317,0.41567c-0.04422,0.34289 -0.04422,0.34289 -0.32374,0.76216c-2.67149,0.8905 -6.33206,-0.72575 -8.80464,-1.67708c-0.1505,-0.05733 -0.30099,-0.11467 -0.45605,-0.17374c-6.2297,-2.39306 -6.2297,-2.39306 -8.34859,-4.43822c-0.13976,-0.41927 -0.13976,-0.41927 0.02238,-0.78504c0.71884,-1.23103 1.49448,-2.41651 2.29069,-3.59872c0.72595,-1.07909 1.44155,-2.16496 2.15667,-3.25124c0.22259,-0.33799 0.44551,-0.67575 0.66844,-1.01351c0.74213,-1.12615 1.47575,-2.25717 2.19628,-3.39728c0.06782,-0.1073 0.13564,-0.2146 0.20551,-0.32515c1.17238,-1.74463 1.17238,-1.74463 1.82369,-3.70103c0.35939,-0.1797 0.46224,-0.12521 0.83854,0z" fill="#25292e"/><path d="M221.41242,173.83618c0.28825,0.06114 0.28825,0.06114 0.55903,0.13976c0,0.09224 0,0.18448 0,0.27951c0.12039,0.03731 0.24078,0.07463 0.36481,0.11307c0.47266,0.16607 0.89911,0.36552 1.34502,0.59335c0.16948,0.08595 0.33897,0.17189 0.50846,0.25781c0.08826,0.045 0.17652,0.09 0.26746,0.13636c1.8909,0.96282 3.80205,1.87272 5.73428,2.74993c0.46461,0.21139 0.92841,0.4245 1.39204,0.63805c0.30444,0.14013 0.60888,0.28025 0.91333,0.42036c0.14014,0.06454 0.28028,0.12908 0.42466,0.19558c0.13027,0.05977 0.26055,0.11953 0.39477,0.18111c0.11373,0.05227 0.22747,0.10453 0.34465,0.15839c0.33963,0.15071 0.68254,0.28989 1.02835,0.42575c-0.082,0.57968 -0.41385,0.99072 -0.75119,1.44997c-0.06206,0.08565 -0.12413,0.1713 -0.18807,0.25955c-0.56645,0.7757 -1.15801,1.53086 -1.75542,2.28281c-0.36459,0.45898 -0.72246,0.92283 -1.07874,1.38828c-1.14036,1.48671 -2.2937,2.96327 -3.49391,4.40232c-0.0606,0.07267 -0.1212,0.14534 -0.18363,0.22021c-0.92543,1.10549 -1.88603,2.17141 -2.88043,3.21538c-0.36149,0.38039 -0.70559,0.75219 -1.02599,1.16872c-0.24239,0.28716 -0.24239,0.28716 -0.62672,0.33083c-0.15565,-0.02162 -0.15565,-0.02162 -0.31445,-0.04367c0,-0.09224 0,-0.18448 0,-0.27951c-0.07634,-0.03754 -0.15268,-0.07508 -0.23133,-0.11376c-0.37006,-0.18719 -0.73414,-0.38375 -1.09853,-0.58175c-1.68619,-0.9138 -3.37121,-1.82507 -5.09892,-2.65864c-0.14268,-0.07008 -0.28536,-0.14016 -0.43237,-0.21236c-0.78434,-0.37385 -1.51012,-0.6009 -2.36275,-0.76593c-0.13976,-0.13976 -0.13976,-0.13976 -0.18561,-0.49297c0.06205,-0.65668 0.3227,-1.11136 0.63982,-1.68199c0.09426,-0.17432 0.09426,-0.17432 0.19042,-0.35215c0.52353,-0.96162 1.07013,-1.91014 1.61757,-2.85828c0.82582,-1.43668 1.59961,-2.90124 2.37807,-4.36387c0.44616,-0.83761 0.89867,-1.67175 1.35178,-2.50562c0.5901,-1.0862 1.17461,-2.17501 1.74689,-3.27073c0.35229,-0.67148 0.35229,-0.67148 0.50668,-0.82588z" fill="#25292e"/><path d="M172.21821,143.78858c0.51751,0.0454 0.84033,0.1994 1.24853,0.51153c0.10113,0.07581 0.20227,0.15162 0.30647,0.22973c0.10658,0.0811 0.21317,0.16221 0.32298,0.24577c5.34667,3.94522 11.36613,4.70547 17.82766,4.0442c0.36783,1.01421 0.59004,2.02362 0.78613,3.08337c0.03027,0.15827 0.06053,0.31653 0.09172,0.47959c0.05769,0.30572 0.11366,0.61178 0.16767,0.91817c0.0444,0.25114 0.09185,0.50179 0.14453,0.75133c0.08654,0.4653 0.11838,0.70201 -0.1517,1.10242c-4.65717,3.50356 -10.79814,5.65648 -16.53873,6.45936c-0.33988,0.04984 -0.66067,0.11063 -0.99085,0.20308c-2.9524,-3.54085 -3.8393,-9.90914 -3.80836,-14.35996c-0.00108,-0.15764 -0.00216,-0.31527 -0.00328,-0.47768c0.00601,-2.59969 0.00601,-2.59969 0.59724,-3.19092z" fill="#25292e"/><path d="M180.8831,126.59856c0.05823,0.23293 0.11646,0.46585 0.1747,0.69878c0.03927,0.15403 0.07855,0.30806 0.11901,0.46676c0.08373,0.34109 0.16163,0.68367 0.23366,1.02743c0.49646,2.25686 1.46262,4.29106 2.96655,6.05265c0.14593,0.17241 0.14593,0.17241 0.2948,0.3483c0.31329,0.35788 0.63524,0.7046 0.96301,1.04926c0.06702,0.07082 0.13403,0.14165 0.20308,0.21462c1.92392,2.02048 4.00279,3.64767 6.67882,4.55293c0.24567,0.12392 0.24567,0.12392 0.38542,0.54319c-0.07081,0.27954 -0.15466,0.55582 -0.24457,0.8298c-0.30157,0.99548 -0.46304,1.9849 -0.60065,3.01483c-0.01563,0.11576 -0.03126,0.23152 -0.04736,0.35079c-0.01328,0.10392 -0.02655,0.20783 -0.04023,0.3149c-0.04548,0.2414 -0.04548,0.2414 -0.18524,0.38116c-3.6911,0.64914 -7.52838,0.34073 -11.04074,-0.97829c-0.14718,-0.05489 -0.14718,-0.05489 -0.29732,-0.11089c-2.38674,-0.90448 -4.58502,-2.14627 -6.35147,-4.01792c-0.21983,-0.23379 -0.21983,-0.23379 -0.59233,-0.50935c-0.48276,-0.4 -0.56721,-0.65317 -0.63764,-1.27528c0.05524,-1.75786 0.85546,-3.42507 1.58973,-4.98755c0.06359,-0.13764 0.12719,-0.27528 0.19271,-0.41709c0.21352,-0.4616 0.42932,-0.92207 0.64583,-1.38228c0.06792,-0.14617 0.13584,-0.29235 0.20581,-0.44295c0.45498,-0.95439 0.98084,-1.80133 1.61102,-2.64916c0.109,-0.15292 0.21784,-0.30594 0.32646,-0.45912c2.17887,-2.96776 2.17887,-2.96776 3.44696,-2.61552z" fill="#25292e"/><path d="M194.15995,156.64616c0.56136,0.07317 0.78138,0.33214 1.14425,0.75119c0.16538,0.19024 0.16538,0.19024 0.3341,0.38433c0.60158,0.71413 1.19578,1.43443 1.77623,2.16588c0.18341,0.2311 0.3685,0.46077 0.55377,0.69039c0.11025,0.13854 0.22051,0.27708 0.3341,0.41981c0.33553,0.34608 0.57175,0.48275 1.02852,0.61962c-0.24545,1.9706 -3.19674,4.13711 -4.66655,5.296c-0.39259,0.31677 -0.76255,0.65105 -1.13334,0.99303c-0.61794,0.56805 -1.25348,1.10473 -1.90745,1.63067c-0.34601,0.28297 -0.6826,0.57426 -1.01845,0.86911c-1.11857,0.97488 -2.33017,1.80019 -3.56522,2.61995c-0.1795,0.11944 -0.35834,0.23988 -0.53616,0.36181c-0.54554,0.37316 -0.88999,0.57392 -1.56772,0.52798c-0.75986,-0.50072 -1.34471,-1.20122 -1.92711,-1.89162c-0.43357,-0.48336 -0.89565,-0.93611 -1.35716,-1.39265c-0.63162,-0.62542 -1.24828,-1.25149 -1.82174,-1.93148c-0.21722,-0.24908 -0.44755,-0.47677 -0.68513,-0.70642c-0.5081,-0.49775 -0.94163,-1.04515 -1.37846,-1.60556c-0.23352,-0.30522 -0.23352,-0.30522 -0.51699,-0.57813c0.05241,-0.50662 0.05241,-0.50662 0.13976,-0.97829c0.0935,-0.02054 0.187,-0.04108 0.28333,-0.06224c4.01732,-0.93827 8.00066,-2.7552 11.51815,-4.89277c0.41834,-0.25287 0.83868,-0.50224 1.25917,-0.75153c0.31666,-0.1883 0.6333,-0.37664 0.94991,-0.56503c0.15151,-0.08982 0.30302,-0.17964 0.45912,-0.27218c0.14322,-0.08565 0.28645,-0.1713 0.43401,-0.25955c0.12759,-0.076 0.25519,-0.15201 0.38665,-0.23031c0.37505,-0.23246 0.37505,-0.23246 0.74109,-0.54224c0.32005,-0.25051 0.32005,-0.25051 0.59956,-0.25051c0.04612,-0.13836 0.09224,-0.27672 0.13976,-0.41927z" fill="#25292e"/><path d="M211.07973,168.99056c0.9841,0.36346 1.87715,0.84414 2.78656,1.36116c1.05156,0.59764 2.1278,1.13574 3.21368,1.66762c0.27964,0.1395 0.5592,0.27917 0.83854,0.41927c-0.74897,4.27073 -3.93291,8.59684 -6.29958,12.10471c-1.14913,1.66799 -1.14913,1.66799 -2.08853,3.45627c-0.13703,0.23147 -0.13703,0.23147 -0.61744,0.36249c-0.49788,0.00873 -0.49788,0.00873 -0.70713,-0.18311c-0.10396,-0.11257 -0.10396,-0.11257 -0.21002,-0.22742c-0.23933,-0.14955 -0.23933,-0.14955 -0.50406,-0.27583c-0.09998,-0.04997 -0.19996,-0.09995 -0.30296,-0.15143c-0.10786,-0.05285 -0.21573,-0.1057 -0.32686,-0.16015c-0.11264,-0.05603 -0.22529,-0.11205 -0.34134,-0.16977c-0.36097,-0.17931 -0.7225,-0.35746 -1.08406,-0.53556c-0.23742,-0.11766 -0.47481,-0.2354 -0.71216,-0.35321c-0.87854,-0.43579 -1.7572,-0.87129 -2.63783,-1.30285c-0.17809,-0.08779 -0.35618,-0.17559 -0.53425,-0.26341c-0.15353,-0.07526 -0.30705,-0.15052 -0.46523,-0.22806c-0.35857,-0.19339 -0.35857,-0.19339 -0.63808,-0.47291c-0.06085,-0.48159 -0.07946,-0.73494 0.2211,-1.12678c0.10287,-0.08936 0.20574,-0.17871 0.31172,-0.27078c1.54154,-1.44549 2.73232,-3.27254 3.97295,-4.97418c0.23737,-0.32484 0.47625,-0.64851 0.71543,-0.97202c1.53782,-2.09 2.90365,-4.26345 4.15369,-6.53732c0.06566,-0.11785 0.13131,-0.23571 0.19895,-0.35714c0.08609,-0.15689 0.08609,-0.15689 0.17391,-0.31694c0.24014,-0.35555 0.43836,-0.56327 0.883,-0.49266z" fill="#25292e"/><path d="M201.84654,163.63397c0.30572,0.04367 0.30572,0.04367 0.55903,0.13976c0,0.09224 0,0.18448 0,0.27951c0.10143,0.03351 0.20285,0.06702 0.30735,0.10154c0.44866,0.20399 0.71121,0.44605 1.064,0.7894c0.652,0.60936 1.32945,1.15996 2.04394,1.69454c0.14385,0.10819 0.14385,0.10819 0.2906,0.21857c0.50997,0.3835 0.50997,0.3835 1.06987,0.68411c0.0843,0.04801 0.1686,0.09602 0.25546,0.14549c0.10482,0.43674 0.10482,0.43674 0.13976,0.83854c-0.08179,0.03099 -0.16358,0.06197 -0.24785,0.0939c-0.40779,0.24324 -0.56553,0.51786 -0.81779,0.91933c-0.14701,0.22781 -0.14701,0.22781 -0.29698,0.46021c-0.05152,0.07988 -0.10305,0.15975 -0.15613,0.24205c-2.08143,3.1697 -4.42374,6.27878 -6.90156,9.14564c-0.77503,0.91083 -1.48244,1.87961 -2.20116,2.83498c-0.49648,-0.08979 -0.83237,-0.29379 -1.24907,-0.57376c-0.1353,-0.09046 -0.27059,-0.18092 -0.40999,-0.27412c-0.21646,-0.1467 -0.21646,-0.1467 -0.43728,-0.29637c-0.14863,-0.09996 -0.29726,-0.19993 -0.45039,-0.30292c-1.29738,-0.87542 -2.59233,-1.75695 -3.86186,-2.6725c-0.20384,-0.14471 -0.41116,-0.28463 -0.62126,-0.42009c-0.52031,-0.34957 -0.75799,-0.52871 -0.98375,-1.12965c0.0475,-0.47987 0.0475,-0.47987 0.35267,-0.83308c0.14937,-0.11521 0.30118,-0.2273 0.45475,-0.33683c0.9011,-0.69783 1.69656,-1.46461 2.49156,-2.28029c0.53485,-0.54579 1.08324,-1.06187 1.66493,-1.55769c0.25946,-0.22799 0.50173,-0.46646 0.74372,-0.71284c0.30465,-0.30996 0.61419,-0.59934 0.94718,-0.87839c0.86782,-0.75482 1.67037,-1.57861 2.48194,-2.39275c0.28248,-0.28323 0.56571,-0.56571 0.84901,-0.84813c1.19508,-1.19018 1.19508,-1.19018 2.3185,-2.44741c0.19231,-0.22404 0.37808,-0.43648 0.60082,-0.63078z" fill="#25292e"/><path d="M193.18165,117.93367c0.00383,0.25912 0.00651,0.51826 0.00873,0.77739c0.00162,0.1443 0.00324,0.28861 0.00491,0.43728c-0.01365,0.4624 -0.01365,0.4624 -0.0823,0.899c-0.0812,0.61862 -0.09877,1.22169 -0.10441,1.84481c-0.00136,0.12459 -0.00272,0.24918 -0.00413,0.37754c-0.04074,4.69788 0.04658,9.43041 2.933,13.38681c0.50933,0.71166 0.60044,1.40563 0.45858,2.2623c-0.24054,0.3883 -0.41705,0.46888 -0.83854,0.69878c-1.75222,0.28035 -3.71658,-0.75272 -5.10547,-1.73767c-0.45534,-0.33647 -0.89096,-0.69198 -1.32332,-1.05745c-0.09296,-0.07855 -0.18592,-0.15709 -0.2817,-0.23802c-2.79411,-2.58521 -3.88916,-6.32136 -4.33026,-9.96418c-0.03961,-0.30819 -0.0801,-0.61624 -0.12109,-0.92425c-0.03368,-0.25392 -0.06607,-0.50801 -0.09837,-0.76211c-0.04602,-0.3975 -0.04602,-0.3975 -0.16159,-0.71516c-0.03821,-0.25385 -0.03821,-0.25385 0.09936,-0.49406c1.89979,-1.9166 4.61357,-3.16048 6.99,-4.37175c0.11688,-0.05981 0.23375,-0.11962 0.35417,-0.18125c0.98709,-0.47622 0.98709,-0.47622 1.60242,-0.23802z" fill="#25292e"/><path d="M301.49276,159.02201c0.10377,0.01653 0.20754,0.03306 0.31445,0.05009c0.30743,0.05244 0.61196,0.11288 0.91715,0.17702c0.2651,0.05459 0.2651,0.05459 0.53555,0.11028c0.65891,0.31143 0.84924,0.70173 1.16773,1.33969c0.06874,0.13622 0.13748,0.27244 0.2083,0.41279c0.23411,0.47683 0.45966,0.95685 0.68264,1.43898c0.03983,0.08591 0.07967,0.17182 0.12071,0.26034c0.93478,2.02311 1.74194,4.08623 2.20274,6.27327c0.03636,0.15194 0.03636,0.15194 0.07346,0.30695c0.08036,0.47497 0.08193,0.92603 0.07994,1.4078c-0.0003,0.14276 -0.0003,0.14276 -0.0006,0.28841c-0.00078,0.30185 -0.00253,0.60368 -0.00431,0.90553c-0.0007,0.20554 -0.00134,0.41108 -0.00191,0.61662c-0.00153,0.50198 -0.00394,1.00395 -0.00682,1.50593c-0.52918,-0.24289 -0.78402,-0.51636 -1.14425,-0.97829c-1.33598,-1.67601 -2.76292,-3.14707 -4.446,-4.4722c-0.08915,-0.0704 -0.17831,-0.14079 -0.27016,-0.21332c-2.29975,-1.80823 -4.66162,-3.22716 -7.27667,-4.53839c-0.12537,-0.06296 -0.25073,-0.12593 -0.37989,-0.1908c-1.55524,-0.77516 -3.12474,-1.45815 -4.76352,-2.0394c-0.12944,-0.04771 -0.25888,-0.09541 -0.39225,-0.14457c-0.11525,-0.04087 -0.23051,-0.08175 -0.34925,-0.12386c-0.26436,-0.15675 -0.26436,-0.15675 -0.38399,-0.43582c-0.02013,-0.27996 -0.02013,-0.27996 0.16221,-0.56766c0.5533,-0.39853 1.13628,-0.53246 1.79172,-0.69933c0.13652,-0.03588 0.27305,-0.07177 0.41371,-0.10874c1.24381,-0.31825 2.4898,-0.54962 3.76151,-0.72106c0.13007,-0.01838 0.26014,-0.03675 0.39416,-0.05568c2.17302,-0.25204 4.43775,-0.15382 6.59366,0.19544z" fill="#393f46"/></g></g></svg>